  0
SECTION
  2
HEADER
  9
$ACADVER
  1
AC1014
  9
$ACADMAINTVER
 70
     0
  9
$DWGCODEPAGE
  3
ANSI_1252
  9
$INSBASE
 10
0.0
 20
0.0
 30
0.0
  9
$EXTMIN
 10
0.0
 20
0.0
 30
0.0
  9
$EXTMAX
 10
8.5
 20
11.0
 30
0.0
  9
$LIMMIN
 10
0.0
 20
0.0
  9
$LIMMAX
 10
12.0
 20
9.0
  9
$ORTHOMODE
 70
     0
  9
$REGENMODE
 70
     1
  9
$FILLMODE
 70
     0
  9
$QTEXTMODE
 70
     0
  9
$MIRRTEXT
 70
     1
  9
$DRAGMODE
 70
     2
  9
$LTSCALE
 40
1.0
  9
$OSMODE
 70
     0
  9
$ATTMODE
 70
     1
  9
$TEXTSIZE
 40
0.2
  9
$TRACEWID
 40
0.05
  9
$TEXTSTYLE
  7
STANDARD
  9
$CLAYER
  8
0
  9
$CELTYPE
  6
BYLAYER
  9
$CECOLOR
 62
   256
  9
$CELTSCALE
 40
1.0
  9
$DELOBJ
 70
     1
  9
$DISPSILH
 70
     0
  9
$DIMSCALE
 40
1.0
  9
$DIMASZ
 40
0.18
  9
$DIMEXO
 40
0.0625
  9
$DIMDLI
 40
0.38
  9
$DIMRND
 40
0.0
  9
$DIMDLE
 40
0.0
  9
$DIMEXE
 40
0.18
  9
$DIMTP
 40
0.0
  9
$DIMTM
 40
0.0
  9
$DIMTXT
 40
0.18
  9
$DIMCEN
 40
0.09
  9
$DIMTSZ
 40
0.0
  9
$DIMTOL
 70
     0
  9
$DIMLIM
 70
     0
  9
$DIMTIH
 70
     0
  9
$DIMTOH
 70
     0
  9
$DIMSE1
 70
     0
  9
$DIMSE2
 70
     0
  9
$DIMTAD
 70
     1
  9
$DIMZIN
 70
     0
  9
$DIMBLK
  1

  9
$DIMASO
 70
     1
  9
$DIMSHO
 70
     1
  9
$DIMPOST
  1

  9
$DIMAPOST
  1

  9
$DIMALT
 70
     0
  9
$DIMALTD
 70
     2
  9
$DIMALTF
 40
25.4
  9
$DIMLFAC
 40
1.0
  9
$DIMTOFL
 70
     0
  9
$DIMTVP
 40
0.0
  9
$DIMTIX
 70
     0
  9
$DIMSOXD
 70
     0
  9
$DIMSAH
 70
     0
  9
$DIMBLK1
  1

  9
$DIMBLK2
  1

  9
$DIMSTYLE
  2
STANDARD
  9
$DIMCLRD
 70
     0
  9
$DIMCLRE
 70
     0
  9
$DIMCLRT
 70
     0
  9
$DIMTFAC
 40
1.0
  9
$DIMGAP
 40
0.09
  9
$DIMJUST
 70
     0
  9
$DIMSD1
 70
     0
  9
$DIMSD2
 70
     0
  9
$DIMTOLJ
 70
     1
  9
$DIMTZIN
 70
     0
  9
$DIMALTZ
 70
     0
  9
$DIMALTTZ
 70
     0
  9
$DIMFIT
 70
     3
  9
$DIMUPT
 70
     0
  9
$DIMUNIT
 70
     2
  9
$DIMDEC
 70
     2
  9
$DIMTDEC
 70
     4
  9
$DIMALTU
 70
     2
  9
$DIMALTTD
 70
     2
  9
$DIMTXSTY
  7
STANDARD
  9
$DIMAUNIT
 70
     0
  9
$LUNITS
 70
     2
  9
$LUPREC
 70
     4
  9
$SKETCHINC
 40
0.1
  9
$FILLETRAD
 40
0.5
  9
$AUNITS
 70
     0
  9
$AUPREC
 70
     0
  9
$MENU
  1
.
  9
$ELEVATION
 40
0.0
  9
$PELEVATION
 40
0.0
  9
$THICKNESS
 40
0.0
  9
$LIMCHECK
 70
     0
  9
$BLIPMODE
 70
     0
  9
$CHAMFERA
 40
0.5
  9
$CHAMFERB
 40
0.5
  9
$CHAMFERC
 40
1.0
  9
$CHAMFERD
 40
0.0
  9
$SKPOLY
 70
     0
  9
$TDCREATE
 40
2450772.666465926
  9
$TDUPDATE
 40
2460203.459224525
  9
$TDINDWG
 40
0.0011564931
  9
$TDUSRTIMER
 40
0.0000000000
  9
$USRTIMER
 70
     1
  9
$ANGBASE
 50
0.0
  9
$ANGDIR
 70
     0
  9
$PDMODE
 70
     0
  9
$PDSIZE
 40
0.0
  9
$PLINEWID
 40
0.0
  9
$COORDS
 70
     1
  9
$SPLFRAME
 70
     0
  9
$SPLINETYPE
 70
     6
  9
$SPLINESEGS
 70
     8
  9
$ATTDIA
 70
     0
  9
$ATTREQ
 70
     1
  9
$HANDLING
 70
     1
  9
$HANDSEED
  5
2AC
  9
$SURFTAB1
 70
     6
  9
$SURFTAB2
 70
     6
  9
$SURFTYPE
 70
     6
  9
$SURFU
 70
     6
  9
$SURFV
 70
     6
  9
$UCSNAME
  2

  9
$UCSORG
 10
0.0
 20
0.0
 30
0.0
  9
$UCSXDIR
 10
1.0
 20
0.0
 30
0.0
  9
$UCSYDIR
 10
0.0
 20
1.0
 30
0.0
  9
$PUCSNAME
  2

  9
$PUCSORG
 10
0.0
 20
0.0
 30
0.0
  9
$PUCSXDIR
 10
1.0
 20
0.0
 30
0.0
  9
$PUCSYDIR
 10
0.0
 20
1.0
 30
0.0
  9
$USERI1
 70
     0
  9
$USERI2
 70
     0
  9
$USERI3
 70
     0
  9
$USERI4
 70
     0
  9
$USERI5
 70
     0
  9
$USERR1
 40
0.0
  9
$USERR2
 40
0.0
  9
$USERR3
 40
0.0
  9
$USERR4
 40
0.0
  9
$USERR5
 40
0.0
  9
$WORLDVIEW
 70
     1
  9
$SHADEDGE
 70
     3
  9
$SHADEDIF
 70
    70
  9
$TILEMODE
 70
     1
  9
$MAXACTVP
 70
    48
  9
$PINSBASE
 10
0.0
 20
0.0
 30
0.0
  9
$PLIMCHECK
 70
     0
  9
$PEXTMIN
 10
0.0
 20
0.0
 30
0.0
  9
$PEXTMAX
 10
0.0
 20
0.0
 30
0.0
  9
$PLIMMIN
 10
0.0
 20
0.0
  9
$PLIMMAX
 10
12.0
 20
9.0
  9
$UNITMODE
 70
     0
  9
$VISRETAIN
 70
     1
  9
$PLINEGEN
 70
     0
  9
$PSLTSCALE
 70
     1
  9
$TREEDEPTH
 70
  3020
  9
$PICKSTYLE
 70
     1
  9
$CMLSTYLE
  2
STANDARD
  9
$CMLJUST
 70
     0
  9
$CMLSCALE
 40
1.0
  9
$PROXYGRAPHICS
 70
     1
  9
$MEASUREMENT
 70
     0
  0
ENDSEC
  0
SECTION
  2
CLASSES
  0
CLASS
  1
LWPOLYLINE
  2
AcDbPolyline
  3
"AutoCAD"
 90
        0
280
     0
281
     1
  0
CLASS
  1
IMAGE
  2
AcDbRasterImage
  3
ISM
 90
      127
280
     0
281
     1
  0
CLASS
  1
OLE2FRAME
  2
AcDbOle2Frame
  3
""
 90
        0
280
     0
281
     1
  0
CLASS
  1
HATCH
  2
AcDbHatch
  3
"ACAD_SEDONA"
 90
        0
280
     0
281
     1
  0
CLASS
  1
DICTIONARYVAR
  2
AcDbDictionaryVar
  3
"AutoCAD"
 90
        0
280
     0
281
     0
  0
CLASS
  1
RASTERVARIABLES
  2
AcDbRasterVariables
  3
ISM
 90
        0
280
     0
281
     0
  0
CLASS
  1
IMAGEDEF
  2
AcDbRasterImageDef
  3
ISM
 90
        0
280
     0
281
     0
  0
CLASS
  1
IMAGEDEF_REACTOR
  2
AcDbRasterImageDefReactor
  3
ISM
 90
        1
280
     0
281
     0
  0
CLASS
  1
IDBUFFER
  2
AcDbIdBuffer
  3
"Acad"
 90
        0
280
     0
281
     0
  0
CLASS
  1
SPATIAL_FILTER
  2
AcDbSpatialFilter
  3
"Acad"
 90
        0
280
     0
281
     0
  0
CLASS
  1
XRECORD
  2
AcDbXrecord
  3
"<Built In>"
 90
        0
280
     0
281
     0
  0
CLASS
  1
SORTENTSTABLE
  2
AcDbSortentsTable
  3
"AutoCAD"
 90
        0
280
     0
281
     0
  0
CLASS
  1
LAYER_INDEX
  2
AcDbLayerIndex
  3
"Acad"
 90
        0
280
     0
281
     0
  0
CLASS
  1
SPATIAL_INDEX
  2
AcDbSpatialIndex
  3
"Acad"
 90
        0
280
     0
281
     0
  0
CLASS
  1
OBJECT_PTR
  2
CAseDLPNTableRecord
  3
"ASE-LPNTableRecord"
 90
        1
280
     0
281
     0
  0
CLASS
  1
LAYOUT
  2
AcDbLayout
  3
"AutoCAD 2000"
 90
        1
280
     0
281
     0
  0
CLASS
  1
PLOTSETTINGS
  2
AcDbPlotSettings
  3
"AutoCAD 2000"
 90
        1
280
     0
281
     0
  0
CLASS
  1
ACDBDICTIONARYWDFLT
  2
AcDbDictionaryWithDefault
  3
"AutoCAD 2000"
 90
        1
280
     0
281
     0
  0
CLASS
  1
ACDBPLACEHOLDER
  2
AcDbPlaceHolder
  3
"AutoCAD 2000"
 90
        1
280
     0
281
     0
  0
CLASS
  1
VBA_PROJECT
  2
AcDbVbaProject
  3
"acadvba"
 90
        1
280
     0
281
     0
  0
CLASS
  1
WIPEOUT
  2
AcDbWipeout
  3
WipeOut|AutoCAD Express Tool|expresstools@autodesk.com
 90
      127
280
     0
281
     1
  0
CLASS
  1
WIPEOUTVARIABLES
  2
AcDbWipeoutVariables
  3
WipeOut|AutoCAD Express Tool|expresstools@autodesk.com
 90
        0
280
     0
281
     0
  0
CLASS
  1
RTEXT
  2
RText
  3
RText|AutoCAD Express Tool|expresstools@autodesk.com
 90
        0
280
     0
281
     1
  0
CLASS
  1
ARCALIGNEDTEXT
  2
AcDbArcAlignedText
  3
ATEXT|AutoCAD Express Tool|expresstools@autodesk.com
 90
        0
280
     0
281
     1
  0
ENDSEC
  0
SECTION
  2
TABLES
  0
TABLE
  2
VPORT
  5
8
100
AcDbSymbolTable
 70
     1
  0
VPORT
  5
25
100
AcDbSymbolTableRecord
100
AcDbViewportTableRecord
  2
*ACTIVE
 70
     0
 10
0.0
 20
0.0
 11
1.0
 21
1.0
 12
4.25
 22
5.5
 13
0.0
 23
0.0
 14
0.5
 24
0.5
 15
0.5
 25
0.5
 16
0.0
 26
0.0
 36
1.0
 17
0.0
 27
0.0
 37
0.0
 40
11.0
 41
0.772727
 42
50.0
 43
0.0
 44
0.0
 50
0.0
 51
0.0
 71
     0
 72
   100
 73
     1
 74
     1
 75
     0
 76
     0
 77
     0
 78
     0
  0
ENDTAB
  0
TABLE
  2
LTYPE
  5
5
100
AcDbSymbolTable
 70
     3
  0
LTYPE
  5
12
100
AcDbSymbolTableRecord
100
AcDbLinetypeTableRecord
  2
BYBLOCK
 70
    64
  3

 72
    65
 73
     0
 40
0.0
  0
LTYPE
  5
13
100
AcDbSymbolTableRecord
100
AcDbLinetypeTableRecord
  2
BYLAYER
 70
    64
  3

 72
    65
 73
     0
 40
0.0
  0
LTYPE
  5
14
100
AcDbSymbolTableRecord
100
AcDbLinetypeTableRecord
  2
CONTINUOUS
 70
     0
  3
Solid line
 72
    65
 73
     0
 40
0.0
  0
ENDTAB
  0
TABLE
  2
LAYER
  5
2
100
AcDbSymbolTable
 70
     3
  0
LAYER
  5
E
100
AcDbSymbolTableRecord
100
AcDbLayerTableRecord
  2
0
 70
     0
 62
     7
  6
CONTINUOUS
  0
LAYER
  5
3C
100
AcDbSymbolTableRecord
100
AcDbLayerTableRecord
  2
CONNECTOR
 70
     0
 62
     7
  6
CONTINUOUS
  0
LAYER
  5
F9
100
AcDbSymbolTableRecord
100
AcDbLayerTableRecord
  2
FLOWCHART
 70
     0
 62
     7
  6
CONTINUOUS
  0
ENDTAB
  0
TABLE
  2
STYLE
  5
3
100
AcDbSymbolTable
 70
     1
  0
STYLE
  5
F
100
AcDbSymbolTableRecord
100
AcDbTextStyleTableRecord
  2
STANDARD
 70
     0
 40
0.0
 41
1.0
 50
0.0
 71
     0
 42
0.2
  3
txt.shx
  4

  0
ENDTAB
  0
TABLE
  2
VIEW
  5
6
100
AcDbSymbolTable
 70
     0
  0
ENDTAB
  0
TABLE
  2
UCS
  5
7
100
AcDbSymbolTable
 70
     0
  0
ENDTAB
  0
TABLE
  2
APPID
  5
9
100
AcDbSymbolTable
 70
     1
  0
APPID
  5
10
100
AcDbSymbolTableRecord
100
AcDbRegAppTableRecord
  2
ACAD
 70
     0
  0
ENDTAB
  0
TABLE
  2
DIMSTYLE
  5
A
100
AcDbSymbolTable
 70
     1
  0
DIMSTYLE
105
1D
100
AcDbSymbolTableRecord
100
AcDbDimStyleTableRecord
  2
STANDARD
 70
     0
  3

  4

  5

  6

  7

 40
1.0
 41
0.18
 42
0.0625
 43
0.38
 44
0.18
 45
0.0
 46
0.0
 47
0.0
 48
0.0
 71
     0
 72
     0
 73
     1
 74
     1
 75
     0
 76
     0
 77
     0
 78
     0
140
0.18
141
0.09
142
0.0
143
25.4
144
1.0
145
0.0
146
1.0
147
0.09
170
     0
171
     2
172
     0
173
     0
174
     0
175
     0
176
     0
177
     0
178
     0
270
     2
271
     4
272
     4
273
     2
274
     2
275
     0
280
     0
281
     0
282
     0
283
     1
284
     0
285
     0
286
     0
287
     3
288
     0
340
F
  0
ENDTAB
  0
TABLE
  2
BLOCK_RECORD
  5
1
100
AcDbSymbolTable
 70
    21
  0
BLOCK_RECORD
  5
18
100
AcDbSymbolTableRecord
100
AcDbBlockTableRecord
  2
*MODEL_SPACE
  0
BLOCK_RECORD
  5
15
100
AcDbSymbolTableRecord
100
AcDbBlockTableRecord
  2
*PAPER_SPACE
  0
BLOCK_RECORD
  5
1E4
100
AcDbSymbolTableRecord
100
AcDbBlockTableRecord
  2
HOME_PAGE
  0
BLOCK_RECORD
  5
1F1
100
AcDbSymbolTableRecord
100
AcDbBlockTableRecord
  2
PAGE_GROUP
  0
BLOCK_RECORD
  5
1F8
100
AcDbSymbolTableRecord
100
AcDbBlockTableRecord
  2
GROUP
  0
BLOCK_RECORD
  5
1FE
100
AcDbSymbolTableRecord
100
AcDbBlockTableRecord
  2
MAIN_OBJECT
  0
BLOCK_RECORD
  5
202
100
AcDbSymbolTableRecord
100
AcDbBlockTableRecord
  2
HTML
  0
BLOCK_RECORD
  5
21A
100
AcDbSymbolTableRecord
100
AcDbBlockTableRecord
  2
PUBLICATION
  0
BLOCK_RECORD
  5
233
100
AcDbSymbolTableRecord
100
AcDbBlockTableRecord
  2
GRAPHIC__BITMAP_
  0
BLOCK_RECORD
  5
23D
100
AcDbSymbolTableRecord
100
AcDbBlockTableRecord
  2
MULTIMEDIA
  0
BLOCK_RECORD
  5
249
100
AcDbSymbolTableRecord
100
AcDbBlockTableRecord
  2
FORM
  0
BLOCK_RECORD
  5
25E
100
AcDbSymbolTableRecord
100
AcDbBlockTableRecord
  2
SMALL_SITE_MAP_NODE
  0
BLOCK_RECORD
  5
262
100
AcDbSymbolTableRecord
100
AcDbBlockTableRecord
  2
PAGE_ELEMENT_GROUP
  0
BLOCK_RECORD
  5
268
100
AcDbSymbolTableRecord
100
AcDbBlockTableRecord
  2
PAGE_ELEMENT
  0
BLOCK_RECORD
  5
26C
100
AcDbSymbolTableRecord
100
AcDbBlockTableRecord
  2
DYNAMIC_CONNECTOR
  0
BLOCK_RECORD
  5
270
100
AcDbSymbolTableRecord
100
AcDbBlockTableRecord
  2
TITLE_BLOCK_RETRO
  0
BLOCK_RECORD
  5
27E
100
AcDbSymbolTableRecord
100
AcDbBlockTableRecord
  2
FRONTPAGE_WEBSITE
  0
BLOCK_RECORD
  5
285
100
AcDbSymbolTableRecord
100
AcDbBlockTableRecord
  2
DATA_STORE
  0
BLOCK_RECORD
  5
28E
100
AcDbSymbolTableRecord
100
AcDbBlockTableRecord
  2
USE_CASE
  0
BLOCK_RECORD
  5
293
100
AcDbSymbolTableRecord
100
AcDbBlockTableRecord
  2
PROCESS
  0
BLOCK_RECORD
  5
297
100
AcDbSymbolTableRecord
100
AcDbBlockTableRecord
  2
ROUNDED_PROCESS
  0
BLOCK_RECORD
  5
29E
100
AcDbSymbolTableRecord
100
AcDbBlockTableRecord
  2
TERMINATOR
  0
BLOCK_RECORD
  5
2A5
100
AcDbSymbolTableRecord
100
AcDbBlockTableRecord
  2
PAPER_TAPE
  0
ENDTAB
  0
ENDSEC
  0
SECTION
  2
BLOCKS
  0
BLOCK
  5
19
100
AcDbEntity
  8
0
100
AcDbBlockBegin
  2
*MODEL_SPACE
 70
     0
 10
0.0
 20
0.0
 30
0.0
  3
*MODEL_SPACE
  1

  0
ENDBLK
  5
1A
100
AcDbEntity
  8
0
100
AcDbBlockEnd
  0
BLOCK
  5
16
100
AcDbEntity
 67
     1
  8
0
100
AcDbBlockBegin
  2
*PAPER_SPACE
 70
     0
 10
0.0
 20
0.0
 30
0.0
  3
*PAPER_SPACE
  1

  0
ENDBLK
  5
17
100
AcDbEntity
 67
     1
  8
0
100
AcDbBlockEnd
  0
BLOCK
  5
1E5
100
AcDbEntity
  8
0
100
AcDbBlockBegin
  2
HOME_PAGE
 70
     0
 10
0.0
 20
0.0
 30
0.0
  3
HOME_PAGE
  1

  0
LWPOLYLINE
  5
1E6
102
{ACAD_REACTORS
330
1E9
102
}
100
AcDbEntity
  8
0
  6
CONTINUOUS
 62
     7
100
AcDbPolyline
 90
        5
 70
     1
 10
0.0
 20
0.668103
 10
0.0
 20
0.064655
 10
0.431034
 20
0.064655
 10
0.431034
 20
0.547414
 10
0.310345
 20
0.668103
  0
LWPOLYLINE
  5
1E7
100
AcDbEntity
  8
0
  6
CONTINUOUS
 62
     7
100
AcDbPolyline
 90
        3
 70
     0
 10
0.310345
 20
0.668103
 10
0.310345
 20
0.547414
 10
0.431034
 20
0.547414
  0
LWPOLYLINE
  5
1E8
102
{ACAD_REACTORS
330
1E9
102
}
100
AcDbEntity
  8
0
  6
CONTINUOUS
 62
     7
100
AcDbPolyline
 90
        4
 70
     1
 10
0.463362
 20
0.336207
 10
0.530711
 20
0.336207
 10
0.530711
 20
0.517241
 10
0.463362
 20
0.517241
  0
HATCH
  5
1E9
100
AcDbEntity
  8
0
 62
    10
100
AcDbHatch
 10
0.0
 20
0.0
 30
0.0
210
0.0
220
0.0
230
1.0
  2
SOLID
 70
     1
 71
     1
 91
        1
 92
        3
 72
     0
 73
     1
 93
        4
 10
0.463362068965513
 20
0.33620689655172
 10
0.5307112068965469
 20
0.33620689655172
 10
0.5307112068965469
 20
0.51724137931034
 10
0.463362068965513
 20
0.51724137931034
 97
        3
330
1E1
330
1E6
330
1E8
 75
     0
 76
     1
 98
        0
  0
LWPOLYLINE
  5
1EA
102
{ACAD_REACTORS
330
1EB
102
}
100
AcDbEntity
  8
0
  6
CONTINUOUS
 62
     7
100
AcDbPolyline
 90
        5
 70
     1
 10
0.140086
 20
0.0
 10
0.571121
 20
0.0
 10
0.571121
 20
0.326019
 10
0.355603
 20
0.463362
 10
0.140086
 20
0.326019
  0
HATCH
  5
1EB
100
AcDbEntity
  8
0
 62
   254
100
AcDbHatch
 10
0.0
 20
0.0
 30
0.0
210
0.0
220
0.0
230
1.0
  2
SOLID
 70
     1
 71
     1
 91
        1
 92
        3
 72
     0
 73
     1
 93
        5
 10
0.14008620689655
 20
0.0
 10
0.5711206896551699
 20
0.0
 10
0.5711206896551699
 20
0.32601880877743
 10
0.35560344827586
 20
0.46336206896551
 10
0.14008620689655
 20
0.32601880877743
 97
        1
330
1EA
 75
     0
 76
     1
 98
        0
  0
LWPOLYLINE
  5
1EC
102
{ACAD_REACTORS
330
1ED
102
}
100
AcDbEntity
  8
0
  6
CONTINUOUS
 62
     7
100
AcDbPolyline
 90
        6
 70
     1
 10
0.140086
 20
0.28556
 10
0.086207
 20
0.28556
 10
0.355603
 20
0.501078
 10
0.625
 20
0.28556
 10
0.571121
 20
0.28556
 10
0.355603
 20
0.453664
  0
HATCH
  5
1ED
100
AcDbEntity
  8
0
 62
     2
100
AcDbHatch
 10
0.0
 20
0.0
 30
0.0
210
0.0
220
0.0
230
1.0
  2
SOLID
 70
     1
 71
     1
 91
        1
 92
        3
 72
     0
 73
     1
 93
        6
 10
0.140086206896547
 20
0.28556034482759
 10
0.08620689655172
 20
0.28556034482759
 10
0.35560344827586
 20
0.5010775862068999
 10
0.625
 20
0.28556034482759
 10
0.5711206896551699
 20
0.28556034482759
 10
0.35560344827586
 20
0.45366379310345
 97
        1
330
1EC
 75
     0
 76
     1
 98
        0
  0
LWPOLYLINE
  5
1EE
102
{ACAD_REACTORS
330
1EF
102
}
100
AcDbEntity
  8
0
  6
CONTINUOUS
 62
     7
100
AcDbPolyline
 90
        4
 70
     1
 10
0.288254
 20
0.0
 10
0.422953
 20
0.0
 10
0.422953
 20
0.224138
 10
0.288254
 20
0.224138
  0
HATCH
  5
1EF
100
AcDbEntity
  8
0
 62
     2
100
AcDbHatch
 10
0.0
 20
0.0
 30
0.0
210
0.0
220
0.0
230
1.0
  2
SOLID
 70
     1
 71
     1
 91
        1
 92
        3
 72
     0
 73
     1
 93
        4
 10
0.288254310344826
 20
0.0
 10
0.422952586206896
 20
0.0
 10
0.422952586206896
 20
0.22413793103448
 10
0.288254310344826
 20
0.22413793103448
 97
        1
330
1EE
 75
     0
 76
     1
 98
        0
  0
ENDBLK
  5
1F0
100
AcDbEntity
  8
0
100
AcDbBlockEnd
  0
BLOCK
  5
1F2
100
AcDbEntity
  8
0
100
AcDbBlockBegin
  2
PAGE_GROUP
 70
     0
 10
0.0
 20
0.0
 30
0.0
  3
PAGE_GROUP
  1

  0
LWPOLYLINE
  5
1F3
102
{ACAD_REACTORS
330
207
102
}
100
AcDbEntity
  8
0
  6
CONTINUOUS
 62
     7
100
AcDbPolyline
 90
        8
 70
     1
 10
0.096951
 20
0.0
 10
0.87666
 20
0.0
 42
0.414214
 10
1.00166
 20
0.125
 10
1.00166
 20
0.375
 42
0.414214
 10
0.87666
 20
0.5
 10
0.096951
 20
0.5
 42
0.414214
 10
-0.028049
 20
0.375
 10
-0.028049
 20
0.125
 42
0.414214
  0
MTEXT
  5
1F4
100
AcDbEntity
  8
0
100
AcDbMText
 10
0.486806
 20
0.25
 30
0.0
 40
0.121339
 41
1.02971
 71
     5
 72
     5
  1
\C7;\fArial|b0|i0|;\H0.12133881635964;Page group
  0
LWPOLYLINE
  5
1F5
102
{ACAD_REACTORS
330
207
102
}
100
AcDbEntity
  8
0
  6
CONTINUOUS
 62
     7
100
AcDbPolyline
 90
        8
 70
     1
 10
-0.028049
 20
0.125
 10
0.75166
 20
0.125
 42
0.414214
 10
0.87666
 20
0.25
 10
0.87666
 20
0.5
 42
0.414214
 10
0.75166
 20
0.625
 10
-0.028049
 20
0.625
 42
0.414214
 10
-0.153049
 20
0.5
 10
-0.153049
 20
0.25
 42
0.414214
  0
LWPOLYLINE
  5
1F6
102
{ACAD_REACTORS
330
207
102
}
100
AcDbEntity
  8
0
  6
CONTINUOUS
 62
     7
100
AcDbPolyline
 90
        8
 70
     1
 10
0.034451
 20
0.0625
 10
0.81416
 20
0.0625
 42
0.414214
 10
0.93916
 20
0.1875
 10
0.93916
 20
0.4375
 42
0.414214
 10
0.81416
 20
0.5625
 10
0.034451
 20
0.5625
 42
0.414214
 10
-0.090549
 20
0.4375
 10
-0.090549
 20
0.1875
 42
0.414214
  0
ENDBLK
  5
1F7
100
AcDbEntity
  8
0
100
AcDbBlockEnd
  0
BLOCK
  5
1F9
100
AcDbEntity
  8
0
100
AcDbBlockBegin
  2
GROUP
 70
     0
 10
0.0
 20
0.0
 30
0.0
  3
GROUP
  1

  0
LWPOLYLINE
  5
1FA
102
{ACAD_REACTORS
330
207
102
}
100
AcDbEntity
  8
0
  6
CONTINUOUS
 62
     7
100
AcDbPolyline
 90
        6
 70
     1
 10
0.0
 20
0.711716
 10
0.0
 20
-0.070981
 42
0.471405
 10
0.155581
 20
-0.226562
 10
2.344419
 20
-0.226562
 42
0.471405
 10
2.5
 20
-0.070981
 10
2.5
 20
0.711716
  0
LWPOLYLINE
  5
1FB
102
{ACAD_REACTORS
330
207
102
}
100
AcDbEntity
  8
0
  6
CONTINUOUS
 62
     7
100
AcDbPolyline
 90
        6
 70
     1
 10
0.0
 20
0.867298
 10
0.0
 20
0.711716
 10
2.5
 20
0.711716
 10
2.5
 20
0.867298
 42
0.471405
 10
2.344419
 20
1.022879
 10
0.155581
 20
1.022879
 42
0.471405
  0
MTEXT
  5
1FC
100
AcDbEntity
  8
0
100
AcDbMText
 10
1.25
 20
0.867298
 30
0.0
 40
0.121339
 41
2.5
 71
     5
 72
     5
  1
\C7;\fArial|b0|i0|;\H0.12133881635964;Group
  0
ENDBLK
  5
1FD
100
AcDbEntity
  8
0
100
AcDbBlockEnd
  0
BLOCK
  5
1FF
100
AcDbEntity
  8
0
100
AcDbBlockBegin
  2
MAIN_OBJECT
 70
     0
 10
0.0
 20
0.0
 30
0.0
  3
MAIN_OBJECT
  1

  0
LWPOLYLINE
  5
200
102
{ACAD_REACTORS
330
207
102
}
100
AcDbEntity
  8
0
  6
CONTINUOUS
 62
     7
100
AcDbPolyline
 90
        8
 70
     1
 10
0.25
 20
0.109375
 10
1.0
 20
0.109375
 42
0.414214
 10
1.125
 20
0.234375
 10
1.125
 20
0.484375
 42
0.414214
 10
1.0
 20
0.609375
 10
0.25
 20
0.609375
 42
0.414214
 10
0.125
 20
0.484375
 10
0.125
 20
0.234375
 42
0.414214
  0
ENDBLK
  5
201
100
AcDbEntity
  8
0
100
AcDbBlockEnd
  0
BLOCK
  5
203
100
AcDbEntity
  8
0
100
AcDbBlockBegin
  2
HTML
 70
     0
 10
0.0
 20
0.0
 30
0.0
  3
HTML
  1

  0
LWPOLYLINE
  5
204
102
{ACAD_REACTORS
330
207
102
}
100
AcDbEntity
  8
0
  6
CONTINUOUS
100
AcDbPolyline
 90
        4
 70
     1
 10
-0.125
 20
-0.125
 10
0.125
 20
-0.125
 10
0.125
 20
0.125
 10
-0.125
 20
0.125
  0
ELLIPSE
  5
205
102
{ACAD_REACTORS
330
207
102
}
100
AcDbEntity
  8
0
  6
CONTINUOUS
100
AcDbEllipse
 10
-0.000234
 20
-0.001138
 30
0.0
 11
0.0
 21
-0.1010100015940462
 31
0.0
210
0.0
220
0.0
230
1.0
 40
0.90879
 41
1.5707963267948961
 42
4.7123889803847039
  0
ELLIPSE
  5
206
102
{ACAD_REACTORS
330
207
102
}
100
AcDbEntity
  8
0
  6
CONTINUOUS
100
AcDbEllipse
 10
-0.000234
 20
-0.001138
 30
0.0
 11
0.0
 21
-0.1010100015940462
 31
0.0
210
0.0
220
0.0
230
1.0
 40
0.90879
 41
4.7123889803846897
 42
1.5707963267948961
  0
HATCH
  5
207
100
AcDbEntity
  8
0
 62
     3
100
AcDbHatch
 10
0.0
 20
0.0
 30
0.0
210
0.0
220
0.0
230
1.0
  2

 70
     1
 71
     1
 91
        1
 92
        1
 93
        2
 72
     3
 10
-0.000234375
 20
-0.0011383178488237
 11
0.091796875
 21
0.0
 40
1.100364
 50
180.0
 51
0.0
 73
     0
 72
     3
 10
-0.000234375
 20
-0.0011383178488237
 11
0.091796875
 21
0.0
 40
1.100364
 50
0.0
 51
180.0
 73
     0
 97
        9
330
1F3
330
1F5
330
1F6
330
1FA
330
1FB
330
200
330
204
330
205
330
206
 75
     0
 76
     1
 98
        0
  0
LINE
  5
208
102
{ACAD_REACTORS
330
218
102
}
100
AcDbEntity
  8
0
  6
CONTINUOUS
100
AcDbLine
 10
-0.012949
 20
0.069769
 30
0.0
 11
-0.012949
 21
0.058052
 31
0.0
  0
LINE
  5
209
102
{ACAD_REACTORS
330
218
102
}
100
AcDbEntity
  8
0
  6
CONTINUOUS
100
AcDbLine
 10
-0.012949
 20
0.058052
 30
0.0
 11
-0.033852
 21
0.058052
 31
0.0
  0
ELLIPSE
  5
20A
102
{ACAD_REACTORS
330
218
102
}
100
AcDbEntity
  8
0
  6
CONTINUOUS
100
AcDbEllipse
 10
-0.033632
 20
0.052193
 30
0.0
 11
0.0
 21
-0.0058640222107182
 31
0.0
210
0.0
220
0.0
230
1.0
 40
0.891938
 41
6.2410505921570314
 42
3.1837273686123493
  0
ELLIPSE
  5
20B
102
{ACAD_REACTORS
330
218
102
}
100
AcDbEntity
  8
0
  6
CONTINUOUS
100
AcDbEllipse
 10
-0.044303
 20
0.060338
 30
0.0
 11
0.0
 21
-0.0182597181102699
 31
0.0
210
0.0
220
0.0
230
1.0
 40
0.891938
 41
5.5864458116479057
 42
0.6967394955316993
  0
ELLIPSE
  5
20C
102
{ACAD_REACTORS
330
218
102
}
100
AcDbEntity
  8
0
  6
CONTINUOUS
100
AcDbEllipse
 10
-0.049523
 20
0.028759
 30
0.0
 11
0.0
 21
-0.0185282762037776
 31
0.0
210
0.0
220
0.0
230
1.0
 40
0.891938
 41
3.4637464245731451
 42
0.3216929179011014
  0
ELLIPSE
  5
20D
102
{ACAD_REACTORS
330
218
102
}
100
AcDbEntity
  8
0
  6
CONTINUOUS
100
AcDbEllipse
 10
-0.033846
 20
-0.012241
 30
0.0
 11
0.0
 21
-0.0261893580212302
 31
0.0
210
0.0
220
0.0
230
1.0
 40
0.891938
 41
2.0340982428807717
 42
3.6054707355958087
  0
ELLIPSE
  5
20E
102
{ACAD_REACTORS
330
218
102
}
100
AcDbEntity
  8
0
  6
CONTINUOUS
100
AcDbEllipse
 10
-0.0443
 20
-0.002494
 30
0.0
 11
0.0
 21
-0.0352039930241968
 31
0.0
210
0.0
220
0.0
230
1.0
 40
0.891938
 41
0.3394255493103855
 42
1.6264277668967162
  0
LINE
  5
20F
102
{ACAD_REACTORS
330
218
102
}
100
AcDbEntity
  8
0
  6
CONTINUOUS
100
AcDbLine
 10
-0.033846
 20
-0.03569
 30
0.0
 11
-0.002498
 21
-0.070842
 31
0.0
  0
LINE
  5
210
102
{ACAD_REACTORS
330
218
102
}
100
AcDbEntity
  8
0
  6
CONTINUOUS
100
AcDbLine
 10
-0.002498
 20
-0.070842
 30
0.0
 11
-0.002498
 21
-0.08256
 31
0.0
  0
ELLIPSE
  5
211
102
{ACAD_REACTORS
330
218
102
}
100
AcDbEntity
  8
0
  6
CONTINUOUS
100
AcDbEllipse
 10
0.019309
 20
-0.038729
 30
0.0
 11
0.0
 21
-0.0501883046647002
 31
0.0
210
0.0
220
0.0
230
1.0
 40
0.891938
 41
5.7743779241334536
 42
1.1523084918393716
  0
ELLIPSE
  5
212
102
{ACAD_REACTORS
330
218
102
}
100
AcDbEntity
  8
0
  6
CONTINUOUS
100
AcDbEllipse
 10
0.061961
 20
-0.033734
 30
0.0
 11
0.0
 21
-0.0254663926047874
 31
0.0
210
0.0
220
0.0
230
1.0
 40
0.891938
 41
3.7086963183923167
 42
6.2060389686307493
  0
ELLIPSE
  5
213
102
{ACAD_REACTORS
330
218
102
}
100
AcDbEntity
  8
0
  6
CONTINUOUS
100
AcDbEllipse
 10
0.044539
 20
0.009229
 30
0.0
 11
-0.0000029599743513
 21
-0.0222663522419505
 31
0.0
210
0.0
220
0.0
230
1.0
 40
0.891938
 41
0.2661134103975571
 42
4.051497913814174
  0
LINE
  5
214
102
{ACAD_REACTORS
330
218
102
}
100
AcDbEntity
  8
0
  6
CONTINUOUS
100
AcDbLine
 10
0.028862
 20
0.022899
 30
0.0
 11
0.018411
 21
0.058052
 31
0.0
  0
ELLIPSE
  5
215
102
{ACAD_REACTORS
330
218
102
}
100
AcDbEntity
  8
0
  6
CONTINUOUS
100
AcDbEllipse
 10
0.012473
 20
0.088144
 30
0.0
 11
0.0
 21
-0.0308203113449123
 31
0.0
210
0.0
220
0.0
230
1.0
 40
0.891938
 41
0.2177237683677542
 42
1.3530725584270256
  0
ARC
  5
216
102
{ACAD_REACTORS
330
218
102
}
100
AcDbEntity
  8
0
  6
CONTINUOUS
100
AcDbCircle
 10
-0.004123
 20
0.006952
 30
0.0
 40
0.086268
100
AcDbArc
 50
59.76795
 51
88.916893
  0
LINE
  5
217
102
{ACAD_REACTORS
330
218
102
}
100
AcDbEntity
  8
0
  6
CONTINUOUS
100
AcDbLine
 10
-0.002492
 20
0.093204
 30
0.0
 11
-0.012949
 21
0.069769
 31
0.0
  0
HATCH
  5
218
100
AcDbEntity
  8
0
 62
     5
100
AcDbHatch
 10
0.0
 20
0.0
 30
0.0
210
0.0
220
0.0
230
1.0
  2
SOLID
 70
     1
 71
     1
 91
        1
 92
        1
 93
       16
 72
     1
 10
-0.0129492606093945
 20
0.0697692024887788
 11
-0.0129492606093945
 21
0.0580515671264814
 72
     1
 10
-0.0129492606093945
 20
0.0580515671264814
 11
-0.0338520648064938
 21
0.0580515671264814
 72
     3
 10
-0.0336317509896708
 20
0.0521927494453328
 11
0.0052303431660146
 21
0.0
 40
1.121154
 50
267.585859
 51
92.414141
 73
     0
 72
     3
 10
-0.0443034669050435
 20
0.0603380142754652
 11
0.0162865330995579
 21
0.0
 40
1.121154
 50
50.079767
 51
129.920233
 73
     0
 72
     3
 10
-0.0495225455297962
 20
0.0287588295254717
 11
0.0165260702190607
 21
0.0
 40
1.121154
 50
108.458051
 51
288.431646
 73
     1
 72
     3
 10
-0.0338460447988818
 20
-0.0122407482751711
 11
0.0233592788066668
 21
0.0
 40
1.121154
 50
243.421744
 51
333.454756
 73
     0
 72
     3
 10
-0.0443004569012436
 20
-0.0024940484840252
 11
0.0313997726669567
 21
0.0
 40
1.121154
 50
356.812553
 51
70.552349
 73
     0
 72
     1
 10
-0.0338460447988844
 20
-0.0356895157718907
 11
-0.0024978585108462
 21
-0.0708424218587801
 72
     1
 10
-0.0024978585108462
 20
-0.0708424218587801
 11
-0.0024978585108462
 21
-0.0825600572210773
 72
     3
 10
0.0193087121758206
 20
-0.0387293010784618
 11
0.0447648468720119
 21
0.0
 40
1.121154
 50
240.847484
 51
336.022413
 73
     1
 72
     3
 10
0.06196115218085
 20
-0.0337341386645102
 11
0.022714438611784
 21
0.0
 40
1.121154
 50
94.42016
 51
237.507353
 73
     0
 72
     3
 10
0.0445390994677411
 20
0.0092290323647792
 11
0.0198602015981276
 21
-0.0000026401130595
 40
1.121154
 50
285.247175
 51
142.133731
 73
     1
 72
     1
 10
0.028862367792411
 20
0.0228986610395909
 11
0.0184109656938613
 21
0.0580515671264814
 72
     3
 10
0.0124729572099728
 20
0.0881442621407881
 11
0.0274898012020939
 21
0.0
 40
1.121154
 50
282.474653
 51
347.525347
 73
     1
 72
     2
 10
-0.0041225364520424
 20
0.0069517247317643
 40
0.0862681621250353
 50
59.76795
 51
88.916893
 73
     1
 72
     1
 10
-0.0024918385032367
 20
0.09320447321337
 11
-0.0129492606093945
 21
0.0697692024887788
 97
       16
330
208
330
209
330
20A
330
20B
330
20C
330
20D
330
20E
330
20F
330
210
330
211
330
212
330
213
330
214
330
215
330
216
330
217
 75
     0
 76
     1
 98
        0
  0
ENDBLK
  5
219
100
AcDbEntity
  8
0
100
AcDbBlockEnd
  0
BLOCK
  5
21B
100
AcDbEntity
  8
0
100
AcDbBlockBegin
  2
PUBLICATION
 70
     0
 10
0.0
 20
0.0
 30
0.0
  3
PUBLICATION
  1

  0
LWPOLYLINE
  5
21C
102
{ACAD_REACTORS
330
22A
102
}
100
AcDbEntity
  8
0
  6
CONTINUOUS
100
AcDbPolyline
 90
        4
 70
     1
 10
-0.125
 20
-0.125
 10
0.125
 20
-0.125
 10
0.125
 20
0.125
 10
-0.125
 20
0.125
  0
LINE
  5
21D
102
{ACAD_REACTORS
330
22A
102
}
100
AcDbEntity
  8
0
  6
CONTINUOUS
100
AcDbLine
 10
-0.09941
 20
0.092431
 30
0.0
 11
0.009965
 21
0.092431
 31
0.0
  0
ELLIPSE
  5
21E
102
{ACAD_REACTORS
330
22A
102
}
100
AcDbEntity
  8
0
  6
CONTINUOUS
100
AcDbEllipse
 10
0.009965
 20
0.045556
 30
0.0
 11
-0.0000000000000004
 21
-0.0468749999999988
 31
0.0
210
0.0
220
0.0
230
1.0
 40
0.833333
 41
1.5707963267948777
 42
3.1415926535898722
  0
ELLIPSE
  5
21F
102
{ACAD_REACTORS
330
22A
102
}
100
AcDbEntity
  8
0
  6
CONTINUOUS
100
AcDbEllipse
 10
0.011768
 20
0.046757
 30
0.0
 11
-0.0018028846153876
 21
-0.0558894230769248
 31
0.0
210
0.0
220
0.0
230
1.0
 40
0.666667
 41
0.0000000000000779
 42
1.5707963267949094
  0
LINE
  5
220
102
{ACAD_REACTORS
330
22A
102
}
100
AcDbEntity
  8
0
  6
CONTINUOUS
100
AcDbLine
 10
0.009965
 20
-0.009132
 30
0.0
 11
-0.03691
 21
-0.009132
 31
0.0
  0
LINE
  5
221
102
{ACAD_REACTORS
330
22A
102
}
100
AcDbEntity
  8
0
  6
CONTINUOUS
100
AcDbLine
 10
-0.03691
 20
-0.009132
 30
0.0
 11
-0.033438
 21
-0.068594
 31
0.0
  0
LINE
  5
222
102
{ACAD_REACTORS
330
22A
102
}
100
AcDbEntity
  8
0
  6
CONTINUOUS
100
AcDbLine
 10
-0.033438
 20
-0.068594
 30
0.0
 11
-0.006094
 21
-0.068594
 31
0.0
  0
LINE
  5
223
102
{ACAD_REACTORS
330
22A
102
}
100
AcDbEntity
  8
0
  6
CONTINUOUS
100
AcDbLine
 10
-0.006094
 20
-0.068594
 30
0.0
 11
-0.00566
 21
-0.095069
 31
0.0
  0
LINE
  5
224
102
{ACAD_REACTORS
330
22A
102
}
100
AcDbEntity
  8
0
  6
CONTINUOUS
100
AcDbLine
 10
-0.00566
 20
-0.095069
 30
0.0
 11
-0.09941
 21
-0.095069
 31
0.0
  0
LINE
  5
225
102
{ACAD_REACTORS
330
22A
102
}
100
AcDbEntity
  8
0
  6
CONTINUOUS
100
AcDbLine
 10
-0.09941
 20
-0.095069
 30
0.0
 11
-0.099844
 21
-0.068594
 31
0.0
  0
LINE
  5
226
102
{ACAD_REACTORS
330
22A
102
}
100
AcDbEntity
  8
0
  6
CONTINUOUS
100
AcDbLine
 10
-0.099844
 20
-0.068594
 30
0.0
 11
-0.0725
 21
-0.068594
 31
0.0
  0
LINE
  5
227
102
{ACAD_REACTORS
330
22A
102
}
100
AcDbEntity
  8
0
  6
CONTINUOUS
100
AcDbLine
 10
-0.0725
 20
-0.068594
 30
0.0
 11
-0.075972
 21
0.061181
 31
0.0
  0
LINE
  5
228
102
{ACAD_REACTORS
330
22A
102
}
100
AcDbEntity
  8
0
  6
CONTINUOUS
100
AcDbLine
 10
-0.075972
 20
0.061181
 30
0.0
 11
-0.09941
 21
0.061181
 31
0.0
  0
LINE
  5
229
102
{ACAD_REACTORS
330
22A
102
}
100
AcDbEntity
  8
0
  6
CONTINUOUS
100
AcDbLine
 10
-0.09941
 20
0.061181
 30
0.0
 11
-0.09941
 21
0.092431
 31
0.0
  0
HATCH
  5
22A
100
AcDbEntity
  8
0
 62
   134
100
AcDbHatch
 10
0.0
 20
0.0
 30
0.0
210
0.0
220
0.0
230
1.0
  2
SOLID
 70
     1
 71
     1
 91
        1
 92
        1
 93
       13
 72
     1
 10
-0.0994097222222224
 20
0.092430555555555
 11
0.009965277777777
 21
0.092430555555555
 72
     3
 10
0.0099652777777792
 20
0.0455555555555562
 11
-0.0000000000000004
 21
-0.0468749999999988
 40
0.833333
 50
180.0
 51
270.0
 73
     0
 72
     3
 10
0.0117681623931616
 20
0.0467574786324793
 11
-0.0018028846153876
 21
-0.0558894230769248
 40
0.666667
 50
630.0
 51
360.0
 73
     0
 72
     1
 10
0.009965277777777
 20
-0.0091319444444456
 11
-0.0369097222222225
 21
-0.0091319444444456
 72
     1
 10
-0.0369097222222225
 20
-0.0091319444444456
 11
-0.0334375000000003
 21
-0.0685937500000012
 72
     1
 10
-0.0334375000000003
 20
-0.0685937500000012
 11
-0.0060937499999996
 21
-0.0685937500000012
 72
     1
 10
-0.0060937499999996
 20
-0.0685937500000012
 11
-0.0056597222222224
 21
-0.095069444444445
 72
     1
 10
-0.0056597222222224
 20
-0.095069444444445
 11
-0.0994097222222224
 21
-0.095069444444445
 72
     1
 10
-0.0994097222222224
 20
-0.095069444444445
 11
-0.09984375
 21
-0.0685937500000012
 72
     1
 10
-0.09984375
 20
-0.0685937500000012
 11
-0.0724999999999993
 21
-0.0685937500000012
 72
     1
 10
-0.0724999999999993
 20
-0.0685937500000012
 11
-0.0759722222222231
 21
0.0611805555555544
 72
     1
 10
-0.0759722222222231
 20
0.0611805555555544
 11
-0.0994097222222224
 21
0.0611805555555544
 72
     1
 10
-0.0994097222222224
 20
0.0611805555555544
 11
-0.0994097222222224
 21
0.092430555555555
 97
       14
330
21C
330
21D
330
21E
330
21F
330
220
330
221
330
222
330
223
330
224
330
225
330
226
330
227
330
228
330
229
 75
     0
 76
     1
 98
        0
  0
LINE
  5
22B
102
{ACAD_REACTORS
330
237
102
}
100
AcDbEntity
  8
0
  6
CONTINUOUS
100
AcDbLine
 10
-0.03691
 20
0.064219
 30
0.0
 11
-0.03691
 21
0.017344
 31
0.0
  0
LINE
  5
22C
102
{ACAD_REACTORS
330
237
102
}
100
AcDbEntity
  8
0
  6
CONTINUOUS
100
AcDbLine
 10
-0.03691
 20
0.017344
 30
0.0
 11
0.000082
 21
0.017344
 31
0.0
  0
ELLIPSE
  5
22D
102
{ACAD_REACTORS
330
237
102
}
100
AcDbEntity
  8
0
  6
CONTINUOUS
100
AcDbEllipse
 10
-0.004187
 20
0.034291
 30
0.0
 11
-0.0250404745192761
 21
-0.0066275591955209
 31
0.0
210
0.0
220
0.0
230
1.0
 40
0.674665
 41
1.5626893797884167
 42
3.1334857065832122
  0
ELLIPSE
  5
22E
102
{ACAD_REACTORS
330
237
102
}
100
AcDbEntity
  8
0
  6
CONTINUOUS
100
AcDbEllipse
 10
-0.001074
 20
0.041953
 30
0.0
 11
0.0
 21
-0.0222964424887974
 31
0.0
210
0.0
220
0.0
230
1.0
 40
0.986437
 41
1.5182132651839555
 42
3.0890095919788507
  0
LINE
  5
22F
102
{ACAD_REACTORS
330
237
102
}
100
AcDbEntity
  8
0
  6
CONTINUOUS
100
AcDbLine
 10
0.000082
 20
0.064219
 30
0.0
 11
-0.03691
 21
0.064219
 31
0.0
  0
LWPOLYLINE
  5
230
100
AcDbEntity
  8
0
  6
CONTINUOUS
100
AcDbPolyline
 90
        5
 70
     0
 10
0.045984
 20
0.063697
 10
0.099375
 20
0.036875
 10
0.036875
 20
-0.088125
 10
-0.034122
 20
-0.056877
 10
-0.025625
 20
-0.068594
  0
LWPOLYLINE
  5
231
100
AcDbEntity
  8
0
  6
CONTINUOUS
100
AcDbPolyline
 90
        4
 70
     0
 10
-0.005773
 20
-0.088152
 10
0.044687
 20
-0.111562
 10
0.107187
 20
0.013438
 10
0.091042
 20
0.020208
  0
ENDBLK
  5
232
100
AcDbEntity
  8
0
100
AcDbBlockEnd
  0
BLOCK
  5
234
100
AcDbEntity
  8
0
100
AcDbBlockBegin
  2
GRAPHIC__BITMAP_
 70
     0
 10
0.0
 20
0.0
 30
0.0
  3
GRAPHIC__BITMAP_
  1

  0
LWPOLYLINE
  5
235
102
{ACAD_REACTORS
330
237
102
}
100
AcDbEntity
  8
0
  6
CONTINUOUS
100
AcDbPolyline
 90
        4
 70
     1
 10
-0.125
 20
-0.125
 10
0.125
 20
-0.125
 10
0.125
 20
0.125
 10
-0.125
 20
0.125
  0
LWPOLYLINE
  5
236
102
{ACAD_REACTORS
330
237
102
}
100
AcDbEntity
  8
0
  6
CONTINUOUS
100
AcDbPolyline
 90
        4
 70
     1
 10
-0.088125
 20
-0.033438
 10
0.029062
 20
-0.033438
 10
0.029062
 20
0.08375
 10
-0.088125
 20
0.08375
  0
HATCH
  5
237
100
AcDbEntity
  8
0
 62
     5
100
AcDbHatch
 10
0.0
 20
0.0
 30
0.0
210
0.0
220
0.0
230
1.0
  2
SOLID
 70
     1
 71
     1
 91
        1
 92
        3
 72
     0
 73
     1
 93
        4
 10
-0.088125
 20
-0.0334375
 10
0.0290625
 20
-0.0334375
 10
0.0290625
 20
0.08375
 10
-0.088125
 20
0.08375
 97
        7
330
22B
330
22C
330
22D
330
22E
330
22F
330
235
330
236
 75
     0
 76
     1
 98
        0
  0
CIRCLE
  5
238
102
{ACAD_REACTORS
330
239
102
}
100
AcDbEntity
  8
0
  6
CONTINUOUS
100
AcDbCircle
 10
0.029062
 20
-0.002187
 30
0.0
 40
0.058594
  0
HATCH
  5
239
100
AcDbEntity
  8
0
 62
    10
100
AcDbHatch
 10
0.0
 20
0.0
 30
0.0
210
0.0
220
0.0
230
1.0
  2
SOLID
 70
     1
 71
     1
 91
        1
 92
        1
 93
        1
 72
     2
 10
0.0290625
 20
-0.0021875
 40
0.05859375
 50
0.0
 51
360.0
 73
     1
 97
        1
330
238
 75
     0
 76
     1
 98
        0
  0
LWPOLYLINE
  5
23A
102
{ACAD_REACTORS
330
23B
102
}
100
AcDbEntity
  8
0
  6
CONTINUOUS
100
AcDbPolyline
 90
        3
 70
     1
 10
-0.068594
 20
-0.088125
 10
-0.002543
 20
0.019514
 10
0.0525
 20
-0.088125
  0
HATCH
  5
23B
100
AcDbEntity
  8
0
 62
     2
100
AcDbHatch
 10
0.0
 20
0.0
 30
0.0
210
0.0
220
0.0
230
1.0
  2
SOLID
 70
     1
 71
     1
 91
        1
 92
        3
 72
     0
 73
     1
 93
        3
 10
-0.06859375
 20
-0.088125
 10
-0.0025426136363631
 20
0.01951388888889
 10
0.0525
 20
-0.088125
 97
        1
330
23A
 75
     0
 76
     1
 98
        0
  0
ENDBLK
  5
23C
100
AcDbEntity
  8
0
100
AcDbBlockEnd
  0
BLOCK
  5
23E
100
AcDbEntity
  8
0
100
AcDbBlockBegin
  2
MULTIMEDIA
 70
     0
 10
0.0
 20
0.0
 30
0.0
  3
MULTIMEDIA
  1

  0
LWPOLYLINE
  5
23F
102
{ACAD_REACTORS
330
245
102
}
100
AcDbEntity
  8
0
  6
CONTINUOUS
100
AcDbPolyline
 90
        4
 70
     1
 10
-0.125
 20
-0.125
 10
0.125
 20
-0.125
 10
0.125
 20
0.125
 10
-0.125
 20
0.125
  0
LWPOLYLINE
  5
240
102
{ACAD_REACTORS
330
245
102
}
100
AcDbEntity
  8
0
  6
CONTINUOUS
100
AcDbPolyline
 90
        4
 70
     1
 10
-0.08429
 20
-0.0312
 10
0.008606
 20
-0.0312
 10
0.008606
 20
0.061696
 10
-0.08429
 20
0.061696
  0
LWPOLYLINE
  5
241
102
{ACAD_REACTORS
330
245
102
}
100
AcDbEntity
  8
0
  6
CONTINUOUS
100
AcDbPolyline
 90
        4
 70
     1
 10
-0.092031
 20
-0.062165
 10
0.000864
 20
-0.062165
 10
0.000864
 20
0.030731
 10
-0.092031
 20
0.030731
  0
LWPOLYLINE
  5
242
102
{ACAD_REACTORS
330
245
102
}
100
AcDbEntity
  8
0
  6
CONTINUOUS
100
AcDbPolyline
 90
        4
 70
     1
 10
-0.076549
 20
-0.088125
 10
0.016347
 20
-0.088125
 10
0.016347
 20
0.004771
 10
-0.076549
 20
0.004771
  0
LWPOLYLINE
  5
243
102
{ACAD_REACTORS
330
245
102
}
100
AcDbEntity
  8
0
  6
CONTINUOUS
100
AcDbPolyline
 90
        4
 70
     1
 10
-0.061066
 20
-0.062165
 10
0.09376
 20
-0.062165
 10
0.09376
 20
0.092661
 10
-0.061066
 20
0.092661
  0
LWPOLYLINE
  5
244
102
{ACAD_REACTORS
330
245
102
}
100
AcDbEntity
  8
0
  6
CONTINUOUS
100
AcDbPolyline
 90
        3
 70
     1
 10
-0.018489
 20
-0.052488
 10
-0.018489
 20
0.061696
 10
0.09376
 20
0.002635
  0
HATCH
  5
245
100
AcDbEntity
  8
0
 62
     7
100
AcDbHatch
 10
0.0
 20
0.0
 30
0.0
210
0.0
220
0.0
230
1.0
  2
SOLID
 70
     1
 71
     1
 91
        1
 92
        3
 72
     0
 73
     1
 93
        3
 10
-0.01848897298177
 20
-0.0524880981445325
 10
-0.01848897298177
 20
0.061695963541665
 10
0.093759765625
 20
0.0026352419798392
 97
        6
330
23F
330
240
330
241
330
242
330
243
330
244
 75
     0
 76
     1
 98
        0
  0
LWPOLYLINE
  5
246
102
{ACAD_REACTORS
330
247
102
}
100
AcDbEntity
  8
0
  6
CONTINUOUS
100
AcDbPolyline
 90
        3
 70
     1
 10
-0.02236
 20
-0.035842
 10
-0.02236
 20
0.078342
 10
0.089889
 20
0.019281
  0
HATCH
  5
247
100
AcDbEntity
  8
0
 62
   214
100
AcDbHatch
 10
0.0
 20
0.0
 30
0.0
210
0.0
220
0.0
230
1.0
  2
SOLID
 70
     1
 71
     1
 91
        1
 92
        3
 72
     0
 73
     1
 93
        3
 10
-0.022359619140625
 20
-0.035842030843101
 10
-0.022359619140625
 20
0.0783420308430965
 10
0.089889119466145
 20
0.0192813092812708
 97
        1
330
246
 75
     0
 76
     1
 98
        0
  0
ENDBLK
  5
248
100
AcDbEntity
  8
0
100
AcDbBlockEnd
  0
BLOCK
  5
24A
100
AcDbEntity
  8
0
100
AcDbBlockBegin
  2
FORM
 70
     0
 10
0.0
 20
0.0
 30
0.0
  3
FORM
  1

  0
LWPOLYLINE
  5
24B
102
{ACAD_REACTORS
330
24C
102
}
100
AcDbEntity
  8
0
  6
CONTINUOUS
100
AcDbPolyline
 90
        4
 70
     1
 10
0.010769
 20
0.142318
 10
0.26
 20
0.142318
 10
0.26
 20
0.385461
 10
0.010769
 20
0.385461
  0
HATCH
  5
24C
100
AcDbEntity
  8
0
 62
   134
100
AcDbHatch
 10
0.0
 20
0.0
 30
0.0
210
0.0
220
0.0
230
1.0
  2

 70
     1
 71
     1
 91
        1
 92
        3
 72
     0
 73
     1
 93
        4
 10
0.01076860012298
 20
0.14231770833334
 10
0.26000000000001
 20
0.14231770833334
 10
0.26000000000001
 20
0.3854607772733
 10
0.01076860012298
 20
0.3854607772733
 97
        1
330
24B
 75
     0
 76
     1
 98
        0
  0
LWPOLYLINE
  5
24D
102
{ACAD_REACTORS
330
24E
102
}
100
AcDbEntity
  8
0
  6
CONTINUOUS
100
AcDbPolyline
 90
        4
 70
     1
 10
0.01
 20
0.164
 10
0.245294
 20
0.164
 10
0.245294
 20
0.392318
 10
0.01
 20
0.392318
  0
HATCH
  5
24E
100
AcDbEntity
  8
0
 62
   253
100
AcDbHatch
 10
0.0
 20
0.0
 30
0.0
210
0.0
220
0.0
230
1.0
  2
SOLID
 70
     1
 71
     1
 91
        1
 92
        3
 72
     0
 73
     1
 93
        4
 10
0.01
 20
0.16400043627996
 10
0.24529411764706
 20
0.16400043627996
 10
0.24529411764706
 20
0.39231770833333
 10
0.01
 20
0.39231770833333
 97
        1
330
24D
 75
     0
 76
     1
 98
        0
  0
LWPOLYLINE
  5
24F
102
{ACAD_REACTORS
330
250
102
}
100
AcDbEntity
  8
0
  6
CONTINUOUS
100
AcDbPolyline
 90
        6
 70
     1
 10
0.044433
 20
0.198656
 10
0.078047
 20
0.231272
 10
0.204097
 20
0.20681
 10
0.170484
 20
0.20681
 10
0.212501
 20
0.251658
 10
0.212501
 20
0.198656
  0
HATCH
  5
250
100
AcDbEntity
  8
0
 62
   251
100
AcDbHatch
 10
0.0
 20
0.0
 30
0.0
210
0.0
220
0.0
230
1.0
  2
SOLID
 70
     1
 71
     1
 91
        1
 92
        3
 72
     0
 73
     1
 93
        6
 10
0.044433285509319
 20
0.198655736502353
 10
0.078046730887469
 20
0.231272489652835
 10
0.2040971510555411
 20
0.206809924789974
 10
0.17048370567739
 20
0.206809924789974
 10
0.212500512400079
 20
0.251657960371886
 10
0.212500512400079
 20
0.198655736502353
 97
        1
330
24F
 75
     0
 76
     1
 98
        0
  0
LWPOLYLINE
  5
251
102
{ACAD_REACTORS
330
253
102
}
100
AcDbEntity
  8
0
  6
CONTINUOUS
100
AcDbPolyline
 90
        6
 70
     1
 10
0.212501
 20
0.249619
 10
0.178887
 20
0.217003
 10
0.052837
 20
0.241465
 10
0.08645
 20
0.241465
 10
0.044433
 20
0.196617
 10
0.044433
 20
0.249619
  0
LWPOLYLINE
  5
252
102
{ACAD_REACTORS
330
253
102
}
100
AcDbEntity
  8
0
  6
CONTINUOUS
100
AcDbPolyline
 90
        4
 70
     1
 10
0.052837
 20
0.204771
 10
0.204097
 20
0.204771
 10
0.204097
 20
0.241465
 10
0.052837
 20
0.241465
  0
HATCH
  5
253
100
AcDbEntity
  8
0
 62
   253
100
AcDbHatch
 10
0.0
 20
0.0
 30
0.0
210
0.0
220
0.0
230
1.0
  2
SOLID
 70
     1
 71
     1
 91
        1
 92
        3
 72
     0
 73
     1
 93
        4
 10
0.05283664685387
 20
0.204771377718069
 10
0.20409715105555
 20
0.204771377718069
 10
0.20409715105555
 20
0.241465225012362
 10
0.05283664685387
 20
0.241465225012362
 97
        2
330
251
330
252
 75
     0
 76
     1
 98
        0
  0
LWPOLYLINE
  5
254
100
AcDbEntity
  8
0
  6
CONTINUOUS
100
AcDbPolyline
 90
        4
 70
     1
 10
0.043613
 20
0.197729
 10
0.212501
 20
0.197729
 10
0.212501
 20
0.249619
 10
0.043613
 20
0.249619
  0
LWPOLYLINE
  5
255
102
{ACAD_REACTORS
330
258
102
}
100
AcDbEntity
  8
0
  6
CONTINUOUS
100
AcDbPolyline
 90
        4
 70
     1
 10
0.043255
 20
0.331433
 10
0.209529
 20
0.331433
 10
0.209529
 20
0.361875
 10
0.043255
 20
0.361875
  0
LWPOLYLINE
  5
256
102
{ACAD_REACTORS
330
258
102
}
100
AcDbEntity
  8
0
  6
CONTINUOUS
100
AcDbPolyline
 90
        4
 70
     1
 10
0.043255
 20
0.276637
 10
0.209529
 20
0.276637
 10
0.209529
 20
0.307079
 10
0.043255
 20
0.307079
  0
LWPOLYLINE
  5
257
102
{ACAD_REACTORS
330
258
102
}
100
AcDbEntity
  8
0
  6
CONTINUOUS
100
AcDbPolyline
 90
        6
 70
     1
 10
0.209529
 20
0.361875
 10
0.043255
 20
0.361875
 10
0.043255
 20
0.331433
 10
0.03698
 20
0.325345
 10
0.03698
 20
0.367964
 10
0.213922
 20
0.367964
  0
HATCH
  5
258
100
AcDbEntity
  8
0
 62
   251
100
AcDbHatch
 10
0.0
 20
0.0
 30
0.0
210
0.0
220
0.0
230
1.0
  2
SOLID
 70
     1
 71
     1
 91
        2
 92
        3
 72
     0
 73
     1
 93
        6
 10
0.209529411764706
 20
0.36187540539289
 10
0.0432549019607876
 20
0.36187540539289
 10
0.0432549019607876
 20
0.33143310245244
 10
0.036980392156866
 20
0.32534464186435
 10
0.036980392156866
 20
0.36796386598098
 10
0.213921568627456
 20
0.36796386598098
 97
        3
330
255
330
256
330
257
 92
        3
 72
     0
 73
     1
 93
        6
 10
0.209529411764706
 20
0.30707926010008
 10
0.0432549019607876
 20
0.30707926010008
 10
0.0432549019607876
 20
0.27663695715963
 10
0.036980392156866
 20
0.27054849657154
 10
0.036980392156866
 20
0.31316772068817
 10
0.213921568627456
 20
0.31316772068817
 97
        1
330
259
 75
     0
 76
     1
 98
        0
  0
LWPOLYLINE
  5
259
102
{ACAD_REACTORS
330
258
102
}
100
AcDbEntity
  8
0
  6
CONTINUOUS
100
AcDbPolyline
 90
        6
 70
     1
 10
0.209529
 20
0.307079
 10
0.043255
 20
0.307079
 10
0.043255
 20
0.276637
 10
0.03698
 20
0.270548
 10
0.03698
 20
0.313168
 10
0.213922
 20
0.313168
  0
LWPOLYLINE
  5
25A
102
{ACAD_REACTORS
330
25B
102
}
100
AcDbEntity
  8
0
  6
CONTINUOUS
100
AcDbPolyline
 90
        6
 70
     1
 10
0.041373
 20
0.276637
 10
0.207647
 20
0.276637
 10
0.207647
 20
0.307079
 10
0.213922
 20
0.313168
 10
0.213922
 20
0.270548
 10
0.03698
 20
0.270548
  0
HATCH
  5
25B
100
AcDbEntity
  8
0
 62
   254
100
AcDbHatch
 10
0.0
 20
0.0
 30
0.0
210
0.0
220
0.0
230
1.0
  2
SOLID
 70
     1
 71
     1
 91
        2
 92
        3
 72
     0
 73
     1
 93
        6
 10
0.0413725490196111
 20
0.27663695715963
 10
0.207647058823536
 20
0.27663695715963
 10
0.207647058823536
 20
0.30707926010008
 10
0.213921568627456
 20
0.31316772068817
 10
0.213921568627456
 20
0.27054849657154
 10
0.036980392156866
 20
0.27054849657154
 97
        1
330
25A
 92
        3
 72
     0
 73
     1
 93
        6
 10
0.0413725490196111
 20
0.33143310245244
 10
0.207647058823536
 20
0.33143310245244
 10
0.207647058823536
 20
0.36187540539289
 10
0.213921568627456
 20
0.36796386598098
 10
0.213921568627456
 20
0.32534464186435
 10
0.036980392156866
 20
0.32534464186435
 97
        1
330
25C
 75
     0
 76
     1
 98
        0
  0
LWPOLYLINE
  5
25C
102
{ACAD_REACTORS
330
25B
102
}
100
AcDbEntity
  8
0
  6
CONTINUOUS
100
AcDbPolyline
 90
        6
 70
     1
 10
0.041373
 20
0.331433
 10
0.207647
 20
0.331433
 10
0.207647
 20
0.361875
 10
0.213922
 20
0.367964
 10
0.213922
 20
0.325345
 10
0.03698
 20
0.325345
  0
ENDBLK
  5
25D
100
AcDbEntity
  8
0
100
AcDbBlockEnd
  0
BLOCK
  5
25F
100
AcDbEntity
  8
0
100
AcDbBlockBegin
  2
SMALL_SITE_MAP_NODE
 70
     0
 10
0.0
 20
0.0
 30
0.0
  3
SMALL_SITE_MAP_NODE
  1

  0
LWPOLYLINE
  5
260
102
{ACAD_REACTORS
330
276
102
}
100
AcDbEntity
  8
0
  6
CONTINUOUS
 62
     7
100
AcDbPolyline
 90
        4
 70
     1
 10
1.25
 20
0.25
 10
1.25
 20
0.0
 10
0.25
 20
0.0
 10
0.25
 20
0.25
  0
ENDBLK
  5
261
100
AcDbEntity
  8
0
100
AcDbBlockEnd
  0
BLOCK
  5
263
100
AcDbEntity
  8
0
100
AcDbBlockBegin
  2
PAGE_ELEMENT_GROUP
 70
     0
 10
0.0
 20
0.0
 30
0.0
  3
PAGE_ELEMENT_GROUP
  1

  0
LWPOLYLINE
  5
264
102
{ACAD_REACTORS
330
276
102
}
100
AcDbEntity
  8
0
  6
CONTINUOUS
 62
     7
100
AcDbPolyline
 90
        4
 70
     1
 10
0.0
 20
0.0
 10
1.0
 20
0.0
 10
1.0
 20
0.5
 10
0.0
 20
0.5
  0
LWPOLYLINE
  5
265
102
{ACAD_REACTORS
330
276
102
}
100
AcDbEntity
  8
0
  6
CONTINUOUS
 62
     7
100
AcDbPolyline
 90
        4
 70
     1
 10
-0.125
 20
0.125
 10
0.875
 20
0.125
 10
0.875
 20
0.625
 10
-0.125
 20
0.625
  0
LWPOLYLINE
  5
266
102
{ACAD_REACTORS
330
276
102
}
100
AcDbEntity
  8
0
  6
CONTINUOUS
 62
     7
100
AcDbPolyline
 90
        4
 70
     1
 10
-0.0625
 20
0.0625
 10
0.9375
 20
0.0625
 10
0.9375
 20
0.5625
 10
-0.0625
 20
0.5625
  0
ENDBLK
  5
267
100
AcDbEntity
  8
0
100
AcDbBlockEnd
  0
BLOCK
  5
269
100
AcDbEntity
  8
0
100
AcDbBlockBegin
  2
PAGE_ELEMENT
 70
     0
 10
0.0
 20
0.0
 30
0.0
  3
PAGE_ELEMENT
  1

  0
LWPOLYLINE
  5
26A
102
{ACAD_REACTORS
330
276
102
}
100
AcDbEntity
  8
0
  6
CONTINUOUS
 62
     7
100
AcDbPolyline
 90
        4
 70
     1
 10
0.0
 20
0.0
 10
1.0
 20
0.0
 10
1.0
 20
0.5
 10
0.0
 20
0.5
  0
ENDBLK
  5
26B
100
AcDbEntity
  8
0
100
AcDbBlockEnd
  0
BLOCK
  5
26D
100
AcDbEntity
  8
0
100
AcDbBlockBegin
  2
DYNAMIC_CONNECTOR
 70
     0
 10
0.0
 20
0.0
 30
0.0
  3
DYNAMIC_CONNECTOR
  1

  0
LINE
  5
26E
100
AcDbEntity
  8
0
  6
CONTINUOUS
100
AcDbLine
 10
1.0
 20
2.0
 30
0.0
 11
2.0
 21
1.0
 31
0.0
  0
ENDBLK
  5
26F
100
AcDbEntity
  8
0
100
AcDbBlockEnd
  0
BLOCK
  5
271
100
AcDbEntity
  8
0
100
AcDbBlockBegin
  2
TITLE_BLOCK_RETRO
 70
     0
 10
0.0
 20
0.0
 30
0.0
  3
TITLE_BLOCK_RETRO
  1

  0
ELLIPSE
  5
272
102
{ACAD_REACTORS
330
276
102
}
100
AcDbEntity
  8
0
  6
CONTINUOUS
 62
     7
100
AcDbEllipse
 10
5.577981
 20
4.148253
 30
0.0
 11
-1.6049940291684943
 21
-0.2953733437264913
 31
0.0
210
0.0
220
0.0
230
1.0
 40
0.220326
 41
-0.7811702574821896
 42
-0.0023736051373435
  0
ELLIPSE
  5
273
102
{ACAD_REACTORS
330
276
102
}
100
AcDbEntity
  8
0
  6
CONTINUOUS
 62
     7
100
AcDbEllipse
 10
5.577981
 20
4.148253
 30
0.0
 11
-1.6049940291684506
 21
-0.2953733437264833
 31
0.0
210
0.0
220
0.0
230
1.0
 40
0.220326
 41
-0.0023736051373425
 42
1.7920336486820518
  0
ELLIPSE
  5
274
102
{ACAD_REACTORS
330
276
102
}
100
AcDbEntity
  8
0
  6
CONTINUOUS
 62
     7
100
AcDbEllipse
 10
5.577981
 20
4.148253
 30
0.0
 11
-1.2084087815106359
 21
-0.0218139580952712
 31
0.0
210
0.0
220
0.0
230
1.0
 40
0.253044
 41
-0.0002800849679657
 42
1.9173933873708948
  0
ELLIPSE
  5
275
102
{ACAD_REACTORS
330
276
102
}
100
AcDbEntity
  8
0
  6
CONTINUOUS
 62
     7
100
AcDbEllipse
 10
5.577981
 20
4.148253
 30
0.0
 11
-1.2084087815106093
 21
-0.0218139580952707
 31
0.0
210
0.0
220
0.0
230
1.0
 40
0.253044
 41
-0.1995951028115605
 42
-0.0002800849679618
  0
HATCH
  5
276
100
AcDbEntity
  8
0
 62
   254
100
AcDbHatch
 10
0.0
 20
0.0
 30
0.0
210
0.0
220
0.0
230
1.0
  2

 70
     1
 71
     1
 91
        1
 92
        1
 93
        4
 72
     3
 10
5.5779813932115792
 20
4.1482530876125008
 11
-1.6049940291684943
 21
-0.2953733437264913
 40
0.220326
 50
315.242241
 51
359.864002
 73
     1
 72
     3
 10
5.5779813932115356
 20
4.1482530876124937
 11
-1.6049940291684506
 21
-0.2953733437264833
 40
0.220326
 50
359.864002
 51
102.675965
 73
     1
 72
     3
 10
5.5779813932115445
 20
4.148253087612499
 11
-1.2084087815106359
 21
-0.0218139580952712
 40
0.253044
 50
250.141451
 51
0.016048
 73
     0
 72
     3
 10
5.5779813932115179
 20
4.1482530876124999
 11
-1.2084087815106093
 21
-0.0218139580952707
 40
0.253044
 50
0.016048
 51
11.435957
 73
     0
 97
        9
330
260
330
264
330
265
330
266
330
26A
330
272
330
273
330
274
330
275
 75
     0
 76
     1
 98
        0
  0
ELLIPSE
  5
277
102
{ACAD_REACTORS
330
27B
102
}
100
AcDbEntity
  8
0
  6
CONTINUOUS
 62
     7
100
AcDbEllipse
 10
5.506451
 20
4.351747
 30
0.0
 11
-1.2084087815106401
 21
-0.0218139580952713
 31
0.0
210
0.0
220
0.0
230
1.0
 40
0.253044
 41
3.1413125686218271
 42
5.0589860409607024
  0
ELLIPSE
  5
278
102
{ACAD_REACTORS
330
27B
102
}
100
AcDbEntity
  8
0
  6
CONTINUOUS
 62
     7
100
AcDbEllipse
 10
5.506451
 20
4.351747
 30
0.0
 11
-1.2084087815107067
 21
-0.0218139580952725
 31
0.0
210
0.0
220
0.0
230
1.0
 40
0.253044
 41
2.9419975507782294
 42
3.1413125686218177
  0
ELLIPSE
  5
279
102
{ACAD_REACTORS
330
27B
102
}
100
AcDbEntity
  8
0
  6
CONTINUOUS
 62
     7
100
AcDbEllipse
 10
5.506451
 20
4.351747
 30
0.0
 11
-1.604994029168521
 21
-0.2953733437264948
 31
0.0
210
0.0
220
0.0
230
1.0
 40
0.220326
 41
2.3604223961076074
 42
3.1392190484524476
  0
ELLIPSE
  5
27A
102
{ACAD_REACTORS
330
27B
102
}
100
AcDbEntity
  8
0
  6
CONTINUOUS
 62
     7
100
AcDbEllipse
 10
5.506451
 20
4.351747
 30
0.0
 11
-1.6049940291684528
 21
-0.2953733437264822
 31
0.0
210
0.0
220
0.0
230
1.0
 40
0.220326
 41
-3.1439662587271502
 42
-1.3495590049077388
  0
HATCH
  5
27B
100
AcDbEntity
  8
0
 62
   254
100
AcDbHatch
 10
0.0
 20
0.0
 30
0.0
210
0.0
220
0.0
230
1.0
  2

 70
     1
 71
     1
 91
        1
 92
        1
 93
        4
 72
     3
 10
5.5064510980943586
 20
4.3517469123875028
 11
-1.2084087815106401
 21
-0.0218139580952713
 40
0.253044
 50
70.141451
 51
180.016048
 73
     0
 72
     3
 10
5.506451098094292
 20
4.3517469123875046
 11
-1.2084087815107067
 21
-0.0218139580952725
 40
0.253044
 50
180.016048
 51
191.435957
 73
     0
 72
     3
 10
5.5064510980943027
 20
4.3517469123874983
 11
-1.604994029168521
 21
-0.2953733437264948
 40
0.220326
 50
135.242241
 51
179.864002
 73
     1
 72
     3
 10
5.5064510980943702
 20
4.3517469123875099
 11
-1.6049940291684528
 21
-0.2953733437264822
 40
0.220326
 50
179.864002
 51
282.675965
 73
     1
 97
        4
330
277
330
278
330
279
330
27A
 75
     0
 76
     1
 98
        0
  0
MTEXT
  5
27C
100
AcDbEntity
  8
0
100
AcDbMText
 10
5.5
 20
4.25
 30
0.0
 40
0.242675
 41
2.122799
 71
     5
 72
     5
  1
\C162;\fArial|b0|i0|;\H0.24267485551536;Title\P\H0.12133881635964;Friday, September 15, 2023
  0
ENDBLK
  5
27D
100
AcDbEntity
  8
0
100
AcDbBlockEnd
  0
BLOCK
  5
27F
100
AcDbEntity
  8
0
100
AcDbBlockBegin
  2
FRONTPAGE_WEBSITE
 70
     0
 10
0.0
 20
0.0
 30
0.0
  3
FRONTPAGE_WEBSITE
  1

  0
LWPOLYLINE
  5
280
102
{ACAD_REACTORS
330
282
102
}
100
AcDbEntity
  8
0
  6
CONTINUOUS
100
AcDbPolyline
 90
        4
 70
     1
 10
-0.125
 20
-0.125
 10
0.125
 20
-0.125
 10
0.125
 20
0.125
 10
-0.125
 20
0.125
  0
CIRCLE
  5
281
102
{ACAD_REACTORS
330
282
102
}
100
AcDbEntity
  8
0
  6
CONTINUOUS
100
AcDbCircle
 10
0.005625
 20
-0.002187
 30
0.0
 40
0.091797
  0
HATCH
  5
282
100
AcDbEntity
  8
0
 62
     5
100
AcDbHatch
 10
0.0
 20
0.0
 30
0.0
210
0.0
220
0.0
230
1.0
  2
SOLID
 70
     1
 71
     1
 91
        1
 92
        1
 93
        1
 72
     2
 10
0.005625
 20
-0.0021875
 40
0.091796875
 50
0.0
 51
360.0
 73
     1
 97
        2
330
280
330
281
 75
     0
 76
     1
 98
        0
  0
LINE
  5
283
100
AcDbEntity
  8
0
  6
CONTINUOUS
100
AcDbLine
 10
-0.035156
 20
0.039063
 30
0.0
 11
0.050781
 21
-0.046875
 31
0.0
  0
ENDBLK
  5
284
100
AcDbEntity
  8
0
100
AcDbBlockEnd
  0
BLOCK
  5
286
100
AcDbEntity
  8
0
100
AcDbBlockBegin
  2
DATA_STORE
 70
     0
 10
0.0
 20
0.0
 30
0.0
  3
DATA_STORE
  1

  0
ELLIPSE
  5
287
100
AcDbEntity
  8
0
  6
CONTINUOUS
 62
     7
100
AcDbEllipse
 10
0.984252
 20
1.324759
 30
0.0
 11
0.3937007874015748
 21
0.0
 31
0.0
210
0.0
220
0.0
230
1.0
 40
0.375
 41
-0.0000000000000006
 42
3.1415926535898078
  0
ELLIPSE
  5
288
100
AcDbEntity
  8
0
  6
CONTINUOUS
 62
     7
100
AcDbEllipse
 10
0.984252
 20
1.324759
 30
0.0
 11
0.3937007874015748
 21
0.0
 31
0.0
210
0.0
220
0.0
230
1.0
 40
0.375
 41
3.1415926535897927
 42
6.2831853071796004
  0
LINE
  5
289
100
AcDbEntity
  8
0
  6
CONTINUOUS
 62
     7
100
AcDbLine
 10
0.590551
 20
1.324759
 30
0.0
 11
0.590551
 21
0.832633
 31
0.0
  0
ELLIPSE
  5
28A
100
AcDbEntity
  8
0
  6
CONTINUOUS
 62
     7
100
AcDbEllipse
 10
0.984252
 20
0.832633
 30
0.0
 11
0.3937007874015748
 21
0.0
 31
0.0
210
0.0
220
0.0
230
1.0
 40
0.375
 41
-3.1415926535898073
 42
0.0000000000000001
  0
LINE
  5
28B
100
AcDbEntity
  8
0
  6
CONTINUOUS
 62
     7
100
AcDbLine
 10
1.377953
 20
0.832633
 30
0.0
 11
1.377953
 21
1.324759
 31
0.0
  0
ELLIPSE
  5
28C
100
AcDbEntity
  8
0
  6
CONTINUOUS
 62
     7
100
AcDbEllipse
 10
0.984252
 20
1.324759
 30
0.0
 11
0.3937007874015749
 21
0.0
 31
0.0
210
0.0
220
0.0
230
1.0
 40
0.375
 41
3.1415926535897927
 42
6.2831853071796013
  0
ENDBLK
  5
28D
100
AcDbEntity
  8
0
100
AcDbBlockEnd
  0
BLOCK
  5
28F
100
AcDbEntity
  8
0
100
AcDbBlockBegin
  2
USE_CASE
 70
     0
 10
0.0
 20
0.0
 30
0.0
  3
USE_CASE
  1

  0
ELLIPSE
  5
290
100
AcDbEntity
  8
0
  6
CONTINUOUS
 62
     7
100
AcDbEllipse
 10
1.0
 20
1.0
 30
0.0
 11
0.4
 21
0.0
 31
0.0
210
0.0
220
0.0
230
1.0
 40
0.5
 41
0.0
 42
3.1415926535897931
  0
ELLIPSE
  5
291
100
AcDbEntity
  8
0
  6
CONTINUOUS
 62
     7
100
AcDbEllipse
 10
1.0
 20
1.0
 30
0.0
 11
0.4
 21
0.0
 31
0.0
210
0.0
220
0.0
230
1.0
 40
0.5
 41
3.1415926535897931
 42
6.2831853071796004
  0
ENDBLK
  5
292
100
AcDbEntity
  8
0
100
AcDbBlockEnd
  0
BLOCK
  5
294
100
AcDbEntity
  8
0
100
AcDbBlockBegin
  2
PROCESS
 70
     0
 10
0.0
 20
0.0
 30
0.0
  3
PROCESS
  1

  0
LWPOLYLINE
  5
295
100
AcDbEntity
  8
0
  6
CONTINUOUS
100
AcDbPolyline
 90
        4
 70
     1
 10
1.5
 20
1.625
 10
2.5
 20
1.625
 10
2.5
 20
2.375
 10
1.5
 20
2.375
  0
ENDBLK
  5
296
100
AcDbEntity
  8
0
100
AcDbBlockEnd
  0
BLOCK
  5
298
100
AcDbEntity
  8
0
100
AcDbBlockBegin
  2
ROUNDED_PROCESS
 70
     2
 10
0.0
 20
0.0
 30
0.0
  3
ROUNDED_PROCESS
  1

  0
ATTDEF
  5
299
100
AcDbEntity
  8
0
100
AcDbText
 10
1.968504
 20
1.968504
 30
0.0
 40
0.2
  1
0
100
AcDbAttributeDefinition
  3
Cost
  2
COST
 70
     0
  0
ATTDEF
  5
29A
100
AcDbEntity
  8
0
100
AcDbText
 10
1.968504
 20
1.968504
 30
0.0
 40
0.2
  1
0
100
AcDbAttributeDefinition
  3
Duration
  2
DURATION
 70
     0
  0
ATTDEF
  5
29B
100
AcDbEntity
  8
0
100
AcDbText
 10
1.968504
 20
1.968504
 30
0.0
 40
0.2
  1
0
100
AcDbAttributeDefinition
  3
Resources
  2
RESOURCES
 70
     0
  0
LWPOLYLINE
  5
29C
100
AcDbEntity
  8
0
  6
CONTINUOUS
100
AcDbPolyline
 90
        8
 70
     1
 10
1.771654
 20
1.574803
 10
2.165354
 20
1.574803
 42
0.414214
 10
2.46063
 20
1.870079
 10
2.46063
 20
2.066929
 42
0.414214
 10
2.165354
 20
2.362205
 10
1.771654
 20
2.362205
 42
0.414214
 10
1.476378
 20
2.066929
 10
1.476378
 20
1.870079
 42
0.414214
  0
ENDBLK
  5
29D
100
AcDbEntity
  8
0
100
AcDbBlockEnd
  0
BLOCK
  5
29F
100
AcDbEntity
  8
0
100
AcDbBlockBegin
  2
TERMINATOR
 70
     2
 10
0.0
 20
0.0
 30
0.0
  3
TERMINATOR
  1

  0
ATTDEF
  5
2A0
100
AcDbEntity
  8
0
100
AcDbText
 10
2.0
 20
2.0
 30
0.0
 40
0.2
  1
0
100
AcDbAttributeDefinition
  3
Cost
  2
COST
 70
     0
  0
ATTDEF
  5
2A1
100
AcDbEntity
  8
0
100
AcDbText
 10
2.0
 20
2.0
 30
0.0
 40
0.2
  1
0
100
AcDbAttributeDefinition
  3
Duration
  2
DURATION
 70
     0
  0
ATTDEF
  5
2A2
100
AcDbEntity
  8
0
100
AcDbText
 10
2.0
 20
2.0
 30
0.0
 40
0.2
  1
0
100
AcDbAttributeDefinition
  3
Resources
  2
RESOURCES
 70
     0
  0
LWPOLYLINE
  5
2A3
100
AcDbEntity
  8
0
  6
CONTINUOUS
100
AcDbPolyline
 90
        4
 70
     1
 10
1.6875
 20
1.8125
 10
2.3125
 20
1.8125
 42
1.0
 10
2.3125
 20
2.1875
 10
1.6875
 20
2.1875
 42
1.0
  0
ENDBLK
  5
2A4
100
AcDbEntity
  8
0
100
AcDbBlockEnd
  0
BLOCK
  5
2A6
100
AcDbEntity
  8
0
100
AcDbBlockBegin
  2
PAPER_TAPE
 70
     2
 10
0.0
 20
0.0
 30
0.0
  3
PAPER_TAPE
  1

  0
ATTDEF
  5
2A7
100
AcDbEntity
  8
0
100
AcDbText
 10
2.0
 20
2.0
 30
0.0
 40
0.2
  1
0
100
AcDbAttributeDefinition
  3
Cost
  2
COST
 70
     0
  0
ATTDEF
  5
2A8
100
AcDbEntity
  8
0
100
AcDbText
 10
2.0
 20
2.0
 30
0.0
 40
0.2
  1
0
100
AcDbAttributeDefinition
  3
Duration
  2
DURATION
 70
     0
  0
ATTDEF
  5
2A9
100
AcDbEntity
  8
0
100
AcDbText
 10
2.0
 20
2.0
 30
0.0
 40
0.2
  1
0
100
AcDbAttributeDefinition
  3
Resources
  2
RESOURCES
 70
     0
  0
LWPOLYLINE
  5
2AA
100
AcDbEntity
  8
0
  6
CONTINUOUS
100
AcDbPolyline
 90
        6
 70
     1
 10
1.5
 20
1.708333
 10
1.5
 20
2.291667
 42
0.333333
 10
2.0
 20
2.291667
 42
-0.333333
 10
2.5
 20
2.291667
 10
2.5
 20
1.708333
 42
0.333333
 10
2.0
 20
1.708333
 42
-0.333333
  0
ENDBLK
  5
2AB
100
AcDbEntity
  8
0
100
AcDbBlockEnd
  0
ENDSEC
  0
SECTION
  2
ENTITIES
  0
LWPOLYLINE
  5
32
102
{ACAD_REACTORS
330
35
102
}
100
AcDbEntity
  8
0
  6
CONTINUOUS
 62
     7
100
AcDbPolyline
 90
        5
 70
     1
 10
0.2375
 20
10.15
 10
0.2375
 20
9.413793
 10
0.763362
 20
9.413793
 10
0.763362
 20
10.002759
 10
0.616121
 20
10.15
  0
LWPOLYLINE
  5
33
102
{ACAD_REACTORS
330
31
102
}
100
AcDbEntity
  8
0
  6
CONTINUOUS
 62
     7
100
AcDbPolyline
 90
        3
 70
     0
 10
0.616121
 20
10.15
 10
0.616121
 20
10.002759
 10
0.763362
 20
10.002759
  0
LWPOLYLINE
  5
34
102
{ACAD_REACTORS
330
35
102
}
100
AcDbEntity
  8
0
  6
CONTINUOUS
 62
     7
100
AcDbPolyline
 90
        4
 70
     1
 10
0.802802
 20
9.745086
 10
0.884968
 20
9.745086
 10
0.884968
 20
9.965948
 10
0.802802
 20
9.965948
  0
HATCH
  5
35
102
{ACAD_REACTORS
330
31
102
}
100
AcDbEntity
  8
0
 62
    10
100
AcDbHatch
 10
0.0
 20
0.0
 30
0.0
210
0.0
220
0.0
230
1.0
  2
SOLID
 70
     1
 71
     1
 91
        1
 92
        3
 72
     0
 73
     1
 93
        4
 10
0.8028017241379315
 20
9.7450862068965556
 10
0.8849676724137935
 20
9.7450862068965556
 10
0.8849676724137935
 20
9.9659482758620737
 10
0.8028017241379315
 20
9.9659482758620737
 97
        2
330
32
330
34
 75
     0
 76
     1
 98
        0
  0
LWPOLYLINE
  5
36
102
{ACAD_REACTORS
330
37
102
}
100
AcDbEntity
  8
0
  6
CONTINUOUS
 62
     7
100
AcDbPolyline
 90
        5
 70
     1
 10
0.408405
 20
9.334914
 10
0.934267
 20
9.334914
 10
0.934267
 20
9.732657
 10
0.671336
 20
9.900216
 10
0.408405
 20
9.732657
  0
HATCH
  5
37
102
{ACAD_REACTORS
330
31
102
}
100
AcDbEntity
  8
0
 62
   254
100
AcDbHatch
 10
0.0
 20
0.0
 30
0.0
210
0.0
220
0.0
230
1.0
  2
SOLID
 70
     1
 71
     1
 91
        1
 92
        3
 72
     0
 73
     1
 93
        5
 10
0.4084051724137942
 20
9.3349137931034551
 10
0.9342672413793108
 20
9.3349137931034551
 10
0.9342672413793108
 20
9.7326567398119206
 10
0.6713362068965525
 20
9.900215517241385
 10
0.4084051724137942
 20
9.7326567398119206
 97
        1
330
36
 75
     0
 76
     1
 98
        0
  0
LWPOLYLINE
  5
38
102
{ACAD_REACTORS
330
39
102
}
100
AcDbEntity
  8
0
  6
CONTINUOUS
 62
     7
100
AcDbPolyline
 90
        6
 70
     1
 10
0.408405
 20
9.683297
 10
0.342672
 20
9.683297
 10
0.671336
 20
9.946228
 10
1.0
 20
9.683297
 10
0.934267
 20
9.683297
 10
0.671336
 20
9.888384
  0
HATCH
  5
39
102
{ACAD_REACTORS
330
31
102
}
100
AcDbEntity
  8
0
 62
     2
100
AcDbHatch
 10
0.0
 20
0.0
 30
0.0
210
0.0
220
0.0
230
1.0
  2
SOLID
 70
     1
 71
     1
 91
        1
 92
        3
 72
     0
 73
     1
 93
        6
 10
0.4084051724137942
 20
9.6832974137931043
 10
0.3426724137931045
 20
9.6832974137931043
 10
0.6713362068965525
 20
9.9462284482758605
 10
1.0000000000000004
 20
9.6832974137931043
 10
0.9342672413793107
 20
9.6832974137931043
 10
0.6713362068965525
 20
9.8883836206896571
 97
        1
330
38
 75
     0
 76
     1
 98
        0
  0
LWPOLYLINE
  5
3A
102
{ACAD_REACTORS
330
3B
102
}
100
AcDbEntity
  8
0
  6
CONTINUOUS
 62
     7
100
AcDbPolyline
 90
        4
 70
     1
 10
0.58917
 20
9.334914
 10
0.753502
 20
9.334914
 10
0.753502
 20
9.608362
 10
0.58917
 20
9.608362
  0
HATCH
  5
3B
102
{ACAD_REACTORS
330
31
102
}
100
AcDbEntity
  8
0
 62
     2
100
AcDbHatch
 10
0.0
 20
0.0
 30
0.0
210
0.0
220
0.0
230
1.0
  2
SOLID
 70
     1
 71
     1
 91
        1
 92
        3
 72
     0
 73
     1
 93
        4
 10
0.5891702586206904
 20
9.3349137931034551
 10
0.7535021551724145
 20
9.3349137931034551
 10
0.7535021551724145
 20
9.6083620689655227
 10
0.5891702586206904
 20
9.6083620689655227
 97
        1
330
3A
 75
     0
 76
     1
 98
        0
  0
LWPOLYLINE
  5
3D
100
AcDbEntity
  8
CONNECTOR
  6
CONTINUOUS
100
AcDbPolyline
 90
        3
 70
     0
 10
0.61875
 20
9.334914
 10
0.61875
 20
9.0
 10
1.7
 20
9.0
  0
LWPOLYLINE
  5
3E
100
AcDbEntity
  8
CONNECTOR
  6
CONTINUOUS
100
AcDbPolyline
 90
        4
 70
     0
 10
2.7
 20
9.0
 10
2.8875
 20
9.0
 10
2.8875
 20
2.205
 10
4.8
 20
2.205
  0
ELLIPSE
  5
40
102
{ACAD_REACTORS
330
44
102
}
100
AcDbEntity
  8
0
  6
CONTINUOUS
 62
     7
100
AcDbEllipse
 10
6.415481
 20
10.260753
 30
0.0
 11
-1.6049940291684943
 21
-0.2953733437264913
 31
0.0
210
0.0
220
0.0
230
1.0
 40
0.220326
 41
-0.7811702574821896
 42
-0.0023736051373435
  0
ELLIPSE
  5
41
102
{ACAD_REACTORS
330
44
102
}
100
AcDbEntity
  8
0
  6
CONTINUOUS
 62
     7
100
AcDbEllipse
 10
6.415481
 20
10.260753
 30
0.0
 11
-1.6049940291684506
 21
-0.2953733437264833
 31
0.0
210
0.0
220
0.0
230
1.0
 40
0.220326
 41
-0.0023736051373425
 42
1.7920336486820518
  0
ELLIPSE
  5
42
102
{ACAD_REACTORS
330
44
102
}
100
AcDbEntity
  8
0
  6
CONTINUOUS
 62
     7
100
AcDbEllipse
 10
6.415481
 20
10.260753
 30
0.0
 11
-1.2084087815106359
 21
-0.0218139580952712
 31
0.0
210
0.0
220
0.0
230
1.0
 40
0.253044
 41
-0.0002800849679657
 42
1.9173933873708948
  0
ELLIPSE
  5
43
102
{ACAD_REACTORS
330
44
102
}
100
AcDbEntity
  8
0
  6
CONTINUOUS
 62
     7
100
AcDbEllipse
 10
6.415481
 20
10.260753
 30
0.0
 11
-1.2084087815106093
 21
-0.0218139580952707
 31
0.0
210
0.0
220
0.0
230
1.0
 40
0.253044
 41
-0.1995951028115605
 42
-0.0002800849679618
  0
HATCH
  5
44
102
{ACAD_REACTORS
330
3F
102
}
100
AcDbEntity
  8
0
 62
   254
100
AcDbHatch
 10
0.0
 20
0.0
 30
0.0
210
0.0
220
0.0
230
1.0
  2

 70
     1
 71
     1
 91
        1
 92
        1
 93
        4
 72
     3
 10
6.4154813932115795
 20
10.260753087612501
 11
-1.6049940291684943
 21
-0.2953733437264913
 40
0.220326
 50
315.242241
 51
359.864002
 73
     1
 72
     3
 10
6.415481393211536
 20
10.260753087612494
 11
-1.6049940291684506
 21
-0.2953733437264833
 40
0.220326
 50
359.864002
 51
102.675965
 73
     1
 72
     3
 10
6.4154813932115449
 20
10.2607530876125
 11
-1.2084087815106359
 21
-0.0218139580952712
 40
0.253044
 50
250.141451
 51
0.016048
 73
     0
 72
     3
 10
6.4154813932115182
 20
10.2607530876125
 11
-1.2084087815106093
 21
-0.0218139580952707
 40
0.253044
 50
0.016048
 51
11.435957
 73
     0
 97
        4
330
40
330
41
330
42
330
43
 75
     0
 76
     1
 98
        0
  0
ELLIPSE
  5
45
102
{ACAD_REACTORS
330
49
102
}
100
AcDbEntity
  8
0
  6
CONTINUOUS
 62
     7
100
AcDbEllipse
 10
6.468951
 20
10.339247
 30
0.0
 11
-1.2084087815106401
 21
-0.0218139580952713
 31
0.0
210
0.0
220
0.0
230
1.0
 40
0.253044
 41
3.1413125686218271
 42
5.0589860409607024
  0
ELLIPSE
  5
46
102
{ACAD_REACTORS
330
49
102
}
100
AcDbEntity
  8
0
  6
CONTINUOUS
 62
     7
100
AcDbEllipse
 10
6.468951
 20
10.339247
 30
0.0
 11
-1.2084087815107067
 21
-0.0218139580952725
 31
0.0
210
0.0
220
0.0
230
1.0
 40
0.253044
 41
2.9419975507782294
 42
3.1413125686218177
  0
ELLIPSE
  5
47
102
{ACAD_REACTORS
330
49
102
}
100
AcDbEntity
  8
0
  6
CONTINUOUS
 62
     7
100
AcDbEllipse
 10
6.468951
 20
10.339247
 30
0.0
 11
-1.604994029168521
 21
-0.2953733437264948
 31
0.0
210
0.0
220
0.0
230
1.0
 40
0.220326
 41
2.3604223961076074
 42
3.1392190484524476
  0
ELLIPSE
  5
48
102
{ACAD_REACTORS
330
49
102
}
100
AcDbEntity
  8
0
  6
CONTINUOUS
 62
     7
100
AcDbEllipse
 10
6.468951
 20
10.339247
 30
0.0
 11
-1.6049940291684528
 21
-0.2953733437264822
 31
0.0
210
0.0
220
0.0
230
1.0
 40
0.220326
 41
-3.1439662587271502
 42
-1.3495590049077388
  0
HATCH
  5
49
102
{ACAD_REACTORS
330
3F
102
}
100
AcDbEntity
  8
0
 62
   254
100
AcDbHatch
 10
0.0
 20
0.0
 30
0.0
210
0.0
220
0.0
230
1.0
  2

 70
     1
 71
     1
 91
        1
 92
        1
 93
        4
 72
     3
 10
6.468951098094359
 20
10.339246912387503
 11
-1.2084087815106401
 21
-0.0218139580952713
 40
0.253044
 50
70.141451
 51
180.016048
 73
     0
 72
     3
 10
6.4689510980942924
 20
10.339246912387505
 11
-1.2084087815107067
 21
-0.0218139580952725
 40
0.253044
 50
180.016048
 51
191.435957
 73
     0
 72
     3
 10
6.468951098094303
 20
10.339246912387498
 11
-1.604994029168521
 21
-0.2953733437264948
 40
0.220326
 50
135.242241
 51
179.864002
 73
     1
 72
     3
 10
6.4689510980943705
 20
10.339246912387511
 11
-1.6049940291684528
 21
-0.2953733437264822
 40
0.220326
 50
179.864002
 51
282.675965
 73
     1
 97
        4
330
45
330
46
330
47
330
48
 75
     0
 76
     1
 98
        0
  0
MTEXT
  5
4A
100
AcDbEntity
  8
0
100
AcDbMText
 10
6.4
 20
10.3
 30
0.0
 40
0.182007
 41
2.177578
 71
     5
 72
     5
  1
\C162;\fArial|b0|i0|;\H0.1820068359375;Briarcliff Pharmacy\P\H0.10111521743238;EHJ Consulting
  0
MTEXT
  5
4C
100
AcDbEntity
  8
0
100
AcDbMText
 10
1.575
 20
1.05
 30
0.0
 40
0.121339
 41
2.75
 71
     5
 72
     5
  1
\C7;\fArial|b0|i0|;\H0.12133881635964; 
  0
LWPOLYLINE
  5
4D
102
{ACAD_REACTORS
330
54
102
}
100
AcDbEntity
  8
0
  6
CONTINUOUS
 62
     7
100
AcDbPolyline
 90
        6
 70
     1
 10
0.2
 20
1.551337
 10
0.2
 20
0.393081
 42
0.471405
 10
0.355581
 20
0.2375
 10
2.794419
 20
0.2375
 42
0.471405
 10
2.95
 20
0.393081
 10
2.95
 20
1.551337
  0
MTEXT
  5
4E
100
AcDbEntity
  8
0
100
AcDbMText
 10
1.575
 20
0.894419
 30
0.0
 40
0.121339
 41
2.75
 71
     5
 72
     5
  1
\C7;\fArial|b0|i0|;\H0.12133881635964; 
  0
LWPOLYLINE
  5
4F
102
{ACAD_REACTORS
330
54
102
}
100
AcDbEntity
  8
0
  6
CONTINUOUS
 62
     7
100
AcDbPolyline
 90
        6
 70
     1
 10
0.2
 20
1.706919
 10
0.2
 20
1.551337
 10
2.95
 20
1.551337
 10
2.95
 20
1.706919
 42
0.471405
 10
2.794419
 20
1.8625
 10
0.355581
 20
1.8625
 42
0.471405
  0
MTEXT
  5
50
100
AcDbEntity
  8
0
100
AcDbMText
 10
1.575
 20
1.706919
 30
0.0
 40
0.121339
 41
2.75
 71
     5
 72
     5
  1
\C7;\fArial|b0|i0|;\H0.12133881635964;Key
  0
LWPOLYLINE
  5
51
102
{ACAD_REACTORS
330
54
102
}
100
AcDbEntity
  8
0
  6
CONTINUOUS
100
AcDbPolyline
 90
        4
 70
     1
 10
0.4
 20
0.8375
 10
0.65
 20
0.8375
 10
0.65
 20
1.0875
 10
0.4
 20
1.0875
  0
ELLIPSE
  5
52
102
{ACAD_REACTORS
330
54
102
}
100
AcDbEntity
  8
0
  6
CONTINUOUS
100
AcDbEllipse
 10
0.524766
 20
0.961362
 30
0.0
 11
0.0
 21
-0.1010100015940462
 31
0.0
210
0.0
220
0.0
230
1.0
 40
0.90879
 41
1.5707963267948961
 42
4.7123889803847039
  0
ELLIPSE
  5
53
102
{ACAD_REACTORS
330
54
102
}
100
AcDbEntity
  8
0
  6
CONTINUOUS
100
AcDbEllipse
 10
0.524766
 20
0.961362
 30
0.0
 11
0.0
 21
-0.1010100015940462
 31
0.0
210
0.0
220
0.0
230
1.0
 40
0.90879
 41
4.7123889803846897
 42
1.5707963267948961
  0
HATCH
  5
54
102
{ACAD_REACTORS
330
4B
102
}
100
AcDbEntity
  8
0
 62
     3
100
AcDbHatch
 10
0.0
 20
0.0
 30
0.0
210
0.0
220
0.0
230
1.0
  2

 70
     1
 71
     1
 91
        1
 92
        1
 93
        2
 72
     3
 10
0.5247656250000005
 20
0.961361682151175
 11
0.091796875
 21
0.0
 40
1.100364
 50
180.0
 51
0.0
 73
     0
 72
     3
 10
0.5247656250000005
 20
0.961361682151175
 11
0.091796875
 21
0.0
 40
1.100364
 50
0.0
 51
180.0
 73
     0
 97
        5
330
4D
330
4F
330
51
330
52
330
53
 75
     0
 76
     1
 98
        0
  0
LINE
  5
55
102
{ACAD_REACTORS
330
65
102
}
100
AcDbEntity
  8
0
  6
CONTINUOUS
100
AcDbLine
 10
0.512051
 20
1.032269
 30
0.0
 11
0.512051
 21
1.020552
 31
0.0
  0
LINE
  5
56
102
{ACAD_REACTORS
330
65
102
}
100
AcDbEntity
  8
0
  6
CONTINUOUS
100
AcDbLine
 10
0.512051
 20
1.020552
 30
0.0
 11
0.491148
 21
1.020552
 31
0.0
  0
ELLIPSE
  5
57
102
{ACAD_REACTORS
330
65
102
}
100
AcDbEntity
  8
0
  6
CONTINUOUS
100
AcDbEllipse
 10
0.491368
 20
1.014693
 30
0.0
 11
0.0
 21
-0.0058640222107182
 31
0.0
210
0.0
220
0.0
230
1.0
 40
0.891938
 41
6.2410505921570314
 42
3.1837273686123493
  0
ELLIPSE
  5
58
102
{ACAD_REACTORS
330
65
102
}
100
AcDbEntity
  8
0
  6
CONTINUOUS
100
AcDbEllipse
 10
0.480697
 20
1.022838
 30
0.0
 11
0.0
 21
-0.0182597181102699
 31
0.0
210
0.0
220
0.0
230
1.0
 40
0.891938
 41
5.5864458116479057
 42
0.6967394955316993
  0
ELLIPSE
  5
59
102
{ACAD_REACTORS
330
65
102
}
100
AcDbEntity
  8
0
  6
CONTINUOUS
100
AcDbEllipse
 10
0.475477
 20
0.991259
 30
0.0
 11
0.0
 21
-0.0185282762037776
 31
0.0
210
0.0
220
0.0
230
1.0
 40
0.891938
 41
3.4637464245731451
 42
0.3216929179011014
  0
ELLIPSE
  5
5A
102
{ACAD_REACTORS
330
65
102
}
100
AcDbEntity
  8
0
  6
CONTINUOUS
100
AcDbEllipse
 10
0.491154
 20
0.950259
 30
0.0
 11
0.0
 21
-0.0261893580212302
 31
0.0
210
0.0
220
0.0
230
1.0
 40
0.891938
 41
2.0340982428807717
 42
3.6054707355958087
  0
ELLIPSE
  5
5B
102
{ACAD_REACTORS
330
65
102
}
100
AcDbEntity
  8
0
  6
CONTINUOUS
100
AcDbEllipse
 10
0.4807
 20
0.960006
 30
0.0
 11
0.0
 21
-0.0352039930241968
 31
0.0
210
0.0
220
0.0
230
1.0
 40
0.891938
 41
0.3394255493103855
 42
1.6264277668967162
  0
LINE
  5
5C
102
{ACAD_REACTORS
330
65
102
}
100
AcDbEntity
  8
0
  6
CONTINUOUS
100
AcDbLine
 10
0.491154
 20
0.92681
 30
0.0
 11
0.522502
 21
0.891658
 31
0.0
  0
LINE
  5
5D
102
{ACAD_REACTORS
330
65
102
}
100
AcDbEntity
  8
0
  6
CONTINUOUS
100
AcDbLine
 10
0.522502
 20
0.891658
 30
0.0
 11
0.522502
 21
0.87994
 31
0.0
  0
ELLIPSE
  5
5E
102
{ACAD_REACTORS
330
65
102
}
100
AcDbEntity
  8
0
  6
CONTINUOUS
100
AcDbEllipse
 10
0.544309
 20
0.923771
 30
0.0
 11
0.0
 21
-0.0501883046647002
 31
0.0
210
0.0
220
0.0
230
1.0
 40
0.891938
 41
5.7743779241334536
 42
1.1523084918393716
  0
ELLIPSE
  5
5F
102
{ACAD_REACTORS
330
65
102
}
100
AcDbEntity
  8
0
  6
CONTINUOUS
100
AcDbEllipse
 10
0.586961
 20
0.928766
 30
0.0
 11
0.0
 21
-0.0254663926047874
 31
0.0
210
0.0
220
0.0
230
1.0
 40
0.891938
 41
3.7086963183923167
 42
6.2060389686307493
  0
ELLIPSE
  5
60
102
{ACAD_REACTORS
330
65
102
}
100
AcDbEntity
  8
0
  6
CONTINUOUS
100
AcDbEllipse
 10
0.569539
 20
0.971729
 30
0.0
 11
-0.0000029599743513
 21
-0.0222663522419505
 31
0.0
210
0.0
220
0.0
230
1.0
 40
0.891938
 41
0.2661134103975571
 42
4.051497913814174
  0
LINE
  5
61
102
{ACAD_REACTORS
330
65
102
}
100
AcDbEntity
  8
0
  6
CONTINUOUS
100
AcDbLine
 10
0.553862
 20
0.985399
 30
0.0
 11
0.543411
 21
1.020552
 31
0.0
  0
ELLIPSE
  5
62
102
{ACAD_REACTORS
330
65
102
}
100
AcDbEntity
  8
0
  6
CONTINUOUS
100
AcDbEllipse
 10
0.537473
 20
1.050644
 30
0.0
 11
0.0
 21
-0.0308203113449123
 31
0.0
210
0.0
220
0.0
230
1.0
 40
0.891938
 41
0.2177237683677542
 42
1.3530725584270256
  0
ARC
  5
63
102
{ACAD_REACTORS
330
65
102
}
100
AcDbEntity
  8
0
  6
CONTINUOUS
100
AcDbCircle
 10
0.520877
 20
0.969452
 30
0.0
 40
0.086268
100
AcDbArc
 50
59.76795
 51
88.916893
  0
LINE
  5
64
102
{ACAD_REACTORS
330
65
102
}
100
AcDbEntity
  8
0
  6
CONTINUOUS
100
AcDbLine
 10
0.522508
 20
1.055704
 30
0.0
 11
0.512051
 21
1.032269
 31
0.0
  0
HATCH
  5
65
102
{ACAD_REACTORS
330
4B
102
}
100
AcDbEntity
  8
0
 62
     5
100
AcDbHatch
 10
0.0
 20
0.0
 30
0.0
210
0.0
220
0.0
230
1.0
  2
SOLID
 70
     1
 71
     1
 91
        1
 92
        1
 93
       16
 72
     1
 10
0.5120507393906084
 20
1.0322692024887776
 11
0.5120507393906084
 21
1.0205515671264802
 72
     1
 10
0.5120507393906084
 20
1.0205515671264802
 11
0.4911479351935091
 21
1.0205515671264802
 72
     3
 10
0.4913682490103322
 20
1.0146927494453315
 11
0.0052303431660146
 21
0.0
 40
1.121154
 50
267.585859
 51
92.414141
 73
     0
 72
     3
 10
0.4806965330949595
 20
1.0228380142754641
 11
0.0162865330995579
 21
0.0
 40
1.121154
 50
50.079767
 51
129.920233
 73
     0
 72
     3
 10
0.4754774544702068
 20
0.9912588295254704
 11
0.0165260702190607
 21
0.0
 40
1.121154
 50
108.458051
 51
288.431646
 73
     1
 72
     3
 10
0.4911539552011212
 20
0.9502592517248276
 11
0.0233592788066668
 21
0.0
 40
1.121154
 50
243.421744
 51
333.454756
 73
     0
 72
     3
 10
0.4806995430987593
 20
0.9600059515159736
 11
0.0313997726669567
 21
0.0
 40
1.121154
 50
356.812553
 51
70.552349
 73
     0
 72
     1
 10
0.4911539552011186
 20
0.9268104842281081
 11
0.5225021414891569
 21
0.8916575781412187
 72
     1
 10
0.5225021414891569
 20
0.8916575781412187
 11
0.5225021414891569
 21
0.8799399427789215
 72
     3
 10
0.5443087121758236
 20
0.923770698921537
 11
0.0447648468720119
 21
0.0
 40
1.121154
 50
240.847484
 51
336.022413
 73
     1
 72
     3
 10
0.586961152180853
 20
0.9287658613354886
 11
0.022714438611784
 21
0.0
 40
1.121154
 50
94.42016
 51
237.507353
 73
     0
 72
     3
 10
0.5695390994677441
 20
0.9717290323647779
 11
0.0198602015981276
 21
-0.0000026401130595
 40
1.121154
 50
285.247175
 51
142.133731
 73
     1
 72
     1
 10
0.5538623677924139
 20
0.9853986610395896
 11
0.5434109656938643
 21
1.0205515671264802
 72
     3
 10
0.5374729572099758
 20
1.050644262140787
 11
0.0274898012020939
 21
0.0
 40
1.121154
 50
282.474653
 51
347.525347
 73
     1
 72
     2
 10
0.5208774635479606
 20
0.9694517247317631
 40
0.0862681621250353
 50
59.76795
 51
88.916893
 73
     1
 72
     1
 10
0.5225081614967663
 20
1.0557044732133687
 11
0.5120507393906084
 21
1.0322692024887776
 97
       16
330
55
330
56
330
57
330
58
330
59
330
5A
330
5B
330
5C
330
5D
330
5E
330
5F
330
60
330
61
330
62
330
63
330
64
 75
     0
 76
     1
 98
        0
  0
MTEXT
  5
66
100
AcDbEntity
  8
0
100
AcDbMText
 10
1.440506
 20
0.9375
 30
0.0
 40
0.121339
 41
1.681012
 71
     5
 72
     5
  1
\C7;\fArial|b0|i0|;\H0.12133881635964;= link to static page
  0
MTEXT
  5
67
100
AcDbEntity
  8
0
100
AcDbMText
 10
0.561101
 20
1.15692
 30
0.0
 40
0.080892
 41
0.072201
 71
     6
 72
     5
  1
\C7;\fArial|b0|i0|;\H0.08089161850512; 
  0
LWPOLYLINE
  5
68
102
{ACAD_REACTORS
330
69
102
}
100
AcDbEntity
  8
0
  6
CONTINUOUS
100
AcDbPolyline
 90
        4
 70
     1
 10
0.400769
 20
1.238151
 10
0.65
 20
1.238151
 10
0.65
 20
1.481294
 10
0.400769
 20
1.481294
  0
HATCH
  5
69
102
{ACAD_REACTORS
330
4B
102
}
100
AcDbEntity
  8
0
 62
   134
100
AcDbHatch
 10
0.0
 20
0.0
 30
0.0
210
0.0
220
0.0
230
1.0
  2

 70
     1
 71
     1
 91
        1
 92
        3
 72
     0
 73
     1
 93
        4
 10
0.4007686001229756
 20
1.2381510416666675
 10
0.6500000000000006
 20
1.2381510416666675
 10
0.6500000000000006
 20
1.4812941106066224
 10
0.4007686001229756
 20
1.4812941106066224
 97
        1
330
68
 75
     0
 76
     1
 98
        0
  0
LWPOLYLINE
  5
6A
102
{ACAD_REACTORS
330
6B
102
}
100
AcDbEntity
  8
0
  6
CONTINUOUS
100
AcDbPolyline
 90
        4
 70
     1
 10
0.4
 20
1.259834
 10
0.635294
 20
1.259834
 10
0.635294
 20
1.488151
 10
0.4
 20
1.488151
  0
HATCH
  5
6B
102
{ACAD_REACTORS
330
4B
102
}
100
AcDbEntity
  8
0
 62
   253
100
AcDbHatch
 10
0.0
 20
0.0
 30
0.0
210
0.0
220
0.0
230
1.0
  2
SOLID
 70
     1
 71
     1
 91
        1
 92
        3
 72
     0
 73
     1
 93
        4
 10
0.4000000000000006
 20
1.2598337696132937
 10
0.6352941176470606
 20
1.2598337696132937
 10
0.6352941176470606
 20
1.4881510416666663
 10
0.4000000000000006
 20
1.4881510416666663
 97
        1
330
6A
 75
     0
 76
     1
 98
        0
  0
LWPOLYLINE
  5
6C
102
{ACAD_REACTORS
330
6D
102
}
100
AcDbEntity
  8
0
  6
CONTINUOUS
100
AcDbPolyline
 90
        6
 70
     1
 10
0.434433
 20
1.294489
 10
0.468047
 20
1.327106
 10
0.594097
 20
1.302643
 10
0.560484
 20
1.302643
 10
0.602501
 20
1.347491
 10
0.602501
 20
1.294489
  0
HATCH
  5
6D
102
{ACAD_REACTORS
330
4B
102
}
100
AcDbEntity
  8
0
 62
   251
100
AcDbHatch
 10
0.0
 20
0.0
 30
0.0
210
0.0
220
0.0
230
1.0
  2
SOLID
 70
     1
 71
     1
 91
        1
 92
        3
 72
     0
 73
     1
 93
        6
 10
0.4344332855093244
 20
1.2944890698356812
 10
0.4680467308874758
 20
1.327105822986163
 10
0.594097151055544
 20
1.3026432581233014
 10
0.5604837056773925
 20
1.3026432581233014
 10
0.6025005124000818
 20
1.3474912937052137
 10
0.6025005124000818
 20
1.2944890698356812
 97
        1
330
6C
 75
     0
 76
     1
 98
        0
  0
LWPOLYLINE
  5
6E
102
{ACAD_REACTORS
330
70
102
}
100
AcDbEntity
  8
0
  6
CONTINUOUS
100
AcDbPolyline
 90
        6
 70
     1
 10
0.602501
 20
1.345453
 10
0.568887
 20
1.312836
 10
0.442837
 20
1.337299
 10
0.47645
 20
1.337299
 10
0.434433
 20
1.292451
 10
0.434433
 20
1.345453
  0
LWPOLYLINE
  5
6F
102
{ACAD_REACTORS
330
70
102
}
100
AcDbEntity
  8
0
  6
CONTINUOUS
100
AcDbPolyline
 90
        4
 70
     1
 10
0.442837
 20
1.300605
 10
0.594097
 20
1.300605
 10
0.594097
 20
1.337299
 10
0.442837
 20
1.337299
  0
HATCH
  5
70
102
{ACAD_REACTORS
330
4B
102
}
100
AcDbEntity
  8
0
 62
   253
100
AcDbHatch
 10
0.0
 20
0.0
 30
0.0
210
0.0
220
0.0
230
1.0
  2
SOLID
 70
     1
 71
     1
 91
        1
 92
        3
 72
     0
 73
     1
 93
        4
 10
0.4428366468538656
 20
1.3006047110513963
 10
0.5940971510555455
 20
1.3006047110513963
 10
0.5940971510555455
 20
1.3372985583456887
 10
0.4428366468538656
 20
1.3372985583456887
 97
        2
330
6E
330
6F
 75
     0
 76
     1
 98
        0
  0
LWPOLYLINE
  5
71
102
{ACAD_REACTORS
330
4B
102
}
100
AcDbEntity
  8
0
  6
CONTINUOUS
100
AcDbPolyline
 90
        4
 70
     1
 10
0.433613
 20
1.293562
 10
0.602501
 20
1.293562
 10
0.602501
 20
1.345453
 10
0.433613
 20
1.345453
  0
LWPOLYLINE
  5
72
102
{ACAD_REACTORS
330
75
102
}
100
AcDbEntity
  8
0
  6
CONTINUOUS
100
AcDbPolyline
 90
        4
 70
     1
 10
0.433255
 20
1.427266
 10
0.599529
 20
1.427266
 10
0.599529
 20
1.457709
 10
0.433255
 20
1.457709
  0
LWPOLYLINE
  5
73
102
{ACAD_REACTORS
330
75
102
}
100
AcDbEntity
  8
0
  6
CONTINUOUS
100
AcDbPolyline
 90
        4
 70
     1
 10
0.433255
 20
1.37247
 10
0.599529
 20
1.37247
 10
0.599529
 20
1.402913
 10
0.433255
 20
1.402913
  0
LWPOLYLINE
  5
74
102
{ACAD_REACTORS
330
75
102
}
100
AcDbEntity
  8
0
  6
CONTINUOUS
100
AcDbPolyline
 90
        6
 70
     1
 10
0.599529
 20
1.457709
 10
0.433255
 20
1.457709
 10
0.433255
 20
1.427266
 10
0.42698
 20
1.421178
 10
0.42698
 20
1.463797
 10
0.603922
 20
1.463797
  0
HATCH
  5
75
102
{ACAD_REACTORS
330
4B
102
}
100
AcDbEntity
  8
0
 62
   251
100
AcDbHatch
 10
0.0
 20
0.0
 30
0.0
210
0.0
220
0.0
230
1.0
  2
SOLID
 70
     1
 71
     1
 91
        2
 92
        3
 72
     0
 73
     1
 93
        6
 10
0.599529411764707
 20
1.4577087387262175
 10
0.433254901960786
 20
1.4577087387262175
 10
0.433254901960786
 20
1.4272664357857674
 10
0.4269803921568643
 20
1.4211779751976774
 10
0.4269803921568643
 20
1.4637971993143075
 10
0.6039215686274518
 20
1.4637971993143075
 97
        3
330
72
330
73
330
74
 92
        3
 72
     0
 73
     1
 93
        6
 10
0.599529411764707
 20
1.4029125934334075
 10
0.433254901960786
 20
1.4029125934334075
 10
0.433254901960786
 20
1.3724702904929575
 10
0.4269803921568643
 20
1.3663818299048676
 10
0.4269803921568643
 20
1.4090010540214974
 10
0.6039215686274518
 20
1.4090010540214974
 97
        1
330
76
 75
     0
 76
     1
 98
        0
  0
LWPOLYLINE
  5
76
102
{ACAD_REACTORS
330
75
102
}
100
AcDbEntity
  8
0
  6
CONTINUOUS
100
AcDbPolyline
 90
        6
 70
     1
 10
0.599529
 20
1.402913
 10
0.433255
 20
1.402913
 10
0.433255
 20
1.37247
 10
0.42698
 20
1.366382
 10
0.42698
 20
1.409001
 10
0.603922
 20
1.409001
  0
LWPOLYLINE
  5
77
102
{ACAD_REACTORS
330
78
102
}
100
AcDbEntity
  8
0
  6
CONTINUOUS
100
AcDbPolyline
 90
        6
 70
     1
 10
0.431373
 20
1.37247
 10
0.597647
 20
1.37247
 10
0.597647
 20
1.402913
 10
0.603922
 20
1.409001
 10
0.603922
 20
1.366382
 10
0.42698
 20
1.366382
  0
HATCH
  5
78
102
{ACAD_REACTORS
330
4B
102
}
100
AcDbEntity
  8
0
 62
   254
100
AcDbHatch
 10
0.0
 20
0.0
 30
0.0
210
0.0
220
0.0
230
1.0
  2
SOLID
 70
     1
 71
     1
 91
        2
 92
        3
 72
     0
 73
     1
 93
        6
 10
0.4313725490196094
 20
1.3724702904929575
 10
0.5976470588235305
 20
1.3724702904929575
 10
0.5976470588235305
 20
1.4029125934334075
 10
0.6039215686274518
 20
1.4090010540214974
 10
0.6039215686274518
 20
1.3663818299048676
 10
0.4269803921568643
 20
1.3663818299048676
 97
        1
330
77
 92
        3
 72
     0
 73
     1
 93
        6
 10
0.4313725490196094
 20
1.4272664357857674
 10
0.5976470588235305
 20
1.4272664357857674
 10
0.5976470588235305
 20
1.4577087387262175
 10
0.6039215686274518
 20
1.4637971993143075
 10
0.6039215686274518
 20
1.4211779751976774
 10
0.4269803921568643
 20
1.4211779751976774
 97
        1
330
79
 75
     0
 76
     1
 98
        0
  0
LWPOLYLINE
  5
79
102
{ACAD_REACTORS
330
78
102
}
100
AcDbEntity
  8
0
  6
CONTINUOUS
100
AcDbPolyline
 90
        6
 70
     1
 10
0.431373
 20
1.427266
 10
0.597647
 20
1.427266
 10
0.597647
 20
1.457709
 10
0.603922
 20
1.463797
 10
0.603922
 20
1.421178
 10
0.42698
 20
1.421178
  0
MTEXT
  5
7A
100
AcDbEntity
  8
0
100
AcDbMText
 10
1.725
 20
1.3625
 30
0.0
 40
0.121339
 41
2.25
 71
     5
 72
     5
  1
\C7;\fArial|b0|i0|;\H0.12133881635964;= form submitting capability
  0
LWPOLYLINE
  5
7B
102
{ACAD_REACTORS
330
7D
102
}
100
AcDbEntity
  8
0
  6
CONTINUOUS
100
AcDbPolyline
 90
        4
 70
     1
 10
0.397352
 20
0.4375
 10
0.647352
 20
0.4375
 10
0.647352
 20
0.6875
 10
0.397352
 20
0.6875
  0
CIRCLE
  5
7C
102
{ACAD_REACTORS
330
7D
102
}
100
AcDbEntity
  8
0
  6
CONTINUOUS
100
AcDbCircle
 10
0.527977
 20
0.560313
 30
0.0
 40
0.091797
  0
HATCH
  5
7D
102
{ACAD_REACTORS
330
4B
102
}
100
AcDbEntity
  8
0
 62
     5
100
AcDbHatch
 10
0.0
 20
0.0
 30
0.0
210
0.0
220
0.0
230
1.0
  2
SOLID
 70
     1
 71
     1
 91
        1
 92
        1
 93
        1
 72
     2
 10
0.5279774305555558
 20
0.5603125000000001
 40
0.091796875
 50
0.0
 51
360.0
 73
     1
 97
        2
330
7B
330
7C
 75
     0
 76
     1
 98
        0
  0
LINE
  5
7E
102
{ACAD_REACTORS
330
4B
102
}
100
AcDbEntity
  8
0
  6
CONTINUOUS
100
AcDbLine
 10
0.487196
 20
0.601563
 30
0.0
 11
0.573134
 21
0.515625
 31
0.0
  0
MTEXT
  5
7F
100
AcDbEntity
  8
0
100
AcDbMText
 10
1.752648
 20
0.5625
 30
0.0
 40
0.121339
 41
2.3
 71
     5
 72
     5
  1
\C7;\fArial|b0|i0|;\H0.12133881635964;= FrontPage Developement
  0
ELLIPSE
  5
81
102
{ACAD_REACTORS
330
83
102
}
100
AcDbEntity
  8
0
  6
CONTINUOUS
 62
     7
100
AcDbEllipse
 10
6.543701
 20
7.422362
 30
0.0
 11
0.3937007874015748
 21
0.0
 31
0.0
210
0.0
220
0.0
230
1.0
 40
0.375
 41
0.0
 42
3.1415926535897931
  0
ELLIPSE
  5
82
102
{ACAD_REACTORS
330
83
102
}
100
AcDbEntity
  8
0
  6
CONTINUOUS
 62
     7
100
AcDbEllipse
 10
6.543701
 20
7.422362
 30
0.0
 11
0.3937007874015751
 21
0.0
 31
0.0
210
0.0
220
0.0
230
1.0
 40
0.375
 41
3.1415926535897922
 42
6.2831853071796013
  0
HATCH
  5
83
102
{ACAD_REACTORS
330
80
102
}
100
AcDbEntity
  8
0
 62
     2
100
AcDbHatch
 10
0.0
 20
0.0
 30
0.0
210
0.0
220
0.0
230
1.0
  2
SOLID
 70
     1
 71
     1
 91
        2
 92
        1
 93
        2
 72
     3
 10
6.5437007874015753
 20
7.4223622049999998
 11
0.3937007874015748
 21
0.0
 40
0.375
 50
180.0
 51
0.0
 73
     0
 72
     3
 10
6.5437007874015745
 20
7.4223622049999998
 11
0.3937007874015751
 21
0.0
 40
0.375
 50
360.0
 51
540.0
 73
     0
 97
        2
330
81
330
82
 92
        1
 93
        4
 72
     1
 10
6.1500000000000004
 20
7.4223622049999998
 11
6.1500000000000004
 21
6.8176377949999996
 72
     3
 10
6.5437007874015753
 20
6.8176377949999996
 11
0.3937007874015748
 21
0.0
 40
0.375
 50
180.0
 51
0.0
 73
     1
 72
     1
 10
6.9374015748031503
 20
6.8176377949999996
 11
6.9374015748031503
 21
7.4223622049999998
 72
     3
 10
6.5437007874015753
 20
7.4223622049999998
 11
0.3937007874015747
 21
0.0
 40
0.375
 50
360.0
 51
540.0
 73
     0
 97
        4
330
84
330
85
330
86
330
87
 75
     0
 76
     1
 98
        0
  0
LINE
  5
84
102
{ACAD_REACTORS
330
83
102
}
100
AcDbEntity
  8
0
  6
CONTINUOUS
 62
     7
100
AcDbLine
 10
6.15
 20
7.422362
 30
0.0
 11
6.15
 21
6.817638
 31
0.0
  0
ELLIPSE
  5
85
102
{ACAD_REACTORS
330
83
102
}
100
AcDbEntity
  8
0
  6
CONTINUOUS
 62
     7
100
AcDbEllipse
 10
6.543701
 20
6.817638
 30
0.0
 11
0.3937007874015748
 21
0.0
 31
0.0
210
0.0
220
0.0
230
1.0
 40
0.375
 41
-3.1415926535898073
 42
0.0000000000000001
  0
LINE
  5
86
102
{ACAD_REACTORS
330
83
102
}
100
AcDbEntity
  8
0
  6
CONTINUOUS
 62
     7
100
AcDbLine
 10
6.937402
 20
6.817638
 30
0.0
 11
6.937402
 21
7.422362
 31
0.0
  0
ELLIPSE
  5
87
102
{ACAD_REACTORS
330
83
102
}
100
AcDbEntity
  8
0
  6
CONTINUOUS
 62
     7
100
AcDbEllipse
 10
6.543701
 20
7.422362
 30
0.0
 11
0.3937007874015747
 21
0.0
 31
0.0
210
0.0
220
0.0
230
1.0
 40
0.375
 41
3.1415926535897931
 42
6.2831853071796004
  0
MTEXT
  5
88
100
AcDbEntity
  8
0
100
AcDbMText
 10
6.543701
 20
6.525532
 30
0.0
 40
0.14156
 41
1.633143
 71
     5
 72
     5
  1
\C7;\fArial|b0|i0|;\H0.14155963808298;Access Database
  0
MTEXT
  5
8A
100
AcDbEntity
  8
0
100
AcDbMText
 10
6.25
 20
2.425
 30
0.0
 40
0.121339
 41
3.9
 71
     5
 72
     5
  1
\C7;\fArial|b0|i0|;\H0.12133881635964;Basic Page Layout
  0
LWPOLYLINE
  5
8B
102
{ACAD_REACTORS
330
98
102
}
100
AcDbEntity
  8
0
  6
CONTINUOUS
 62
     7
100
AcDbPolyline
 90
        6
 70
     1
 10
4.3
 20
4.138837
 10
4.3
 20
0.555581
 42
0.471405
 10
4.455581
 20
0.4
 10
8.044419
 20
0.4
 42
0.471405
 10
8.2
 20
0.555581
 10
8.2
 20
4.138837
  0
MTEXT
  5
8C
100
AcDbEntity
  8
0
100
AcDbMText
 10
6.25
 20
2.269419
 30
0.0
 40
0.121339
 41
3.9
 71
     5
 72
     5
  1
\C7;\fArial|b0|i0|;\H0.12133881635964; 
  0
LWPOLYLINE
  5
8D
102
{ACAD_REACTORS
330
98
102
}
100
AcDbEntity
  8
0
  6
CONTINUOUS
 62
     7
100
AcDbPolyline
 90
        6
 70
     1
 10
4.3
 20
4.294419
 10
4.3
 20
4.138837
 10
8.2
 20
4.138837
 10
8.2
 20
4.294419
 42
0.471405
 10
8.044419
 20
4.45
 10
4.455581
 20
4.45
 42
0.471405
  0
MTEXT
  5
8E
100
AcDbEntity
  8
0
100
AcDbMText
 10
6.25
 20
4.294419
 30
0.0
 40
0.121339
 41
3.9
 71
     5
 72
     5
  1
\C7;\fArial|b0|i0|;\H0.12133881635964;Basic Page Layout
  0
LWPOLYLINE
  5
8F
102
{ACAD_REACTORS
330
98
102
}
100
AcDbEntity
  8
0
  6
CONTINUOUS
 62
     7
100
AcDbPolyline
 90
        4
 70
     1
 10
4.8
 20
0.61
 10
5.9
 20
0.61
 10
5.9
 20
3.8
 10
4.8
 20
3.8
  0
MTEXT
  5
90
100
AcDbEntity
  8
0
100
AcDbMText
 10
5.35
 20
4.01
 30
0.0
 40
0.121339
 41
1.1
 71
     5
 72
     5
  1
\C7;\fArial|b0|i0|;\H0.12133881635964;Static frame
  0
LWPOLYLINE
  5
91
102
{ACAD_REACTORS
330
98
102
}
100
AcDbEntity
  8
0
  6
CONTINUOUS
 62
     7
100
AcDbPolyline
 90
        4
 70
     1
 10
5.9
 20
0.61
 10
7.84
 20
0.61
 10
7.84
 20
3.8
 10
5.9
 20
3.8
  0
MTEXT
  5
92
100
AcDbEntity
  8
0
100
AcDbMText
 10
6.87
 20
4.01
 30
0.0
 40
0.121339
 41
1.94
 71
     5
 72
     5
  1
\C7;\fArial|b0|i0|;\H0.12133881635964;Dynamic content
  0
LWPOLYLINE
  5
93
102
{ACAD_REACTORS
330
98
102
}
100
AcDbEntity
  8
0
  6
CONTINUOUS
 62
     7
100
AcDbPolyline
 90
        4
 70
     1
 10
5.2
 20
0.8
 10
5.7
 20
0.8
 10
5.7
 20
2.86
 10
5.2
 20
2.86
  0
LWPOLYLINE
  5
94
102
{ACAD_REACTORS
330
98
102
}
100
AcDbEntity
  8
0
  6
CONTINUOUS
 62
     7
100
AcDbPolyline
 90
        4
 70
     1
 10
4.95
 20
1.05
 10
5.45
 20
1.05
 10
5.45
 20
3.11
 10
4.95
 20
3.11
  0
LWPOLYLINE
  5
95
102
{ACAD_REACTORS
330
98
102
}
100
AcDbEntity
  8
0
  6
CONTINUOUS
 62
     7
100
AcDbPolyline
 90
        4
 70
     1
 10
5.075
 20
0.925
 10
5.575
 20
0.925
 10
5.575
 20
2.985
 10
5.075
 20
2.985
  0
LWPOLYLINE
  5
96
102
{ACAD_REACTORS
330
98
102
}
100
AcDbEntity
  8
0
  6
CONTINUOUS
100
AcDbPolyline
 90
        4
 70
     1
 10
5.107111
 20
3.2
 10
5.567111
 20
3.2
 10
5.567111
 20
3.66
 10
5.107111
 20
3.66
  0
LWPOLYLINE
  5
97
102
{ACAD_REACTORS
330
98
102
}
100
AcDbEntity
  8
0
  6
CONTINUOUS
100
AcDbPolyline
 90
        4
 70
     1
 10
5.174961
 20
3.368475
 10
5.390586
 20
3.368475
 10
5.390586
 20
3.5841
 10
5.174961
 20
3.5841
  0
HATCH
  5
98
102
{ACAD_REACTORS
330
89
102
}
100
AcDbEntity
  8
0
 62
     5
100
AcDbHatch
 10
0.0
 20
0.0
 30
0.0
210
0.0
220
0.0
230
1.0
  2
SOLID
 70
     1
 71
     1
 91
        1
 92
        3
 72
     0
 73
     1
 93
        4
 10
5.1749611111111093
 20
3.3684749999999992
 10
5.3905861111111113
 20
3.3684749999999992
 10
5.3905861111111113
 20
3.5841000000000007
 10
5.1749611111111093
 20
3.5841000000000007
 97
        9
330
8B
330
8D
330
8F
330
91
330
93
330
94
330
95
330
96
330
97
 75
     0
 76
     1
 98
        0
  0
CIRCLE
  5
99
102
{ACAD_REACTORS
330
9A
102
}
100
AcDbEntity
  8
0
  6
CONTINUOUS
100
AcDbCircle
 10
5.390586
 20
3.425975
 30
0.0
 40
0.107813
  0
HATCH
  5
9A
102
{ACAD_REACTORS
330
89
102
}
100
AcDbEntity
  8
0
 62
    10
100
AcDbHatch
 10
0.0
 20
0.0
 30
0.0
210
0.0
220
0.0
230
1.0
  2
SOLID
 70
     1
 71
     1
 91
        1
 92
        1
 93
        1
 72
     2
 10
5.3905861111111113
 20
3.4259749999999998
 40
0.1078125000000006
 50
0.0
 51
360.0
 73
     1
 97
        1
330
99
 75
     0
 76
     1
 98
        0
  0
LWPOLYLINE
  5
9B
102
{ACAD_REACTORS
330
9C
102
}
100
AcDbEntity
  8
0
  6
CONTINUOUS
100
AcDbPolyline
 90
        3
 70
     1
 10
5.210899
 20
3.26785
 10
5.332433
 20
3.465906
 10
5.433711
 20
3.26785
  0
HATCH
  5
9C
102
{ACAD_REACTORS
330
89
102
}
100
AcDbEntity
  8
0
 62
     2
100
AcDbHatch
 10
0.0
 20
0.0
 30
0.0
210
0.0
220
0.0
230
1.0
  2
SOLID
 70
     1
 71
     1
 91
        1
 92
        3
 72
     0
 73
     1
 93
        3
 10
5.2108986111111104
 20
3.2678499999999988
 10
5.3324327020202027
 20
3.4659055555555573
 10
5.4337111111111112
 20
3.2678499999999988
 97
        1
330
9B
 75
     0
 76
     1
 98
        0
  0
LWPOLYLINE
  5
9D
102
{ACAD_REACTORS
330
A0
102
}
100
AcDbEntity
  8
0
  6
CONTINUOUS
100
AcDbPolyline
 90
        4
 70
     1
 10
5.343611
 20
2.4
 10
5.593611
 20
2.4
 10
5.593611
 20
2.65
 10
5.343611
 20
2.65
  0
ELLIPSE
  5
9E
102
{ACAD_REACTORS
330
A0
102
}
100
AcDbEntity
  8
0
  6
CONTINUOUS
100
AcDbEllipse
 10
5.468377
 20
2.523862
 30
0.0
 11
0.0
 21
-0.1010100015940462
 31
0.0
210
0.0
220
0.0
230
1.0
 40
0.90879
 41
1.5707963267948961
 42
4.7123889803847039
  0
ELLIPSE
  5
9F
102
{ACAD_REACTORS
330
A0
102
}
100
AcDbEntity
  8
0
  6
CONTINUOUS
100
AcDbEllipse
 10
5.468377
 20
2.523862
 30
0.0
 11
0.0
 21
-0.1010100015940462
 31
0.0
210
0.0
220
0.0
230
1.0
 40
0.90879
 41
4.7123889803846897
 42
1.5707963267948961
  0
HATCH
  5
A0
102
{ACAD_REACTORS
330
89
102
}
100
AcDbEntity
  8
0
 62
     3
100
AcDbHatch
 10
0.0
 20
0.0
 30
0.0
210
0.0
220
0.0
230
1.0
  2

 70
     1
 71
     1
 91
        1
 92
        1
 93
        2
 72
     3
 10
5.4683767361111109
 20
2.5238616821511761
 11
0.091796875
 21
0.0
 40
1.100364
 50
180.0
 51
0.0
 73
     0
 72
     3
 10
5.4683767361111109
 20
2.5238616821511761
 11
0.091796875
 21
0.0
 40
1.100364
 50
0.0
 51
180.0
 73
     0
 97
        3
330
9D
330
9E
330
9F
 75
     0
 76
     1
 98
        0
  0
LINE
  5
A1
102
{ACAD_REACTORS
330
B1
102
}
100
AcDbEntity
  8
0
  6
CONTINUOUS
100
AcDbLine
 10
5.455662
 20
2.594769
 30
0.0
 11
5.455662
 21
2.583052
 31
0.0
  0
LINE
  5
A2
102
{ACAD_REACTORS
330
B1
102
}
100
AcDbEntity
  8
0
  6
CONTINUOUS
100
AcDbLine
 10
5.455662
 20
2.583052
 30
0.0
 11
5.434759
 21
2.583052
 31
0.0
  0
ELLIPSE
  5
A3
102
{ACAD_REACTORS
330
B1
102
}
100
AcDbEntity
  8
0
  6
CONTINUOUS
100
AcDbEllipse
 10
5.434979
 20
2.577193
 30
0.0
 11
0.0
 21
-0.0058640222107182
 31
0.0
210
0.0
220
0.0
230
1.0
 40
0.891938
 41
6.2410505921570314
 42
3.1837273686123493
  0
ELLIPSE
  5
A4
102
{ACAD_REACTORS
330
B1
102
}
100
AcDbEntity
  8
0
  6
CONTINUOUS
100
AcDbEllipse
 10
5.424308
 20
2.585338
 30
0.0
 11
0.0
 21
-0.0182597181102699
 31
0.0
210
0.0
220
0.0
230
1.0
 40
0.891938
 41
5.5864458116479057
 42
0.6967394955316993
  0
ELLIPSE
  5
A5
102
{ACAD_REACTORS
330
B1
102
}
100
AcDbEntity
  8
0
  6
CONTINUOUS
100
AcDbEllipse
 10
5.419089
 20
2.553759
 30
0.0
 11
0.0
 21
-0.0185282762037776
 31
0.0
210
0.0
220
0.0
230
1.0
 40
0.891938
 41
3.4637464245731451
 42
0.3216929179011014
  0
ELLIPSE
  5
A6
102
{ACAD_REACTORS
330
B1
102
}
100
AcDbEntity
  8
0
  6
CONTINUOUS
100
AcDbEllipse
 10
5.434765
 20
2.512759
 30
0.0
 11
0.0
 21
-0.0261893580212302
 31
0.0
210
0.0
220
0.0
230
1.0
 40
0.891938
 41
2.0340982428807717
 42
3.6054707355958087
  0
ELLIPSE
  5
A7
102
{ACAD_REACTORS
330
B1
102
}
100
AcDbEntity
  8
0
  6
CONTINUOUS
100
AcDbEllipse
 10
5.424311
 20
2.522506
 30
0.0
 11
0.0
 21
-0.0352039930241968
 31
0.0
210
0.0
220
0.0
230
1.0
 40
0.891938
 41
0.3394255493103855
 42
1.6264277668967162
  0
LINE
  5
A8
102
{ACAD_REACTORS
330
B1
102
}
100
AcDbEntity
  8
0
  6
CONTINUOUS
100
AcDbLine
 10
5.434765
 20
2.48931
 30
0.0
 11
5.466113
 21
2.454158
 31
0.0
  0
LINE
  5
A9
102
{ACAD_REACTORS
330
B1
102
}
100
AcDbEntity
  8
0
  6
CONTINUOUS
100
AcDbLine
 10
5.466113
 20
2.454158
 30
0.0
 11
5.466113
 21
2.44244
 31
0.0
  0
ELLIPSE
  5
AA
102
{ACAD_REACTORS
330
B1
102
}
100
AcDbEntity
  8
0
  6
CONTINUOUS
100
AcDbEllipse
 10
5.48792
 20
2.486271
 30
0.0
 11
0.0
 21
-0.0501883046647002
 31
0.0
210
0.0
220
0.0
230
1.0
 40
0.891938
 41
5.7743779241334536
 42
1.1523084918393716
  0
ELLIPSE
  5
AB
102
{ACAD_REACTORS
330
B1
102
}
100
AcDbEntity
  8
0
  6
CONTINUOUS
100
AcDbEllipse
 10
5.530572
 20
2.491266
 30
0.0
 11
0.0
 21
-0.0254663926047874
 31
0.0
210
0.0
220
0.0
230
1.0
 40
0.891938
 41
3.7086963183923167
 42
6.2060389686307493
  0
ELLIPSE
  5
AC
102
{ACAD_REACTORS
330
B1
102
}
100
AcDbEntity
  8
0
  6
CONTINUOUS
100
AcDbEllipse
 10
5.51315
 20
2.534229
 30
0.0
 11
-0.0000029599743513
 21
-0.0222663522419505
 31
0.0
210
0.0
220
0.0
230
1.0
 40
0.891938
 41
0.2661134103975571
 42
4.051497913814174
  0
LINE
  5
AD
102
{ACAD_REACTORS
330
B1
102
}
100
AcDbEntity
  8
0
  6
CONTINUOUS
100
AcDbLine
 10
5.497473
 20
2.547899
 30
0.0
 11
5.487022
 21
2.583052
 31
0.0
  0
ELLIPSE
  5
AE
102
{ACAD_REACTORS
330
B1
102
}
100
AcDbEntity
  8
0
  6
CONTINUOUS
100
AcDbEllipse
 10
5.481084
 20
2.613144
 30
0.0
 11
0.0
 21
-0.0308203113449123
 31
0.0
210
0.0
220
0.0
230
1.0
 40
0.891938
 41
0.2177237683677542
 42
1.3530725584270256
  0
ARC
  5
AF
102
{ACAD_REACTORS
330
B1
102
}
100
AcDbEntity
  8
0
  6
CONTINUOUS
100
AcDbCircle
 10
5.464489
 20
2.531952
 30
0.0
 40
0.086268
100
AcDbArc
 50
59.76795
 51
88.916893
  0
LINE
  5
B0
102
{ACAD_REACTORS
330
B1
102
}
100
AcDbEntity
  8
0
  6
CONTINUOUS
100
AcDbLine
 10
5.466119
 20
2.618204
 30
0.0
 11
5.455662
 21
2.594769
 31
0.0
  0
HATCH
  5
B1
102
{ACAD_REACTORS
330
89
102
}
100
AcDbEntity
  8
0
 62
     5
100
AcDbHatch
 10
0.0
 20
0.0
 30
0.0
210
0.0
220
0.0
230
1.0
  2
SOLID
 70
     1
 71
     1
 91
        1
 92
        1
 93
       16
 72
     1
 10
5.4556618505017163
 20
2.594769202488779
 11
5.4556618505017163
 21
2.5830515671264811
 72
     1
 10
5.4556618505017163
 20
2.5830515671264811
 11
5.4347590463046167
 21
2.5830515671264811
 72
     3
 10
5.4349793601214396
 20
2.5771927494453326
 11
0.0052303431660146
 21
0.0
 40
1.121154
 50
267.585859
 51
92.414141
 73
     0
 72
     3
 10
5.4243076442060669
 20
2.5853380142754649
 11
0.0162865330995579
 21
0.0
 40
1.121154
 50
50.079767
 51
129.920233
 73
     0
 72
     3
 10
5.4190885655813146
 20
2.5537588295254716
 11
0.0165260702190607
 21
0.0
 40
1.121154
 50
108.458051
 51
288.431646
 73
     1
 72
     3
 10
5.4347650663122291
 20
2.5127592517248289
 11
0.0233592788066668
 21
0.0
 40
1.121154
 50
243.421744
 51
333.454756
 73
     0
 72
     3
 10
5.4243106542098669
 20
2.5225059515159747
 11
0.0313997726669567
 21
0.0
 40
1.121154
 50
356.812553
 51
70.552349
 73
     0
 72
     1
 10
5.4347650663122264
 20
2.4893104842281093
 11
5.4661132526002643
 21
2.4541575781412197
 72
     1
 10
5.4661132526002643
 20
2.4541575781412197
 11
5.4661132526002643
 21
2.4424399427789227
 72
     3
 10
5.4879198232869308
 20
2.4862706989215382
 11
0.0447648468720119
 21
0.0
 40
1.121154
 50
240.847484
 51
336.022413
 73
     1
 72
     3
 10
5.5305722632919609
 20
2.4912658613354899
 11
0.022714438611784
 21
0.0
 40
1.121154
 50
94.42016
 51
237.507353
 73
     0
 72
     3
 10
5.5131502105788517
 20
2.5342290323647791
 11
0.0198602015981276
 21
-0.0000026401130595
 40
1.121154
 50
285.247175
 51
142.133731
 73
     1
 72
     1
 10
5.4974734789035216
 20
2.5478986610395906
 11
5.4870220768049718
 21
2.5830515671264811
 72
     3
 10
5.4810840683210831
 20
2.6131442621407879
 11
0.0274898012020939
 21
0.0
 40
1.121154
 50
282.474653
 51
347.525347
 73
     1
 72
     2
 10
5.4644885746590681
 20
2.5319517247317642
 40
0.0862681621250353
 50
59.76795
 51
88.916893
 73
     1
 72
     1
 10
5.466119272607874
 20
2.6182044732133698
 11
5.4556618505017163
 21
2.594769202488779
 97
       16
330
A1
330
A2
330
A3
330
A4
330
A5
330
A6
330
A7
330
A8
330
A9
330
AA
330
AB
330
AC
330
AD
330
AE
330
AF
330
B0
 75
     0
 76
     1
 98
        0
  0
LWPOLYLINE
  5
B2
102
{ACAD_REACTORS
330
B5
102
}
100
AcDbEntity
  8
0
  6
CONTINUOUS
100
AcDbPolyline
 90
        4
 70
     1
 10
5.343611
 20
1.97
 10
5.593611
 20
1.97
 10
5.593611
 20
2.22
 10
5.343611
 20
2.22
  0
ELLIPSE
  5
B3
102
{ACAD_REACTORS
330
B5
102
}
100
AcDbEntity
  8
0
  6
CONTINUOUS
100
AcDbEllipse
 10
5.468377
 20
2.093862
 30
0.0
 11
0.0
 21
-0.1010100015940462
 31
0.0
210
0.0
220
0.0
230
1.0
 40
0.90879
 41
1.5707963267948961
 42
4.7123889803847039
  0
ELLIPSE
  5
B4
102
{ACAD_REACTORS
330
B5
102
}
100
AcDbEntity
  8
0
  6
CONTINUOUS
100
AcDbEllipse
 10
5.468377
 20
2.093862
 30
0.0
 11
0.0
 21
-0.1010100015940462
 31
0.0
210
0.0
220
0.0
230
1.0
 40
0.90879
 41
4.7123889803846897
 42
1.5707963267948961
  0
HATCH
  5
B5
102
{ACAD_REACTORS
330
89
102
}
100
AcDbEntity
  8
0
 62
     3
100
AcDbHatch
 10
0.0
 20
0.0
 30
0.0
210
0.0
220
0.0
230
1.0
  2

 70
     1
 71
     1
 91
        1
 92
        1
 93
        2
 72
     3
 10
5.4683767361111109
 20
2.0938616821511764
 11
0.091796875
 21
0.0
 40
1.100364
 50
180.0
 51
0.0
 73
     0
 72
     3
 10
5.4683767361111109
 20
2.0938616821511764
 11
0.091796875
 21
0.0
 40
1.100364
 50
0.0
 51
180.0
 73
     0
 97
        3
330
B2
330
B3
330
B4
 75
     0
 76
     1
 98
        0
  0
LINE
  5
B6
102
{ACAD_REACTORS
330
C6
102
}
100
AcDbEntity
  8
0
  6
CONTINUOUS
100
AcDbLine
 10
5.455662
 20
2.164769
 30
0.0
 11
5.455662
 21
2.153052
 31
0.0
  0
LINE
  5
B7
102
{ACAD_REACTORS
330
C6
102
}
100
AcDbEntity
  8
0
  6
CONTINUOUS
100
AcDbLine
 10
5.455662
 20
2.153052
 30
0.0
 11
5.434759
 21
2.153052
 31
0.0
  0
ELLIPSE
  5
B8
102
{ACAD_REACTORS
330
C6
102
}
100
AcDbEntity
  8
0
  6
CONTINUOUS
100
AcDbEllipse
 10
5.434979
 20
2.147193
 30
0.0
 11
0.0
 21
-0.0058640222107182
 31
0.0
210
0.0
220
0.0
230
1.0
 40
0.891938
 41
6.2410505921570314
 42
3.1837273686123493
  0
ELLIPSE
  5
B9
102
{ACAD_REACTORS
330
C6
102
}
100
AcDbEntity
  8
0
  6
CONTINUOUS
100
AcDbEllipse
 10
5.424308
 20
2.155338
 30
0.0
 11
0.0
 21
-0.0182597181102699
 31
0.0
210
0.0
220
0.0
230
1.0
 40
0.891938
 41
5.5864458116479057
 42
0.6967394955316993
  0
ELLIPSE
  5
BA
102
{ACAD_REACTORS
330
C6
102
}
100
AcDbEntity
  8
0
  6
CONTINUOUS
100
AcDbEllipse
 10
5.419089
 20
2.123759
 30
0.0
 11
0.0
 21
-0.0185282762037776
 31
0.0
210
0.0
220
0.0
230
1.0
 40
0.891938
 41
3.4637464245731451
 42
0.3216929179011014
  0
ELLIPSE
  5
BB
102
{ACAD_REACTORS
330
C6
102
}
100
AcDbEntity
  8
0
  6
CONTINUOUS
100
AcDbEllipse
 10
5.434765
 20
2.082759
 30
0.0
 11
0.0
 21
-0.0261893580212302
 31
0.0
210
0.0
220
0.0
230
1.0
 40
0.891938
 41
2.0340982428807717
 42
3.6054707355958087
  0
ELLIPSE
  5
BC
102
{ACAD_REACTORS
330
C6
102
}
100
AcDbEntity
  8
0
  6
CONTINUOUS
100
AcDbEllipse
 10
5.424311
 20
2.092506
 30
0.0
 11
0.0
 21
-0.0352039930241968
 31
0.0
210
0.0
220
0.0
230
1.0
 40
0.891938
 41
0.3394255493103855
 42
1.6264277668967162
  0
LINE
  5
BD
102
{ACAD_REACTORS
330
C6
102
}
100
AcDbEntity
  8
0
  6
CONTINUOUS
100
AcDbLine
 10
5.434765
 20
2.05931
 30
0.0
 11
5.466113
 21
2.024158
 31
0.0
  0
LINE
  5
BE
102
{ACAD_REACTORS
330
C6
102
}
100
AcDbEntity
  8
0
  6
CONTINUOUS
100
AcDbLine
 10
5.466113
 20
2.024158
 30
0.0
 11
5.466113
 21
2.01244
 31
0.0
  0
ELLIPSE
  5
BF
102
{ACAD_REACTORS
330
C6
102
}
100
AcDbEntity
  8
0
  6
CONTINUOUS
100
AcDbEllipse
 10
5.48792
 20
2.056271
 30
0.0
 11
0.0
 21
-0.0501883046647002
 31
0.0
210
0.0
220
0.0
230
1.0
 40
0.891938
 41
5.7743779241334536
 42
1.1523084918393716
  0
ELLIPSE
  5
C0
102
{ACAD_REACTORS
330
C6
102
}
100
AcDbEntity
  8
0
  6
CONTINUOUS
100
AcDbEllipse
 10
5.530572
 20
2.061266
 30
0.0
 11
0.0
 21
-0.0254663926047874
 31
0.0
210
0.0
220
0.0
230
1.0
 40
0.891938
 41
3.7086963183923167
 42
6.2060389686307493
  0
ELLIPSE
  5
C1
102
{ACAD_REACTORS
330
C6
102
}
100
AcDbEntity
  8
0
  6
CONTINUOUS
100
AcDbEllipse
 10
5.51315
 20
2.104229
 30
0.0
 11
-0.0000029599743513
 21
-0.0222663522419505
 31
0.0
210
0.0
220
0.0
230
1.0
 40
0.891938
 41
0.2661134103975571
 42
4.051497913814174
  0
LINE
  5
C2
102
{ACAD_REACTORS
330
C6
102
}
100
AcDbEntity
  8
0
  6
CONTINUOUS
100
AcDbLine
 10
5.497473
 20
2.117899
 30
0.0
 11
5.487022
 21
2.153052
 31
0.0
  0
ELLIPSE
  5
C3
102
{ACAD_REACTORS
330
C6
102
}
100
AcDbEntity
  8
0
  6
CONTINUOUS
100
AcDbEllipse
 10
5.481084
 20
2.183144
 30
0.0
 11
0.0
 21
-0.0308203113449123
 31
0.0
210
0.0
220
0.0
230
1.0
 40
0.891938
 41
0.2177237683677542
 42
1.3530725584270256
  0
ARC
  5
C4
102
{ACAD_REACTORS
330
C6
102
}
100
AcDbEntity
  8
0
  6
CONTINUOUS
100
AcDbCircle
 10
5.464489
 20
2.101952
 30
0.0
 40
0.086268
100
AcDbArc
 50
59.76795
 51
88.916893
  0
LINE
  5
C5
102
{ACAD_REACTORS
330
C6
102
}
100
AcDbEntity
  8
0
  6
CONTINUOUS
100
AcDbLine
 10
5.466119
 20
2.188204
 30
0.0
 11
5.455662
 21
2.164769
 31
0.0
  0
HATCH
  5
C6
102
{ACAD_REACTORS
330
89
102
}
100
AcDbEntity
  8
0
 62
     5
100
AcDbHatch
 10
0.0
 20
0.0
 30
0.0
210
0.0
220
0.0
230
1.0
  2
SOLID
 70
     1
 71
     1
 91
        1
 92
        1
 93
       16
 72
     1
 10
5.4556618505017163
 20
2.1647692024887788
 11
5.4556618505017163
 21
2.1530515671264814
 72
     1
 10
5.4556618505017163
 20
2.1530515671264814
 11
5.4347590463046167
 21
2.1530515671264814
 72
     3
 10
5.4349793601214396
 20
2.1471927494453329
 11
0.0052303431660146
 21
0.0
 40
1.121154
 50
267.585859
 51
92.414141
 73
     0
 72
     3
 10
5.4243076442060669
 20
2.1553380142754652
 11
0.0162865330995579
 21
0.0
 40
1.121154
 50
50.079767
 51
129.920233
 73
     0
 72
     3
 10
5.4190885655813146
 20
2.1237588295254715
 11
0.0165260702190607
 21
0.0
 40
1.121154
 50
108.458051
 51
288.431646
 73
     1
 72
     3
 10
5.4347650663122291
 20
2.0827592517248288
 11
0.0233592788066668
 21
0.0
 40
1.121154
 50
243.421744
 51
333.454756
 73
     0
 72
     3
 10
5.4243106542098669
 20
2.0925059515159745
 11
0.0313997726669567
 21
0.0
 40
1.121154
 50
356.812553
 51
70.552349
 73
     0
 72
     1
 10
5.4347650663122264
 20
2.0593104842281091
 11
5.4661132526002643
 21
2.02415757814122
 72
     1
 10
5.4661132526002643
 20
2.02415757814122
 11
5.4661132526002643
 21
2.0124399427789226
 72
     3
 10
5.4879198232869308
 20
2.056270698921538
 11
0.0447648468720119
 21
0.0
 40
1.121154
 50
240.847484
 51
336.022413
 73
     1
 72
     3
 10
5.5305722632919609
 20
2.0612658613354897
 11
0.022714438611784
 21
0.0
 40
1.121154
 50
94.42016
 51
237.507353
 73
     0
 72
     3
 10
5.5131502105788517
 20
2.104229032364779
 11
0.0198602015981276
 21
-0.0000026401130595
 40
1.121154
 50
285.247175
 51
142.133731
 73
     1
 72
     1
 10
5.4974734789035216
 20
2.1178986610395909
 11
5.4870220768049718
 21
2.1530515671264814
 72
     3
 10
5.4810840683210831
 20
2.1831442621407882
 11
0.0274898012020939
 21
0.0
 40
1.121154
 50
282.474653
 51
347.525347
 73
     1
 72
     2
 10
5.4644885746590681
 20
2.1019517247317641
 40
0.0862681621250353
 50
59.76795
 51
88.916893
 73
     1
 72
     1
 10
5.466119272607874
 20
2.1882044732133701
 11
5.4556618505017163
 21
2.1647692024887788
 97
       16
330
B6
330
B7
330
B8
330
B9
330
BA
330
BB
330
BC
330
BD
330
BE
330
BF
330
C0
330
C1
330
C2
330
C3
330
C4
330
C5
 75
     0
 76
     1
 98
        0
  0
LWPOLYLINE
  5
C7
102
{ACAD_REACTORS
330
CA
102
}
100
AcDbEntity
  8
0
  6
CONTINUOUS
100
AcDbPolyline
 90
        4
 70
     1
 10
5.343611
 20
1.54
 10
5.593611
 20
1.54
 10
5.593611
 20
1.79
 10
5.343611
 20
1.79
  0
ELLIPSE
  5
C8
102
{ACAD_REACTORS
330
CA
102
}
100
AcDbEntity
  8
0
  6
CONTINUOUS
100
AcDbEllipse
 10
5.468377
 20
1.663862
 30
0.0
 11
0.0
 21
-0.1010100015940462
 31
0.0
210
0.0
220
0.0
230
1.0
 40
0.90879
 41
1.5707963267948961
 42
4.7123889803847039
  0
ELLIPSE
  5
C9
102
{ACAD_REACTORS
330
CA
102
}
100
AcDbEntity
  8
0
  6
CONTINUOUS
100
AcDbEllipse
 10
5.468377
 20
1.663862
 30
0.0
 11
0.0
 21
-0.1010100015940462
 31
0.0
210
0.0
220
0.0
230
1.0
 40
0.90879
 41
4.7123889803846897
 42
1.5707963267948961
  0
HATCH
  5
CA
102
{ACAD_REACTORS
330
89
102
}
100
AcDbEntity
  8
0
 62
     3
100
AcDbHatch
 10
0.0
 20
0.0
 30
0.0
210
0.0
220
0.0
230
1.0
  2

 70
     1
 71
     1
 91
        1
 92
        1
 93
        2
 72
     3
 10
5.4683767361111109
 20
1.663861682151176
 11
0.091796875
 21
0.0
 40
1.100364
 50
180.0
 51
0.0
 73
     0
 72
     3
 10
5.4683767361111109
 20
1.663861682151176
 11
0.091796875
 21
0.0
 40
1.100364
 50
0.0
 51
180.0
 73
     0
 97
        3
330
C7
330
C8
330
C9
 75
     0
 76
     1
 98
        0
  0
LINE
  5
CB
102
{ACAD_REACTORS
330
DB
102
}
100
AcDbEntity
  8
0
  6
CONTINUOUS
100
AcDbLine
 10
5.455662
 20
1.734769
 30
0.0
 11
5.455662
 21
1.723052
 31
0.0
  0
LINE
  5
CC
102
{ACAD_REACTORS
330
DB
102
}
100
AcDbEntity
  8
0
  6
CONTINUOUS
100
AcDbLine
 10
5.455662
 20
1.723052
 30
0.0
 11
5.434759
 21
1.723052
 31
0.0
  0
ELLIPSE
  5
CD
102
{ACAD_REACTORS
330
DB
102
}
100
AcDbEntity
  8
0
  6
CONTINUOUS
100
AcDbEllipse
 10
5.434979
 20
1.717193
 30
0.0
 11
0.0
 21
-0.0058640222107182
 31
0.0
210
0.0
220
0.0
230
1.0
 40
0.891938
 41
6.2410505921570314
 42
3.1837273686123493
  0
ELLIPSE
  5
CE
102
{ACAD_REACTORS
330
DB
102
}
100
AcDbEntity
  8
0
  6
CONTINUOUS
100
AcDbEllipse
 10
5.424308
 20
1.725338
 30
0.0
 11
0.0
 21
-0.0182597181102699
 31
0.0
210
0.0
220
0.0
230
1.0
 40
0.891938
 41
5.5864458116479057
 42
0.6967394955316993
  0
ELLIPSE
  5
CF
102
{ACAD_REACTORS
330
DB
102
}
100
AcDbEntity
  8
0
  6
CONTINUOUS
100
AcDbEllipse
 10
5.419089
 20
1.693759
 30
0.0
 11
0.0
 21
-0.0185282762037776
 31
0.0
210
0.0
220
0.0
230
1.0
 40
0.891938
 41
3.4637464245731451
 42
0.3216929179011014
  0
ELLIPSE
  5
D0
102
{ACAD_REACTORS
330
DB
102
}
100
AcDbEntity
  8
0
  6
CONTINUOUS
100
AcDbEllipse
 10
5.434765
 20
1.652759
 30
0.0
 11
0.0
 21
-0.0261893580212302
 31
0.0
210
0.0
220
0.0
230
1.0
 40
0.891938
 41
2.0340982428807717
 42
3.6054707355958087
  0
ELLIPSE
  5
D1
102
{ACAD_REACTORS
330
DB
102
}
100
AcDbEntity
  8
0
  6
CONTINUOUS
100
AcDbEllipse
 10
5.424311
 20
1.662506
 30
0.0
 11
0.0
 21
-0.0352039930241968
 31
0.0
210
0.0
220
0.0
230
1.0
 40
0.891938
 41
0.3394255493103855
 42
1.6264277668967162
  0
LINE
  5
D2
102
{ACAD_REACTORS
330
DB
102
}
100
AcDbEntity
  8
0
  6
CONTINUOUS
100
AcDbLine
 10
5.434765
 20
1.62931
 30
0.0
 11
5.466113
 21
1.594158
 31
0.0
  0
LINE
  5
D3
102
{ACAD_REACTORS
330
DB
102
}
100
AcDbEntity
  8
0
  6
CONTINUOUS
100
AcDbLine
 10
5.466113
 20
1.594158
 30
0.0
 11
5.466113
 21
1.58244
 31
0.0
  0
ELLIPSE
  5
D4
102
{ACAD_REACTORS
330
DB
102
}
100
AcDbEntity
  8
0
  6
CONTINUOUS
100
AcDbEllipse
 10
5.48792
 20
1.626271
 30
0.0
 11
0.0
 21
-0.0501883046647002
 31
0.0
210
0.0
220
0.0
230
1.0
 40
0.891938
 41
5.7743779241334536
 42
1.1523084918393716
  0
ELLIPSE
  5
D5
102
{ACAD_REACTORS
330
DB
102
}
100
AcDbEntity
  8
0
  6
CONTINUOUS
100
AcDbEllipse
 10
5.530572
 20
1.631266
 30
0.0
 11
0.0
 21
-0.0254663926047874
 31
0.0
210
0.0
220
0.0
230
1.0
 40
0.891938
 41
3.7086963183923167
 42
6.2060389686307493
  0
ELLIPSE
  5
D6
102
{ACAD_REACTORS
330
DB
102
}
100
AcDbEntity
  8
0
  6
CONTINUOUS
100
AcDbEllipse
 10
5.51315
 20
1.674229
 30
0.0
 11
-0.0000029599743513
 21
-0.0222663522419505
 31
0.0
210
0.0
220
0.0
230
1.0
 40
0.891938
 41
0.2661134103975571
 42
4.051497913814174
  0
LINE
  5
D7
102
{ACAD_REACTORS
330
DB
102
}
100
AcDbEntity
  8
0
  6
CONTINUOUS
100
AcDbLine
 10
5.497473
 20
1.687899
 30
0.0
 11
5.487022
 21
1.723052
 31
0.0
  0
ELLIPSE
  5
D8
102
{ACAD_REACTORS
330
DB
102
}
100
AcDbEntity
  8
0
  6
CONTINUOUS
100
AcDbEllipse
 10
5.481084
 20
1.753144
 30
0.0
 11
0.0
 21
-0.0308203113449123
 31
0.0
210
0.0
220
0.0
230
1.0
 40
0.891938
 41
0.2177237683677542
 42
1.3530725584270256
  0
ARC
  5
D9
102
{ACAD_REACTORS
330
DB
102
}
100
AcDbEntity
  8
0
  6
CONTINUOUS
100
AcDbCircle
 10
5.464489
 20
1.671952
 30
0.0
 40
0.086268
100
AcDbArc
 50
59.76795
 51
88.916893
  0
LINE
  5
DA
102
{ACAD_REACTORS
330
DB
102
}
100
AcDbEntity
  8
0
  6
CONTINUOUS
100
AcDbLine
 10
5.466119
 20
1.758204
 30
0.0
 11
5.455662
 21
1.734769
 31
0.0
  0
HATCH
  5
DB
102
{ACAD_REACTORS
330
89
102
}
100
AcDbEntity
  8
0
 62
     5
100
AcDbHatch
 10
0.0
 20
0.0
 30
0.0
210
0.0
220
0.0
230
1.0
  2
SOLID
 70
     1
 71
     1
 91
        1
 92
        1
 93
       16
 72
     1
 10
5.4556618505017163
 20
1.7347692024887786
 11
5.4556618505017163
 21
1.7230515671264812
 72
     1
 10
5.4556618505017163
 20
1.7230515671264812
 11
5.4347590463046167
 21
1.7230515671264812
 72
     3
 10
5.4349793601214396
 20
1.7171927494453327
 11
0.0052303431660146
 21
0.0
 40
1.121154
 50
267.585859
 51
92.414141
 73
     0
 72
     3
 10
5.4243076442060669
 20
1.7253380142754651
 11
0.0162865330995579
 21
0.0
 40
1.121154
 50
50.079767
 51
129.920233
 73
     0
 72
     3
 10
5.4190885655813146
 20
1.6937588295254715
 11
0.0165260702190607
 21
0.0
 40
1.121154
 50
108.458051
 51
288.431646
 73
     1
 72
     3
 10
5.4347650663122291
 20
1.6527592517248286
 11
0.0233592788066668
 21
0.0
 40
1.121154
 50
243.421744
 51
333.454756
 73
     0
 72
     3
 10
5.4243106542098669
 20
1.6625059515159746
 11
0.0313997726669567
 21
0.0
 40
1.121154
 50
356.812553
 51
70.552349
 73
     0
 72
     1
 10
5.4347650663122264
 20
1.6293104842281092
 11
5.4661132526002643
 21
1.5941575781412198
 72
     1
 10
5.4661132526002643
 20
1.5941575781412198
 11
5.4661132526002643
 21
1.5824399427789224
 72
     3
 10
5.4879198232869308
 20
1.6262706989215381
 11
0.0447648468720119
 21
0.0
 40
1.121154
 50
240.847484
 51
336.022413
 73
     1
 72
     3
 10
5.5305722632919609
 20
1.6312658613354896
 11
0.022714438611784
 21
0.0
 40
1.121154
 50
94.42016
 51
237.507353
 73
     0
 72
     3
 10
5.5131502105788517
 20
1.674229032364779
 11
0.0198602015981276
 21
-0.0000026401130595
 40
1.121154
 50
285.247175
 51
142.133731
 73
     1
 72
     1
 10
5.4974734789035216
 20
1.6878986610395907
 11
5.4870220768049718
 21
1.7230515671264812
 72
     3
 10
5.4810840683210831
 20
1.753144262140788
 11
0.0274898012020939
 21
0.0
 40
1.121154
 50
282.474653
 51
347.525347
 73
     1
 72
     2
 10
5.4644885746590681
 20
1.6719517247317641
 40
0.0862681621250353
 50
59.76795
 51
88.916893
 73
     1
 72
     1
 10
5.466119272607874
 20
1.7582044732133699
 11
5.4556618505017163
 21
1.7347692024887786
 97
       16
330
CB
330
CC
330
CD
330
CE
330
CF
330
D0
330
D1
330
D2
330
D3
330
D4
330
D5
330
D6
330
D7
330
D8
330
D9
330
DA
 75
     0
 76
     1
 98
        0
  0
LWPOLYLINE
  5
DC
102
{ACAD_REACTORS
330
DF
102
}
100
AcDbEntity
  8
0
  6
CONTINUOUS
100
AcDbPolyline
 90
        4
 70
     1
 10
5.343611
 20
1.11
 10
5.593611
 20
1.11
 10
5.593611
 20
1.36
 10
5.343611
 20
1.36
  0
ELLIPSE
  5
DD
102
{ACAD_REACTORS
330
DF
102
}
100
AcDbEntity
  8
0
  6
CONTINUOUS
100
AcDbEllipse
 10
5.468377
 20
1.233862
 30
0.0
 11
0.0
 21
-0.1010100015940462
 31
0.0
210
0.0
220
0.0
230
1.0
 40
0.90879
 41
1.5707963267948961
 42
4.7123889803847039
  0
ELLIPSE
  5
DE
102
{ACAD_REACTORS
330
DF
102
}
100
AcDbEntity
  8
0
  6
CONTINUOUS
100
AcDbEllipse
 10
5.468377
 20
1.233862
 30
0.0
 11
0.0
 21
-0.1010100015940462
 31
0.0
210
0.0
220
0.0
230
1.0
 40
0.90879
 41
4.7123889803846897
 42
1.5707963267948961
  0
HATCH
  5
DF
102
{ACAD_REACTORS
330
89
102
}
100
AcDbEntity
  8
0
 62
     3
100
AcDbHatch
 10
0.0
 20
0.0
 30
0.0
210
0.0
220
0.0
230
1.0
  2

 70
     1
 71
     1
 91
        1
 92
        1
 93
        2
 72
     3
 10
5.4683767361111109
 20
1.2338616821511752
 11
0.091796875
 21
0.0
 40
1.100364
 50
180.0
 51
0.0
 73
     0
 72
     3
 10
5.4683767361111109
 20
1.2338616821511752
 11
0.091796875
 21
0.0
 40
1.100364
 50
0.0
 51
180.0
 73
     0
 97
        3
330
DC
330
DD
330
DE
 75
     0
 76
     1
 98
        0
  0
LINE
  5
E0
102
{ACAD_REACTORS
330
F0
102
}
100
AcDbEntity
  8
0
  6
CONTINUOUS
100
AcDbLine
 10
5.455662
 20
1.304769
 30
0.0
 11
5.455662
 21
1.293052
 31
0.0
  0
LINE
  5
E1
102
{ACAD_REACTORS
330
F0
102
}
100
AcDbEntity
  8
0
  6
CONTINUOUS
100
AcDbLine
 10
5.455662
 20
1.293052
 30
0.0
 11
5.434759
 21
1.293052
 31
0.0
  0
ELLIPSE
  5
E2
102
{ACAD_REACTORS
330
F0
102
}
100
AcDbEntity
  8
0
  6
CONTINUOUS
100
AcDbEllipse
 10
5.434979
 20
1.287193
 30
0.0
 11
0.0
 21
-0.0058640222107182
 31
0.0
210
0.0
220
0.0
230
1.0
 40
0.891938
 41
6.2410505921570314
 42
3.1837273686123493
  0
ELLIPSE
  5
E3
102
{ACAD_REACTORS
330
F0
102
}
100
AcDbEntity
  8
0
  6
CONTINUOUS
100
AcDbEllipse
 10
5.424308
 20
1.295338
 30
0.0
 11
0.0
 21
-0.0182597181102699
 31
0.0
210
0.0
220
0.0
230
1.0
 40
0.891938
 41
5.5864458116479057
 42
0.6967394955316993
  0
ELLIPSE
  5
E4
102
{ACAD_REACTORS
330
F0
102
}
100
AcDbEntity
  8
0
  6
CONTINUOUS
100
AcDbEllipse
 10
5.419089
 20
1.263759
 30
0.0
 11
0.0
 21
-0.0185282762037776
 31
0.0
210
0.0
220
0.0
230
1.0
 40
0.891938
 41
3.4637464245731451
 42
0.3216929179011014
  0
ELLIPSE
  5
E5
102
{ACAD_REACTORS
330
F0
102
}
100
AcDbEntity
  8
0
  6
CONTINUOUS
100
AcDbEllipse
 10
5.434765
 20
1.222759
 30
0.0
 11
0.0
 21
-0.0261893580212302
 31
0.0
210
0.0
220
0.0
230
1.0
 40
0.891938
 41
2.0340982428807717
 42
3.6054707355958087
  0
ELLIPSE
  5
E6
102
{ACAD_REACTORS
330
F0
102
}
100
AcDbEntity
  8
0
  6
CONTINUOUS
100
AcDbEllipse
 10
5.424311
 20
1.232506
 30
0.0
 11
0.0
 21
-0.0352039930241968
 31
0.0
210
0.0
220
0.0
230
1.0
 40
0.891938
 41
0.3394255493103855
 42
1.6264277668967162
  0
LINE
  5
E7
102
{ACAD_REACTORS
330
F0
102
}
100
AcDbEntity
  8
0
  6
CONTINUOUS
100
AcDbLine
 10
5.434765
 20
1.19931
 30
0.0
 11
5.466113
 21
1.164158
 31
0.0
  0
LINE
  5
E8
102
{ACAD_REACTORS
330
F0
102
}
100
AcDbEntity
  8
0
  6
CONTINUOUS
100
AcDbLine
 10
5.466113
 20
1.164158
 30
0.0
 11
5.466113
 21
1.15244
 31
0.0
  0
ELLIPSE
  5
E9
102
{ACAD_REACTORS
330
F0
102
}
100
AcDbEntity
  8
0
  6
CONTINUOUS
100
AcDbEllipse
 10
5.48792
 20
1.196271
 30
0.0
 11
0.0
 21
-0.0501883046647002
 31
0.0
210
0.0
220
0.0
230
1.0
 40
0.891938
 41
5.7743779241334536
 42
1.1523084918393716
  0
ELLIPSE
  5
EA
102
{ACAD_REACTORS
330
F0
102
}
100
AcDbEntity
  8
0
  6
CONTINUOUS
100
AcDbEllipse
 10
5.530572
 20
1.201266
 30
0.0
 11
0.0
 21
-0.0254663926047874
 31
0.0
210
0.0
220
0.0
230
1.0
 40
0.891938
 41
3.7086963183923167
 42
6.2060389686307493
  0
ELLIPSE
  5
EB
102
{ACAD_REACTORS
330
F0
102
}
100
AcDbEntity
  8
0
  6
CONTINUOUS
100
AcDbEllipse
 10
5.51315
 20
1.244229
 30
0.0
 11
-0.0000029599743513
 21
-0.0222663522419505
 31
0.0
210
0.0
220
0.0
230
1.0
 40
0.891938
 41
0.2661134103975571
 42
4.051497913814174
  0
LINE
  5
EC
102
{ACAD_REACTORS
330
F0
102
}
100
AcDbEntity
  8
0
  6
CONTINUOUS
100
AcDbLine
 10
5.497473
 20
1.257899
 30
0.0
 11
5.487022
 21
1.293052
 31
0.0
  0
ELLIPSE
  5
ED
102
{ACAD_REACTORS
330
F0
102
}
100
AcDbEntity
  8
0
  6
CONTINUOUS
100
AcDbEllipse
 10
5.481084
 20
1.323144
 30
0.0
 11
0.0
 21
-0.0308203113449123
 31
0.0
210
0.0
220
0.0
230
1.0
 40
0.891938
 41
0.2177237683677542
 42
1.3530725584270256
  0
ARC
  5
EE
102
{ACAD_REACTORS
330
F0
102
}
100
AcDbEntity
  8
0
  6
CONTINUOUS
100
AcDbCircle
 10
5.464489
 20
1.241952
 30
0.0
 40
0.086268
100
AcDbArc
 50
59.76795
 51
88.916893
  0
LINE
  5
EF
102
{ACAD_REACTORS
330
F0
102
}
100
AcDbEntity
  8
0
  6
CONTINUOUS
100
AcDbLine
 10
5.466119
 20
1.328204
 30
0.0
 11
5.455662
 21
1.304769
 31
0.0
  0
HATCH
  5
F0
102
{ACAD_REACTORS
330
89
102
}
100
AcDbEntity
  8
0
 62
     5
100
AcDbHatch
 10
0.0
 20
0.0
 30
0.0
210
0.0
220
0.0
230
1.0
  2
SOLID
 70
     1
 71
     1
 91
        1
 92
        1
 93
       16
 72
     1
 10
5.4556618505017163
 20
1.3047692024887778
 11
5.4556618505017163
 21
1.2930515671264804
 72
     1
 10
5.4556618505017163
 20
1.2930515671264804
 11
5.4347590463046167
 21
1.2930515671264804
 72
     3
 10
5.4349793601214396
 20
1.2871927494453317
 11
0.0052303431660146
 21
0.0
 40
1.121154
 50
267.585859
 51
92.414141
 73
     0
 72
     3
 10
5.4243076442060669
 20
1.2953380142754642
 11
0.0162865330995579
 21
0.0
 40
1.121154
 50
50.079767
 51
129.920233
 73
     0
 72
     3
 10
5.4190885655813146
 20
1.2637588295254707
 11
0.0165260702190607
 21
0.0
 40
1.121154
 50
108.458051
 51
288.431646
 73
     1
 72
     3
 10
5.4347650663122291
 20
1.2227592517248278
 11
0.0233592788066668
 21
0.0
 40
1.121154
 50
243.421744
 51
333.454756
 73
     0
 72
     3
 10
5.4243106542098669
 20
1.2325059515159738
 11
0.0313997726669567
 21
0.0
 40
1.121154
 50
356.812553
 51
70.552349
 73
     0
 72
     1
 10
5.4347650663122264
 20
1.1993104842281084
 11
5.4661132526002643
 21
1.164157578141219
 72
     1
 10
5.4661132526002643
 20
1.164157578141219
 11
5.4661132526002643
 21
1.1524399427789216
 72
     3
 10
5.4879198232869308
 20
1.1962706989215373
 11
0.0447648468720119
 21
0.0
 40
1.121154
 50
240.847484
 51
336.022413
 73
     1
 72
     3
 10
5.5305722632919609
 20
1.2012658613354887
 11
0.022714438611784
 21
0.0
 40
1.121154
 50
94.42016
 51
237.507353
 73
     0
 72
     3
 10
5.5131502105788517
 20
1.2442290323647782
 11
0.0198602015981276
 21
-0.0000026401130595
 40
1.121154
 50
285.247175
 51
142.133731
 73
     1
 72
     1
 10
5.4974734789035216
 20
1.2578986610395899
 11
5.4870220768049718
 21
1.2930515671264804
 72
     3
 10
5.4810840683210831
 20
1.3231442621407872
 11
0.0274898012020939
 21
0.0
 40
1.121154
 50
282.474653
 51
347.525347
 73
     1
 72
     2
 10
5.4644885746590681
 20
1.2419517247317633
 40
0.0862681621250353
 50
59.76795
 51
88.916893
 73
     1
 72
     1
 10
5.466119272607874
 20
1.3282044732133689
 11
5.4556618505017163
 21
1.3047692024887778
 97
       16
330
E0
330
E1
330
E2
330
E3
330
E4
330
E5
330
E6
330
E7
330
E8
330
E9
330
EA
330
EB
330
EC
330
ED
330
EE
330
EF
 75
     0
 76
     1
 98
        0
  0
LWPOLYLINE
  5
F1
102
{ACAD_REACTORS
330
F7
102
}
100
AcDbEntity
  8
0
  6
CONTINUOUS
 62
     7
100
AcDbPolyline
 90
        4
 70
     1
 10
6.1
 20
3.18
 10
7.6
 20
3.18
 10
7.6
 20
3.68
 10
6.1
 20
3.68
  0
MTEXT
  5
F2
100
AcDbEntity
  8
0
100
AcDbMText
 10
6.85
 20
3.43
 30
0.0
 40
0.121339
 41
1.5
 71
     5
 72
     5
  1
\C7;\fArial|b0|i0|;\H0.12133881635964;Title
  0
LWPOLYLINE
  5
F3
102
{ACAD_REACTORS
330
F7
102
}
100
AcDbEntity
  8
0
  6
CONTINUOUS
 62
     7
100
AcDbPolyline
 90
        4
 70
     1
 10
6.1
 20
0.8
 10
7.6
 20
0.8
 10
7.6
 20
3.05
 10
6.1
 20
3.05
  0
MTEXT
  5
F4
100
AcDbEntity
  8
0
100
AcDbMText
 10
6.85
 20
1.925
 30
0.0
 40
0.121339
 41
1.5
 71
     5
 72
     5
  1
\C7;\fArial|b0|i0|;\H0.12133881635964;Page Specific \PContent
  0
LWPOLYLINE
  5
F5
102
{ACAD_REACTORS
330
F7
102
}
100
AcDbEntity
  8
0
  6
CONTINUOUS
100
AcDbPolyline
 90
        4
 70
     1
 10
4.35
 20
0.45
 10
4.6
 20
0.45
 10
4.6
 20
0.7
 10
4.35
 20
0.7
  0
CIRCLE
  5
F6
102
{ACAD_REACTORS
330
F7
102
}
100
AcDbEntity
  8
0
  6
CONTINUOUS
100
AcDbCircle
 10
4.480625
 20
0.572812
 30
0.0
 40
0.091797
  0
HATCH
  5
F7
102
{ACAD_REACTORS
330
89
102
}
100
AcDbEntity
  8
0
 62
     5
100
AcDbHatch
 10
0.0
 20
0.0
 30
0.0
210
0.0
220
0.0
230
1.0
  2
SOLID
 70
     1
 71
     1
 91
        1
 92
        1
 93
        1
 72
     2
 10
4.4806249999999999
 20
0.5728125
 40
0.091796875
 50
0.0
 51
360.0
 73
     1
 97
        4
330
F1
330
F3
330
F5
330
F6
 75
     0
 76
     1
 98
        0
  0
LINE
  5
F8
102
{ACAD_REACTORS
330
89
102
}
100
AcDbEntity
  8
0
  6
CONTINUOUS
100
AcDbLine
 10
4.439844
 20
0.614063
 30
0.0
 11
4.525781
 21
0.528125
 31
0.0
  0
LWPOLYLINE
  5
FA
102
{ACAD_REACTORS
330
FB
102
}
100
AcDbEntity
  8
FLOWCHART
  6
CONTINUOUS
100
AcDbPolyline
 90
        4
 70
     1
 10
0.1
 20
10.375
 10
2.9
 20
10.375
 10
2.9
 20
10.825
 10
0.1
 20
10.825
  0
HATCH
  5
FB
100
AcDbEntity
  8
FLOWCHART
 62
    30
100
AcDbHatch
 10
0.0
 20
0.0
 30
0.0
210
0.0
220
0.0
230
1.0
  2
SOLID
 70
     1
 71
     1
 91
        1
 92
        3
 72
     0
 73
     1
 93
        4
 10
0.1000000000000001
 20
10.375
 10
2.8999999999999999
 20
10.375
 10
2.8999999999999999
 20
10.824999999999999
 10
0.1000000000000001
 20
10.824999999999999
 97
        1
330
FA
 75
     0
 76
     1
 98
        0
  0
MTEXT
  5
FC
100
AcDbEntity
  8
FLOWCHART
100
AcDbMText
 10
1.5
 20
10.6
 30
0.0
 40
0.14156
 41
2.8
 71
     5
 72
     5
  1
\C134;\fArial|b0|i0|;\H0.14155963808298;Site Structure and Page Layout
  0
LINE
  5
FD
100
AcDbEntity
  8
CONNECTOR
  6
CONTINUOUS
100
AcDbLine
 10
4.85
 20
7.12
 30
0.0
 11
6.15
 21
7.12
 31
0.0
  0
MTEXT
  5
FF
100
AcDbEntity
  8
CONNECTOR
100
AcDbMText
 10
3.2
 20
7.125
 30
0.0
 40
0.121339
 41
3.9
 71
     5
 72
     5
  1
\C7;\fArial|b0|i0|;\H0.12133881635964; 
  0
LWPOLYLINE
  5
100
102
{ACAD_REACTORS
330
112
102
}
100
AcDbEntity
  8
0
  6
CONTINUOUS
 62
     7
100
AcDbPolyline
 90
        6
 70
     1
 10
1.25
 20
9.338837
 10
1.25
 20
4.755581
 42
0.471405
 10
1.405581
 20
4.6
 10
4.994419
 20
4.6
 42
0.471405
 10
5.15
 20
4.755581
 10
5.15
 20
9.338837
  0
MTEXT
  5
101
100
AcDbEntity
  8
0
100
AcDbMText
 10
3.2
 20
6.969419
 30
0.0
 40
0.121339
 41
3.9
 71
     5
 72
     5
  1
\C7;\fArial|b0|i0|;\H0.12133881635964; 
  0
LWPOLYLINE
  5
102
102
{ACAD_REACTORS
330
112
102
}
100
AcDbEntity
  8
0
  6
CONTINUOUS
 62
     7
100
AcDbPolyline
 90
        6
 70
     1
 10
1.25
 20
9.494419
 10
1.25
 20
9.338837
 10
5.15
 20
9.338837
 10
5.15
 20
9.494419
 42
0.471405
 10
4.994419
 20
9.65
 10
1.405581
 20
9.65
 42
0.471405
  0
MTEXT
  5
103
100
AcDbEntity
  8
0
100
AcDbMText
 10
3.2
 20
9.494419
 30
0.0
 40
0.121339
 41
3.9
 71
     5
 72
     5
  1
\C7;\fArial|b0|i0|;\H0.12133881635964;Basic Site Structure
  0
LWPOLYLINE
  5
104
102
{ACAD_REACTORS
330
112
102
}
100
AcDbEntity
  8
0
  6
CONTINUOUS
 62
     7
100
AcDbPolyline
 90
        8
 70
     1
 10
1.825
 20
8.75
 10
2.575
 20
8.75
 42
0.414214
 10
2.7
 20
8.875
 10
2.7
 20
9.125
 42
0.414214
 10
2.575
 20
9.25
 10
1.825
 20
9.25
 42
0.414214
 10
1.7
 20
9.125
 10
1.7
 20
8.875
 42
0.414214
  0
MTEXT
  5
105
100
AcDbEntity
  8
0
100
AcDbMText
 10
2.2
 20
9.0
 30
0.0
 40
0.121339
 41
1.0
 71
     5
 72
     5
  1
\C7;\fArial|b0|i0|;\H0.12133881635964;General\PHomepage
  0
LWPOLYLINE
  5
106
102
{ACAD_REACTORS
330
FE
102
}
100
AcDbEntity
  8
CONNECTOR
  6
CONTINUOUS
100
AcDbPolyline
 90
        3
 70
     0
 10
2.2
 20
8.75
 10
2.2
 20
7.12
 10
3.115154
 20
7.12
  0
LWPOLYLINE
  5
107
102
{ACAD_REACTORS
330
FE
102
}
100
AcDbEntity
  8
CONNECTOR
  6
CONTINUOUS
100
AcDbPolyline
 90
        3
 70
     0
 10
2.2
 20
8.75
 10
2.2
 20
8.08
 10
3.115154
 20
8.08
  0
LWPOLYLINE
  5
108
102
{ACAD_REACTORS
330
FE
102
}
100
AcDbEntity
  8
CONNECTOR
  6
CONTINUOUS
100
AcDbPolyline
 90
        3
 70
     0
 10
2.2
 20
8.75
 10
2.2
 20
7.76
 10
3.115154
 20
7.76
  0
LWPOLYLINE
  5
109
102
{ACAD_REACTORS
330
FE
102
}
100
AcDbEntity
  8
CONNECTOR
  6
CONTINUOUS
100
AcDbPolyline
 90
        3
 70
     0
 10
2.2
 20
8.75
 10
2.2
 20
7.44
 10
3.115154
 20
7.44
  0
LWPOLYLINE
  5
10A
102
{ACAD_REACTORS
330
FE
102
}
100
AcDbEntity
  8
CONNECTOR
  6
CONTINUOUS
100
AcDbPolyline
 90
        3
 70
     0
 10
2.2
 20
8.75
 10
2.2
 20
6.8
 10
3.115154
 20
6.8
  0
LWPOLYLINE
  5
10B
102
{ACAD_REACTORS
330
FE
102
}
100
AcDbEntity
  8
CONNECTOR
  6
CONTINUOUS
100
AcDbPolyline
 90
        3
 70
     0
 10
2.2
 20
8.75
 10
2.2
 20
5.925
 10
3.1
 20
5.925
  0
LWPOLYLINE
  5
10C
102
{ACAD_REACTORS
330
FE
102
}
100
AcDbEntity
  8
CONNECTOR
  6
CONTINUOUS
100
AcDbPolyline
 90
        3
 70
     0
 10
2.2
 20
8.75
 10
2.2
 20
5.591667
 10
3.115154
 20
5.591667
  0
LWPOLYLINE
  5
10D
102
{ACAD_REACTORS
330
112
102
}
100
AcDbEntity
  8
0
  6
CONTINUOUS
100
AcDbPolyline
 90
        4
 70
     1
 10
3.365154
 20
8.152247
 10
3.726908
 20
8.152247
 10
3.726908
 20
8.007753
 10
3.365154
 20
8.007753
  0
MTEXT
  5
10E
100
AcDbEntity
  8
0
100
AcDbMText
 10
3.713019
 20
8.08
 30
0.0
 40
0.07078
 41
0.286754
 71
     6
 72
     5
  1
\C7;\fArial|b0|i0|;\H0.070779819041491; 
  0
LWPOLYLINE
  5
10F
102
{ACAD_REACTORS
330
112
102
}
100
AcDbEntity
  8
0
  6
CONTINUOUS
100
AcDbPolyline
 90
        4
 70
     1
 10
3.115154
 20
7.955
 10
3.365154
 20
7.955
 10
3.365154
 20
8.205
 10
3.115154
 20
8.205
  0
ELLIPSE
  5
110
102
{ACAD_REACTORS
330
112
102
}
100
AcDbEntity
  8
0
  6
CONTINUOUS
100
AcDbEllipse
 10
3.239919
 20
8.078862
 30
0.0
 11
0.0
 21
-0.1010100015940462
 31
0.0
210
0.0
220
0.0
230
1.0
 40
0.90879
 41
1.5707963267948961
 42
4.7123889803847039
  0
ELLIPSE
  5
111
102
{ACAD_REACTORS
330
112
102
}
100
AcDbEntity
  8
0
  6
CONTINUOUS
100
AcDbEllipse
 10
3.239919
 20
8.078862
 30
0.0
 11
0.0
 21
-0.1010100015940462
 31
0.0
210
0.0
220
0.0
230
1.0
 40
0.90879
 41
4.7123889803846897
 42
1.5707963267948961
  0
HATCH
  5
112
102
{ACAD_REACTORS
330
FE
102
}
100
AcDbEntity
  8
0
 62
     3
100
AcDbHatch
 10
0.0
 20
0.0
 30
0.0
210
0.0
220
0.0
230
1.0
  2

 70
     1
 71
     1
 91
        1
 92
        1
 93
        2
 72
     3
 10
3.2399193507853763
 20
8.0788616821511763
 11
0.091796875
 21
0.0
 40
1.100364
 50
180.0
 51
0.0
 73
     0
 72
     3
 10
3.2399193507853763
 20
8.0788616821511763
 11
0.091796875
 21
0.0
 40
1.100364
 50
0.0
 51
180.0
 73
     0
 97
        7
330
100
330
102
330
104
330
10D
330
10F
330
110
330
111
 75
     0
 76
     1
 98
        0
  0
LINE
  5
113
102
{ACAD_REACTORS
330
123
102
}
100
AcDbEntity
  8
0
  6
CONTINUOUS
100
AcDbLine
 10
3.227204
 20
8.149769
 30
0.0
 11
3.227204
 21
8.138052
 31
0.0
  0
LINE
  5
114
102
{ACAD_REACTORS
330
123
102
}
100
AcDbEntity
  8
0
  6
CONTINUOUS
100
AcDbLine
 10
3.227204
 20
8.138052
 30
0.0
 11
3.206302
 21
8.138052
 31
0.0
  0
ELLIPSE
  5
115
102
{ACAD_REACTORS
330
123
102
}
100
AcDbEntity
  8
0
  6
CONTINUOUS
100
AcDbEllipse
 10
3.206522
 20
8.132193
 30
0.0
 11
0.0
 21
-0.0058640222107182
 31
0.0
210
0.0
220
0.0
230
1.0
 40
0.891938
 41
6.2410505921570314
 42
3.1837273686123493
  0
ELLIPSE
  5
116
102
{ACAD_REACTORS
330
123
102
}
100
AcDbEntity
  8
0
  6
CONTINUOUS
100
AcDbEllipse
 10
3.19585
 20
8.140338
 30
0.0
 11
0.0
 21
-0.0182597181102699
 31
0.0
210
0.0
220
0.0
230
1.0
 40
0.891938
 41
5.5864458116479057
 42
0.6967394955316993
  0
ELLIPSE
  5
117
102
{ACAD_REACTORS
330
123
102
}
100
AcDbEntity
  8
0
  6
CONTINUOUS
100
AcDbEllipse
 10
3.190631
 20
8.108759
 30
0.0
 11
0.0
 21
-0.0185282762037776
 31
0.0
210
0.0
220
0.0
230
1.0
 40
0.891938
 41
3.4637464245731451
 42
0.3216929179011014
  0
ELLIPSE
  5
118
102
{ACAD_REACTORS
330
123
102
}
100
AcDbEntity
  8
0
  6
CONTINUOUS
100
AcDbEllipse
 10
3.206308
 20
8.067759
 30
0.0
 11
0.0
 21
-0.0261893580212302
 31
0.0
210
0.0
220
0.0
230
1.0
 40
0.891938
 41
2.0340982428807717
 42
3.6054707355958087
  0
ELLIPSE
  5
119
102
{ACAD_REACTORS
330
123
102
}
100
AcDbEntity
  8
0
  6
CONTINUOUS
100
AcDbEllipse
 10
3.195853
 20
8.077506
 30
0.0
 11
0.0
 21
-0.0352039930241968
 31
0.0
210
0.0
220
0.0
230
1.0
 40
0.891938
 41
0.3394255493103855
 42
1.6264277668967162
  0
LINE
  5
11A
102
{ACAD_REACTORS
330
123
102
}
100
AcDbEntity
  8
0
  6
CONTINUOUS
100
AcDbLine
 10
3.206308
 20
8.04431
 30
0.0
 11
3.237656
 21
8.009158
 31
0.0
  0
LINE
  5
11B
102
{ACAD_REACTORS
330
123
102
}
100
AcDbEntity
  8
0
  6
CONTINUOUS
100
AcDbLine
 10
3.237656
 20
8.009158
 30
0.0
 11
3.237656
 21
7.99744
 31
0.0
  0
ELLIPSE
  5
11C
102
{ACAD_REACTORS
330
123
102
}
100
AcDbEntity
  8
0
  6
CONTINUOUS
100
AcDbEllipse
 10
3.259462
 20
8.041271
 30
0.0
 11
0.0
 21
-0.0501883046647002
 31
0.0
210
0.0
220
0.0
230
1.0
 40
0.891938
 41
5.7743779241334536
 42
1.1523084918393716
  0
ELLIPSE
  5
11D
102
{ACAD_REACTORS
330
123
102
}
100
AcDbEntity
  8
0
  6
CONTINUOUS
100
AcDbEllipse
 10
3.302115
 20
8.046266
 30
0.0
 11
0.0
 21
-0.0254663926047874
 31
0.0
210
0.0
220
0.0
230
1.0
 40
0.891938
 41
3.7086963183923167
 42
6.2060389686307493
  0
ELLIPSE
  5
11E
102
{ACAD_REACTORS
330
123
102
}
100
AcDbEntity
  8
0
  6
CONTINUOUS
100
AcDbEllipse
 10
3.284693
 20
8.089229
 30
0.0
 11
-0.0000029599743513
 21
-0.0222663522419505
 31
0.0
210
0.0
220
0.0
230
1.0
 40
0.891938
 41
0.2661134103975571
 42
4.051497913814174
  0
LINE
  5
11F
102
{ACAD_REACTORS
330
123
102
}
100
AcDbEntity
  8
0
  6
CONTINUOUS
100
AcDbLine
 10
3.269016
 20
8.102899
 30
0.0
 11
3.258565
 21
8.138052
 31
0.0
  0
ELLIPSE
  5
120
102
{ACAD_REACTORS
330
123
102
}
100
AcDbEntity
  8
0
  6
CONTINUOUS
100
AcDbEllipse
 10
3.252627
 20
8.168144
 30
0.0
 11
0.0
 21
-0.0308203113449123
 31
0.0
210
0.0
220
0.0
230
1.0
 40
0.891938
 41
0.2177237683677542
 42
1.3530725584270256
  0
ARC
  5
121
102
{ACAD_REACTORS
330
123
102
}
100
AcDbEntity
  8
0
  6
CONTINUOUS
100
AcDbCircle
 10
3.236031
 20
8.086952
 30
0.0
 40
0.086268
100
AcDbArc
 50
59.76795
 51
88.916893
  0
LINE
  5
122
102
{ACAD_REACTORS
330
123
102
}
100
AcDbEntity
  8
0
  6
CONTINUOUS
100
AcDbLine
 10
3.237662
 20
8.173204
 30
0.0
 11
3.227204
 21
8.149769
 31
0.0
  0
HATCH
  5
123
102
{ACAD_REACTORS
330
FE
102
}
100
AcDbEntity
  8
0
 62
     5
100
AcDbHatch
 10
0.0
 20
0.0
 30
0.0
210
0.0
220
0.0
230
1.0
  2
SOLID
 70
     1
 71
     1
 91
        1
 92
        1
 93
       16
 72
     1
 10
3.2272044651759817
 20
8.1497692024887787
 11
3.2272044651759817
 21
8.1380515671264817
 72
     1
 10
3.2272044651759817
 20
8.1380515671264817
 11
3.2063016609788821
 21
8.1380515671264817
 72
     3
 10
3.2065219747957054
 20
8.1321927494453323
 11
0.0052303431660146
 21
0.0
 40
1.121154
 50
267.585859
 51
92.414141
 73
     0
 72
     3
 10
3.1958502588803328
 20
8.140338014275466
 11
0.0162865330995579
 21
0.0
 40
1.121154
 50
50.079767
 51
129.920233
 73
     0
 72
     3
 10
3.19063118025558
 20
8.1087588295254722
 11
0.0165260702190607
 21
0.0
 40
1.121154
 50
108.458051
 51
288.431646
 73
     1
 72
     3
 10
3.2063076809864945
 20
8.0677592517248282
 11
0.0233592788066668
 21
0.0
 40
1.121154
 50
243.421744
 51
333.454756
 73
     0
 72
     3
 10
3.1958532688841323
 20
8.0775059515159739
 11
0.0313997726669567
 21
0.0
 40
1.121154
 50
356.812553
 51
70.552349
 73
     0
 72
     1
 10
3.2063076809864919
 20
8.0443104842281095
 11
3.2376558672745297
 21
8.0091575781412203
 72
     1
 10
3.2376558672745297
 20
8.0091575781412203
 11
3.2376558672745297
 21
7.9974399427789225
 72
     3
 10
3.2594624379611967
 20
8.0412706989215383
 11
0.0447648468720119
 21
0.0
 40
1.121154
 50
240.847484
 51
336.022413
 73
     1
 72
     3
 10
3.3021148779662259
 20
8.04626586133549
 11
0.022714438611784
 21
0.0
 40
1.121154
 50
94.42016
 51
237.507353
 73
     0
 72
     3
 10
3.2846928252531171
 20
8.0892290323647789
 11
0.0198602015981276
 21
-0.0000026401130595
 40
1.121154
 50
285.247175
 51
142.133731
 73
     1
 72
     1
 10
3.269016093577787
 20
8.1028986610395908
 11
3.2585646914792372
 21
8.1380515671264817
 72
     3
 10
3.252626682995349
 20
8.1681442621407889
 11
0.0274898012020939
 21
0.0
 40
1.121154
 50
282.474653
 51
347.525347
 73
     1
 72
     2
 10
3.2360311893333336
 20
8.0869517247317653
 40
0.0862681621250353
 50
59.76795
 51
88.916893
 73
     1
 72
     1
 10
3.2376618872821394
 20
8.1732044732133708
 11
3.2272044651759817
 21
8.1497692024887787
 97
       16
330
113
330
114
330
115
330
116
330
117
330
118
330
119
330
11A
330
11B
330
11C
330
11D
330
11E
330
11F
330
120
330
121
330
122
 75
     0
 76
     1
 98
        0
  0
LWPOLYLINE
  5
124
102
{ACAD_REACTORS
330
12B
102
}
100
AcDbEntity
  8
0
  6
CONTINUOUS
 62
     7
100
AcDbPolyline
 90
        4
 70
     1
 10
4.85
 20
8.205
 10
4.85
 20
7.955
 10
3.35
 20
7.955
 10
3.35
 20
8.205
  0
MTEXT
  5
125
100
AcDbEntity
  8
0
100
AcDbMText
 10
4.794444
 20
8.08
 30
0.0
 40
0.121339
 41
1.75
 71
     6
 72
     5
  1
\C94;\fArial|b0|i0|;\H0.12133881635964;About Us
  0
LWPOLYLINE
  5
126
102
{ACAD_REACTORS
330
12B
102
}
100
AcDbEntity
  8
0
  6
CONTINUOUS
100
AcDbPolyline
 90
        4
 70
     1
 10
3.365154
 20
7.832247
 10
3.726908
 20
7.832247
 10
3.726908
 20
7.687753
 10
3.365154
 20
7.687753
  0
MTEXT
  5
127
100
AcDbEntity
  8
0
100
AcDbMText
 10
3.713019
 20
7.76
 30
0.0
 40
0.07078
 41
0.286754
 71
     6
 72
     5
  1
\C7;\fArial|b0|i0|;\H0.070779819041491; 
  0
LWPOLYLINE
  5
128
102
{ACAD_REACTORS
330
12B
102
}
100
AcDbEntity
  8
0
  6
CONTINUOUS
100
AcDbPolyline
 90
        4
 70
     1
 10
3.115154
 20
7.635
 10
3.365154
 20
7.635
 10
3.365154
 20
7.885
 10
3.115154
 20
7.885
  0
ELLIPSE
  5
129
102
{ACAD_REACTORS
330
12B
102
}
100
AcDbEntity
  8
0
  6
CONTINUOUS
100
AcDbEllipse
 10
3.239919
 20
7.758862
 30
0.0
 11
0.0
 21
-0.1010100015940462
 31
0.0
210
0.0
220
0.0
230
1.0
 40
0.90879
 41
1.5707963267948961
 42
4.7123889803847039
  0
ELLIPSE
  5
12A
102
{ACAD_REACTORS
330
12B
102
}
100
AcDbEntity
  8
0
  6
CONTINUOUS
100
AcDbEllipse
 10
3.239919
 20
7.758862
 30
0.0
 11
0.0
 21
-0.1010100015940462
 31
0.0
210
0.0
220
0.0
230
1.0
 40
0.90879
 41
4.7123889803846897
 42
1.5707963267948961
  0
HATCH
  5
12B
102
{ACAD_REACTORS
330
FE
102
}
100
AcDbEntity
  8
0
 62
     3
100
AcDbHatch
 10
0.0
 20
0.0
 30
0.0
210
0.0
220
0.0
230
1.0
  2

 70
     1
 71
     1
 91
        1
 92
        1
 93
        2
 72
     3
 10
3.2399193507853763
 20
7.758861682151176
 11
0.091796875
 21
0.0
 40
1.100364
 50
180.0
 51
0.0
 73
     0
 72
     3
 10
3.2399193507853763
 20
7.758861682151176
 11
0.091796875
 21
0.0
 40
1.100364
 50
0.0
 51
180.0
 73
     0
 97
        5
330
124
330
126
330
128
330
129
330
12A
 75
     0
 76
     1
 98
        0
  0
LINE
  5
12C
102
{ACAD_REACTORS
330
13C
102
}
100
AcDbEntity
  8
0
  6
CONTINUOUS
100
AcDbLine
 10
3.227204
 20
7.829769
 30
0.0
 11
3.227204
 21
7.818052
 31
0.0
  0
LINE
  5
12D
102
{ACAD_REACTORS
330
13C
102
}
100
AcDbEntity
  8
0
  6
CONTINUOUS
100
AcDbLine
 10
3.227204
 20
7.818052
 30
0.0
 11
3.206302
 21
7.818052
 31
0.0
  0
ELLIPSE
  5
12E
102
{ACAD_REACTORS
330
13C
102
}
100
AcDbEntity
  8
0
  6
CONTINUOUS
100
AcDbEllipse
 10
3.206522
 20
7.812193
 30
0.0
 11
0.0
 21
-0.0058640222107182
 31
0.0
210
0.0
220
0.0
230
1.0
 40
0.891938
 41
6.2410505921570314
 42
3.1837273686123493
  0
ELLIPSE
  5
12F
102
{ACAD_REACTORS
330
13C
102
}
100
AcDbEntity
  8
0
  6
CONTINUOUS
100
AcDbEllipse
 10
3.19585
 20
7.820338
 30
0.0
 11
0.0
 21
-0.0182597181102699
 31
0.0
210
0.0
220
0.0
230
1.0
 40
0.891938
 41
5.5864458116479057
 42
0.6967394955316993
  0
ELLIPSE
  5
130
102
{ACAD_REACTORS
330
13C
102
}
100
AcDbEntity
  8
0
  6
CONTINUOUS
100
AcDbEllipse
 10
3.190631
 20
7.788759
 30
0.0
 11
0.0
 21
-0.0185282762037776
 31
0.0
210
0.0
220
0.0
230
1.0
 40
0.891938
 41
3.4637464245731451
 42
0.3216929179011014
  0
ELLIPSE
  5
131
102
{ACAD_REACTORS
330
13C
102
}
100
AcDbEntity
  8
0
  6
CONTINUOUS
100
AcDbEllipse
 10
3.206308
 20
7.747759
 30
0.0
 11
0.0
 21
-0.0261893580212302
 31
0.0
210
0.0
220
0.0
230
1.0
 40
0.891938
 41
2.0340982428807717
 42
3.6054707355958087
  0
ELLIPSE
  5
132
102
{ACAD_REACTORS
330
13C
102
}
100
AcDbEntity
  8
0
  6
CONTINUOUS
100
AcDbEllipse
 10
3.195853
 20
7.757506
 30
0.0
 11
0.0
 21
-0.0352039930241968
 31
0.0
210
0.0
220
0.0
230
1.0
 40
0.891938
 41
0.3394255493103855
 42
1.6264277668967162
  0
LINE
  5
133
102
{ACAD_REACTORS
330
13C
102
}
100
AcDbEntity
  8
0
  6
CONTINUOUS
100
AcDbLine
 10
3.206308
 20
7.72431
 30
0.0
 11
3.237656
 21
7.689158
 31
0.0
  0
LINE
  5
134
102
{ACAD_REACTORS
330
13C
102
}
100
AcDbEntity
  8
0
  6
CONTINUOUS
100
AcDbLine
 10
3.237656
 20
7.689158
 30
0.0
 11
3.237656
 21
7.67744
 31
0.0
  0
ELLIPSE
  5
135
102
{ACAD_REACTORS
330
13C
102
}
100
AcDbEntity
  8
0
  6
CONTINUOUS
100
AcDbEllipse
 10
3.259462
 20
7.721271
 30
0.0
 11
0.0
 21
-0.0501883046647002
 31
0.0
210
0.0
220
0.0
230
1.0
 40
0.891938
 41
5.7743779241334536
 42
1.1523084918393716
  0
ELLIPSE
  5
136
102
{ACAD_REACTORS
330
13C
102
}
100
AcDbEntity
  8
0
  6
CONTINUOUS
100
AcDbEllipse
 10
3.302115
 20
7.726266
 30
0.0
 11
0.0
 21
-0.0254663926047874
 31
0.0
210
0.0
220
0.0
230
1.0
 40
0.891938
 41
3.7086963183923167
 42
6.2060389686307493
  0
ELLIPSE
  5
137
102
{ACAD_REACTORS
330
13C
102
}
100
AcDbEntity
  8
0
  6
CONTINUOUS
100
AcDbEllipse
 10
3.284693
 20
7.769229
 30
0.0
 11
-0.0000029599743513
 21
-0.0222663522419505
 31
0.0
210
0.0
220
0.0
230
1.0
 40
0.891938
 41
0.2661134103975571
 42
4.051497913814174
  0
LINE
  5
138
102
{ACAD_REACTORS
330
13C
102
}
100
AcDbEntity
  8
0
  6
CONTINUOUS
100
AcDbLine
 10
3.269016
 20
7.782899
 30
0.0
 11
3.258565
 21
7.818052
 31
0.0
  0
ELLIPSE
  5
139
102
{ACAD_REACTORS
330
13C
102
}
100
AcDbEntity
  8
0
  6
CONTINUOUS
100
AcDbEllipse
 10
3.252627
 20
7.848144
 30
0.0
 11
0.0
 21
-0.0308203113449123
 31
0.0
210
0.0
220
0.0
230
1.0
 40
0.891938
 41
0.2177237683677542
 42
1.3530725584270256
  0
ARC
  5
13A
102
{ACAD_REACTORS
330
13C
102
}
100
AcDbEntity
  8
0
  6
CONTINUOUS
100
AcDbCircle
 10
3.236031
 20
7.766952
 30
0.0
 40
0.086268
100
AcDbArc
 50
59.76795
 51
88.916893
  0
LINE
  5
13B
102
{ACAD_REACTORS
330
13C
102
}
100
AcDbEntity
  8
0
  6
CONTINUOUS
100
AcDbLine
 10
3.237662
 20
7.853204
 30
0.0
 11
3.227204
 21
7.829769
 31
0.0
  0
HATCH
  5
13C
102
{ACAD_REACTORS
330
FE
102
}
100
AcDbEntity
  8
0
 62
     5
100
AcDbHatch
 10
0.0
 20
0.0
 30
0.0
210
0.0
220
0.0
230
1.0
  2
SOLID
 70
     1
 71
     1
 91
        1
 92
        1
 93
       16
 72
     1
 10
3.2272044651759817
 20
7.8297692024887784
 11
3.2272044651759817
 21
7.8180515671264814
 72
     1
 10
3.2272044651759817
 20
7.8180515671264814
 11
3.2063016609788821
 21
7.8180515671264814
 72
     3
 10
3.2065219747957054
 20
7.8121927494453329
 11
0.0052303431660146
 21
0.0
 40
1.121154
 50
267.585859
 51
92.414141
 73
     0
 72
     3
 10
3.1958502588803328
 20
7.8203380142754648
 11
0.0162865330995579
 21
0.0
 40
1.121154
 50
50.079767
 51
129.920233
 73
     0
 72
     3
 10
3.19063118025558
 20
7.7887588295254711
 11
0.0165260702190607
 21
0.0
 40
1.121154
 50
108.458051
 51
288.431646
 73
     1
 72
     3
 10
3.2063076809864945
 20
7.7477592517248288
 11
0.0233592788066668
 21
0.0
 40
1.121154
 50
243.421744
 51
333.454756
 73
     0
 72
     3
 10
3.1958532688841323
 20
7.7575059515159746
 11
0.0313997726669567
 21
0.0
 40
1.121154
 50
356.812553
 51
70.552349
 73
     0
 72
     1
 10
3.2063076809864919
 20
7.7243104842281092
 11
3.2376558672745297
 21
7.68915757814122
 72
     1
 10
3.2376558672745297
 20
7.68915757814122
 11
3.2376558672745297
 21
7.6774399427789222
 72
     3
 10
3.2594624379611967
 20
7.7212706989215381
 11
0.0447648468720119
 21
0.0
 40
1.121154
 50
240.847484
 51
336.022413
 73
     1
 72
     3
 10
3.3021148779662259
 20
7.7262658613354898
 11
0.022714438611784
 21
0.0
 40
1.121154
 50
94.42016
 51
237.507353
 73
     0
 72
     3
 10
3.2846928252531171
 20
7.7692290323647786
 11
0.0198602015981276
 21
-0.0000026401130595
 40
1.121154
 50
285.247175
 51
142.133731
 73
     1
 72
     1
 10
3.269016093577787
 20
7.7828986610395905
 11
3.2585646914792372
 21
7.8180515671264814
 72
     3
 10
3.252626682995349
 20
7.8481442621407878
 11
0.0274898012020939
 21
0.0
 40
1.121154
 50
282.474653
 51
347.525347
 73
     1
 72
     2
 10
3.2360311893333336
 20
7.7669517247317641
 40
0.0862681621250353
 50
59.76795
 51
88.916893
 73
     1
 72
     1
 10
3.2376618872821394
 20
7.8532044732133697
 11
3.2272044651759817
 21
7.8297692024887784
 97
       16
330
12C
330
12D
330
12E
330
12F
330
130
330
131
330
132
330
133
330
134
330
135
330
136
330
137
330
138
330
139
330
13A
330
13B
 75
     0
 76
     1
 98
        0
  0
LWPOLYLINE
  5
13D
102
{ACAD_REACTORS
330
143
102
}
100
AcDbEntity
  8
0
  6
CONTINUOUS
 62
     7
100
AcDbPolyline
 90
        4
 70
     1
 10
4.85
 20
7.885
 10
4.85
 20
7.635
 10
3.35
 20
7.635
 10
3.35
 20
7.885
  0
MTEXT
  5
13E
100
AcDbEntity
  8
0
100
AcDbMText
 10
4.794444
 20
7.76
 30
0.0
 40
0.121339
 41
1.75
 71
     6
 72
     5
  1
\C7;\fArial|b0|i0|;\H0.12133881635964;Diabetic Shop
  0
LWPOLYLINE
  5
13F
102
{ACAD_REACTORS
330
143
102
}
100
AcDbEntity
  8
0
  6
CONTINUOUS
100
AcDbPolyline
 90
        4
 70
     1
 10
3.365154
 20
7.512247
 10
3.532419
 20
7.512247
 10
3.532419
 20
7.367753
 10
3.365154
 20
7.367753
  0
MTEXT
  5
140
100
AcDbEntity
  8
0
100
AcDbMText
 10
3.51853
 20
7.44
 30
0.0
 40
0.07078
 41
0.092266
 71
     6
 72
     5
  1
\C7;\fArial|b0|i0|;\H0.070779819041491; 
  0
LWPOLYLINE
  5
141
102
{ACAD_REACTORS
330
143
102
}
100
AcDbEntity
  8
0
  6
CONTINUOUS
100
AcDbPolyline
 90
        4
 70
     1
 10
3.115154
 20
7.315
 10
3.365154
 20
7.315
 10
3.365154
 20
7.565
 10
3.115154
 20
7.565
  0
LWPOLYLINE
  5
142
102
{ACAD_REACTORS
330
143
102
}
100
AcDbEntity
  8
0
  6
CONTINUOUS
100
AcDbPolyline
 90
        4
 70
     1
 10
3.152029
 20
7.406562
 10
3.269216
 20
7.406562
 10
3.269216
 20
7.52375
 10
3.152029
 20
7.52375
  0
HATCH
  5
143
102
{ACAD_REACTORS
330
FE
102
}
100
AcDbEntity
  8
0
 62
     5
100
AcDbHatch
 10
0.0
 20
0.0
 30
0.0
210
0.0
220
0.0
230
1.0
  2
SOLID
 70
     1
 71
     1
 91
        1
 92
        3
 72
     0
 73
     1
 93
        4
 10
3.1520287257853763
 20
7.4065624999999997
 10
3.2692162257853763
 20
7.4065624999999997
 10
3.2692162257853763
 20
7.5237499999999997
 10
3.1520287257853763
 20
7.5237499999999997
 97
        4
330
13D
330
13F
330
141
330
142
 75
     0
 76
     1
 98
        0
  0
CIRCLE
  5
144
102
{ACAD_REACTORS
330
145
102
}
100
AcDbEntity
  8
0
  6
CONTINUOUS
100
AcDbCircle
 10
3.269216
 20
7.437812
 30
0.0
 40
0.058594
  0
HATCH
  5
145
102
{ACAD_REACTORS
330
FE
102
}
100
AcDbEntity
  8
0
 62
    10
100
AcDbHatch
 10
0.0
 20
0.0
 30
0.0
210
0.0
220
0.0
230
1.0
  2
SOLID
 70
     1
 71
     1
 91
        1
 92
        1
 93
        1
 72
     2
 10
3.2692162257853763
 20
7.4378124999999997
 40
0.05859375
 50
0.0
 51
360.0
 73
     1
 97
        1
330
144
 75
     0
 76
     1
 98
        0
  0
LWPOLYLINE
  5
146
102
{ACAD_REACTORS
330
147
102
}
100
AcDbEntity
  8
0
  6
CONTINUOUS
100
AcDbPolyline
 90
        3
 70
     1
 10
3.17156
 20
7.351875
 10
3.237611
 20
7.459514
 10
3.292654
 20
7.351875
  0
HATCH
  5
147
102
{ACAD_REACTORS
330
FE
102
}
100
AcDbEntity
  8
0
 62
     2
100
AcDbHatch
 10
0.0
 20
0.0
 30
0.0
210
0.0
220
0.0
230
1.0
  2
SOLID
 70
     1
 71
     1
 91
        1
 92
        3
 72
     0
 73
     1
 93
        3
 10
3.1715599757853763
 20
7.3518749999999997
 10
3.237611112149013
 20
7.4595138888888899
 10
3.2926537257853763
 20
7.3518749999999997
 97
        1
330
146
 75
     0
 76
     1
 98
        0
  0
LWPOLYLINE
  5
148
102
{ACAD_REACTORS
330
14C
102
}
100
AcDbEntity
  8
0
  6
CONTINUOUS
 62
     7
100
AcDbPolyline
 90
        4
 70
     1
 10
4.85
 20
7.565
 10
4.85
 20
7.315
 10
3.35
 20
7.315
 10
3.35
 20
7.565
  0
MTEXT
  5
149
100
AcDbEntity
  8
0
100
AcDbMText
 10
4.794444
 20
7.44
 30
0.0
 40
0.121339
 41
1.75
 71
     6
 72
     5
  1
\C7;\fArial|b0|i0|;\H0.12133881635964;Insurance Plans
  0
MTEXT
  5
14A
100
AcDbEntity
  8
0
100
AcDbMText
 10
3.276254
 20
6.91442
 30
0.0
 40
0.080892
 41
0.072201
 71
     6
 72
     5
  1
\C7;\fArial|b0|i0|;\H0.08089161850512; 
  0
LWPOLYLINE
  5
14B
102
{ACAD_REACTORS
330
14C
102
}
100
AcDbEntity
  8
0
  6
CONTINUOUS
100
AcDbPolyline
 90
        4
 70
     1
 10
3.115922
 20
6.995651
 10
3.365154
 20
6.995651
 10
3.365154
 20
7.238794
 10
3.115922
 20
7.238794
  0
HATCH
  5
14C
102
{ACAD_REACTORS
330
FE
102
}
100
AcDbEntity
  8
0
 62
   134
100
AcDbHatch
 10
0.0
 20
0.0
 30
0.0
210
0.0
220
0.0
230
1.0
  2

 70
     1
 71
     1
 91
        1
 92
        3
 72
     0
 73
     1
 93
        4
 10
3.1159223259083513
 20
6.9956510416666671
 10
3.3651537257853761
 20
6.9956510416666671
 10
3.3651537257853761
 20
7.238794110606622
 10
3.1159223259083513
 20
7.238794110606622
 97
        2
330
148
330
14B
 75
     0
 76
     1
 98
        0
  0
LWPOLYLINE
  5
14D
102
{ACAD_REACTORS
330
14E
102
}
100
AcDbEntity
  8
0
  6
CONTINUOUS
100
AcDbPolyline
 90
        4
 70
     1
 10
3.115154
 20
7.017334
 10
3.350448
 20
7.017334
 10
3.350448
 20
7.245651
 10
3.115154
 20
7.245651
  0
HATCH
  5
14E
102
{ACAD_REACTORS
330
FE
102
}
100
AcDbEntity
  8
0
 62
   253
100
AcDbHatch
 10
0.0
 20
0.0
 30
0.0
210
0.0
220
0.0
230
1.0
  2
SOLID
 70
     1
 71
     1
 91
        1
 92
        3
 72
     0
 73
     1
 93
        4
 10
3.1151537257853761
 20
7.0173337696132938
 10
3.3504478434324363
 20
7.0173337696132938
 10
3.3504478434324363
 20
7.2456510416666662
 10
3.1151537257853761
 20
7.2456510416666662
 97
        1
330
14D
 75
     0
 76
     1
 98
        0
  0
LWPOLYLINE
  5
14F
102
{ACAD_REACTORS
330
150
102
}
100
AcDbEntity
  8
0
  6
CONTINUOUS
100
AcDbPolyline
 90
        6
 70
     1
 10
3.149587
 20
7.051989
 10
3.1832
 20
7.084606
 10
3.309251
 20
7.060143
 10
3.275637
 20
7.060143
 10
3.317654
 20
7.104991
 10
3.317654
 20
7.051989
  0
HATCH
  5
150
102
{ACAD_REACTORS
330
FE
102
}
100
AcDbEntity
  8
0
 62
   251
100
AcDbHatch
 10
0.0
 20
0.0
 30
0.0
210
0.0
220
0.0
230
1.0
  2
SOLID
 70
     1
 71
     1
 91
        1
 92
        3
 72
     0
 73
     1
 93
        6
 10
3.1495870112946998
 20
7.0519890698356811
 10
3.1832004566728513
 20
7.0846058229861626
 10
3.3092508768409195
 20
7.0601432581233006
 10
3.2756374314627679
 20
7.0601432581233006
 10
3.3176542381854572
 20
7.1049912937052131
 10
3.3176542381854572
 20
7.0519890698356811
 97
        1
330
14F
 75
     0
 76
     1
 98
        0
  0
LWPOLYLINE
  5
151
102
{ACAD_REACTORS
330
153
102
}
100
AcDbEntity
  8
0
  6
CONTINUOUS
100
AcDbPolyline
 90
        6
 70
     1
 10
3.317654
 20
7.102953
 10
3.284041
 20
7.070336
 10
3.15799
 20
7.094799
 10
3.191604
 20
7.094799
 10
3.149587
 20
7.049951
 10
3.149587
 20
7.102953
  0
LWPOLYLINE
  5
152
102
{ACAD_REACTORS
330
153
102
}
100
AcDbEntity
  8
0
  6
CONTINUOUS
100
AcDbPolyline
 90
        4
 70
     1
 10
3.15799
 20
7.058105
 10
3.309251
 20
7.058105
 10
3.309251
 20
7.094799
 10
3.15799
 20
7.094799
  0
HATCH
  5
153
102
{ACAD_REACTORS
330
FE
102
}
100
AcDbEntity
  8
0
 62
   253
100
AcDbHatch
 10
0.0
 20
0.0
 30
0.0
210
0.0
220
0.0
230
1.0
  2
SOLID
 70
     1
 71
     1
 91
        1
 92
        3
 72
     0
 73
     1
 93
        4
 10
3.1579903726392411
 20
7.0581047110513957
 10
3.3092508768409212
 20
7.0581047110513957
 10
3.3092508768409212
 20
7.0947985583456887
 10
3.1579903726392411
 20
7.0947985583456887
 97
        2
330
151
330
152
 75
     0
 76
     1
 98
        0
  0
LWPOLYLINE
  5
154
102
{ACAD_REACTORS
330
FE
102
}
100
AcDbEntity
  8
0
  6
CONTINUOUS
100
AcDbPolyline
 90
        4
 70
     1
 10
3.148767
 20
7.051062
 10
3.317654
 20
7.051062
 10
3.317654
 20
7.102953
 10
3.148767
 20
7.102953
  0
LWPOLYLINE
  5
155
102
{ACAD_REACTORS
330
158
102
}
100
AcDbEntity
  8
0
  6
CONTINUOUS
100
AcDbPolyline
 90
        4
 70
     1
 10
3.148409
 20
7.184766
 10
3.314683
 20
7.184766
 10
3.314683
 20
7.215209
 10
3.148409
 20
7.215209
  0
LWPOLYLINE
  5
156
102
{ACAD_REACTORS
330
158
102
}
100
AcDbEntity
  8
0
  6
CONTINUOUS
100
AcDbPolyline
 90
        4
 70
     1
 10
3.148409
 20
7.12997
 10
3.314683
 20
7.12997
 10
3.314683
 20
7.160413
 10
3.148409
 20
7.160413
  0
LWPOLYLINE
  5
157
102
{ACAD_REACTORS
330
158
102
}
100
AcDbEntity
  8
0
  6
CONTINUOUS
100
AcDbPolyline
 90
        6
 70
     1
 10
3.314683
 20
7.215209
 10
3.148409
 20
7.215209
 10
3.148409
 20
7.184766
 10
3.142134
 20
7.178678
 10
3.142134
 20
7.221297
 10
3.319075
 20
7.221297
  0
HATCH
  5
158
102
{ACAD_REACTORS
330
FE
102
}
100
AcDbEntity
  8
0
 62
   251
100
AcDbHatch
 10
0.0
 20
0.0
 30
0.0
210
0.0
220
0.0
230
1.0
  2
SOLID
 70
     1
 71
     1
 91
        2
 92
        3
 72
     0
 73
     1
 93
        6
 10
3.3146831375500825
 20
7.2152087387262167
 10
3.1484086277461616
 20
7.2152087387262167
 10
3.1484086277461616
 20
7.1847664357857672
 10
3.14213411794224
 20
7.1786779751976768
 10
3.14213411794224
 20
7.2212971993143071
 10
3.3190752944128272
 20
7.2212971993143071
 97
        3
330
155
330
156
330
157
 92
        3
 72
     0
 73
     1
 93
        6
 10
3.3146831375500825
 20
7.1604125934334073
 10
3.1484086277461616
 20
7.1604125934334073
 10
3.1484086277461616
 20
7.1299702904929569
 10
3.14213411794224
 20
7.1238818299048674
 10
3.14213411794224
 20
7.1665010540214968
 10
3.3190752944128272
 20
7.1665010540214968
 97
        1
330
159
 75
     0
 76
     1
 98
        0
  0
LWPOLYLINE
  5
159
102
{ACAD_REACTORS
330
158
102
}
100
AcDbEntity
  8
0
  6
CONTINUOUS
100
AcDbPolyline
 90
        6
 70
     1
 10
3.314683
 20
7.160413
 10
3.148409
 20
7.160413
 10
3.148409
 20
7.12997
 10
3.142134
 20
7.123882
 10
3.142134
 20
7.166501
 10
3.319075
 20
7.166501
  0
LWPOLYLINE
  5
15A
102
{ACAD_REACTORS
330
15B
102
}
100
AcDbEntity
  8
0
  6
CONTINUOUS
100
AcDbPolyline
 90
        6
 70
     1
 10
3.146526
 20
7.12997
 10
3.312801
 20
7.12997
 10
3.312801
 20
7.160413
 10
3.319075
 20
7.166501
 10
3.319075
 20
7.123882
 10
3.142134
 20
7.123882
  0
HATCH
  5
15B
102
{ACAD_REACTORS
330
FE
102
}
100
AcDbEntity
  8
0
 62
   254
100
AcDbHatch
 10
0.0
 20
0.0
 30
0.0
210
0.0
220
0.0
230
1.0
  2
SOLID
 70
     1
 71
     1
 91
        2
 92
        3
 72
     0
 73
     1
 93
        6
 10
3.1465262748049847
 20
7.1299702904929569
 10
3.312800784608906
 20
7.1299702904929569
 10
3.312800784608906
 20
7.1604125934334073
 10
3.3190752944128272
 20
7.1665010540214968
 10
3.3190752944128272
 20
7.1238818299048674
 10
3.14213411794224
 20
7.1238818299048674
 97
        1
330
15A
 92
        3
 72
     0
 73
     1
 93
        6
 10
3.1465262748049847
 20
7.1847664357857672
 10
3.312800784608906
 20
7.1847664357857672
 10
3.312800784608906
 20
7.2152087387262167
 10
3.3190752944128272
 20
7.2212971993143071
 10
3.3190752944128272
 20
7.1786779751976768
 10
3.14213411794224
 20
7.1786779751976768
 97
        1
330
15C
 75
     0
 76
     1
 98
        0
  0
LWPOLYLINE
  5
15C
102
{ACAD_REACTORS
330
15B
102
}
100
AcDbEntity
  8
0
  6
CONTINUOUS
100
AcDbPolyline
 90
        6
 70
     1
 10
3.146526
 20
7.184766
 10
3.312801
 20
7.184766
 10
3.312801
 20
7.215209
 10
3.319075
 20
7.221297
 10
3.319075
 20
7.178678
 10
3.142134
 20
7.178678
  0
LWPOLYLINE
  5
15D
102
{ACAD_REACTORS
330
164
102
}
100
AcDbEntity
  8
0
  6
CONTINUOUS
 62
     7
100
AcDbPolyline
 90
        4
 70
     1
 10
4.85
 20
7.245
 10
4.85
 20
6.995
 10
3.35
 20
6.995
 10
3.35
 20
7.245
  0
MTEXT
  5
15E
100
AcDbEntity
  8
0
100
AcDbMText
 10
4.794444
 20
7.12
 30
0.0
 40
0.121339
 41
1.75
 71
     6
 72
     5
  1
\C7;\fArial|b0|i0|;\H0.12133881635964;Prescription Refills
  0
LWPOLYLINE
  5
15F
102
{ACAD_REACTORS
330
164
102
}
100
AcDbEntity
  8
0
  6
CONTINUOUS
100
AcDbPolyline
 90
        4
 70
     1
 10
3.365154
 20
6.872247
 10
3.726908
 20
6.872247
 10
3.726908
 20
6.727753
 10
3.365154
 20
6.727753
  0
MTEXT
  5
160
100
AcDbEntity
  8
0
100
AcDbMText
 10
3.713019
 20
6.8
 30
0.0
 40
0.07078
 41
0.286754
 71
     6
 72
     5
  1
\C7;\fArial|b0|i0|;\H0.070779819041491; 
  0
LWPOLYLINE
  5
161
102
{ACAD_REACTORS
330
164
102
}
100
AcDbEntity
  8
0
  6
CONTINUOUS
100
AcDbPolyline
 90
        4
 70
     1
 10
3.115154
 20
6.675
 10
3.365154
 20
6.675
 10
3.365154
 20
6.925
 10
3.115154
 20
6.925
  0
ELLIPSE
  5
162
102
{ACAD_REACTORS
330
164
102
}
100
AcDbEntity
  8
0
  6
CONTINUOUS
100
AcDbEllipse
 10
3.239919
 20
6.798862
 30
0.0
 11
0.0
 21
-0.1010100015940462
 31
0.0
210
0.0
220
0.0
230
1.0
 40
0.90879
 41
1.5707963267948961
 42
4.7123889803847039
  0
ELLIPSE
  5
163
102
{ACAD_REACTORS
330
164
102
}
100
AcDbEntity
  8
0
  6
CONTINUOUS
100
AcDbEllipse
 10
3.239919
 20
6.798862
 30
0.0
 11
0.0
 21
-0.1010100015940462
 31
0.0
210
0.0
220
0.0
230
1.0
 40
0.90879
 41
4.7123889803846897
 42
1.5707963267948961
  0
HATCH
  5
164
102
{ACAD_REACTORS
330
FE
102
}
100
AcDbEntity
  8
0
 62
     3
100
AcDbHatch
 10
0.0
 20
0.0
 30
0.0
210
0.0
220
0.0
230
1.0
  2

 70
     1
 71
     1
 91
        1
 92
        1
 93
        2
 72
     3
 10
3.2399193507853763
 20
6.798861682151176
 11
0.091796875
 21
0.0
 40
1.100364
 50
180.0
 51
0.0
 73
     0
 72
     3
 10
3.2399193507853763
 20
6.798861682151176
 11
0.091796875
 21
0.0
 40
1.100364
 50
0.0
 51
180.0
 73
     0
 97
        5
330
15D
330
15F
330
161
330
162
330
163
 75
     0
 76
     1
 98
        0
  0
LINE
  5
165
102
{ACAD_REACTORS
330
175
102
}
100
AcDbEntity
  8
0
  6
CONTINUOUS
100
AcDbLine
 10
3.227204
 20
6.869769
 30
0.0
 11
3.227204
 21
6.858052
 31
0.0
  0
LINE
  5
166
102
{ACAD_REACTORS
330
175
102
}
100
AcDbEntity
  8
0
  6
CONTINUOUS
100
AcDbLine
 10
3.227204
 20
6.858052
 30
0.0
 11
3.206302
 21
6.858052
 31
0.0
  0
ELLIPSE
  5
167
102
{ACAD_REACTORS
330
175
102
}
100
AcDbEntity
  8
0
  6
CONTINUOUS
100
AcDbEllipse
 10
3.206522
 20
6.852193
 30
0.0
 11
0.0
 21
-0.0058640222107182
 31
0.0
210
0.0
220
0.0
230
1.0
 40
0.891938
 41
6.2410505921570314
 42
3.1837273686123493
  0
ELLIPSE
  5
168
102
{ACAD_REACTORS
330
175
102
}
100
AcDbEntity
  8
0
  6
CONTINUOUS
100
AcDbEllipse
 10
3.19585
 20
6.860338
 30
0.0
 11
0.0
 21
-0.0182597181102699
 31
0.0
210
0.0
220
0.0
230
1.0
 40
0.891938
 41
5.5864458116479057
 42
0.6967394955316993
  0
ELLIPSE
  5
169
102
{ACAD_REACTORS
330
175
102
}
100
AcDbEntity
  8
0
  6
CONTINUOUS
100
AcDbEllipse
 10
3.190631
 20
6.828759
 30
0.0
 11
0.0
 21
-0.0185282762037776
 31
0.0
210
0.0
220
0.0
230
1.0
 40
0.891938
 41
3.4637464245731451
 42
0.3216929179011014
  0
ELLIPSE
  5
16A
102
{ACAD_REACTORS
330
175
102
}
100
AcDbEntity
  8
0
  6
CONTINUOUS
100
AcDbEllipse
 10
3.206308
 20
6.787759
 30
0.0
 11
0.0
 21
-0.0261893580212302
 31
0.0
210
0.0
220
0.0
230
1.0
 40
0.891938
 41
2.0340982428807717
 42
3.6054707355958087
  0
ELLIPSE
  5
16B
102
{ACAD_REACTORS
330
175
102
}
100
AcDbEntity
  8
0
  6
CONTINUOUS
100
AcDbEllipse
 10
3.195853
 20
6.797506
 30
0.0
 11
0.0
 21
-0.0352039930241968
 31
0.0
210
0.0
220
0.0
230
1.0
 40
0.891938
 41
0.3394255493103855
 42
1.6264277668967162
  0
LINE
  5
16C
102
{ACAD_REACTORS
330
175
102
}
100
AcDbEntity
  8
0
  6
CONTINUOUS
100
AcDbLine
 10
3.206308
 20
6.76431
 30
0.0
 11
3.237656
 21
6.729158
 31
0.0
  0
LINE
  5
16D
102
{ACAD_REACTORS
330
175
102
}
100
AcDbEntity
  8
0
  6
CONTINUOUS
100
AcDbLine
 10
3.237656
 20
6.729158
 30
0.0
 11
3.237656
 21
6.71744
 31
0.0
  0
ELLIPSE
  5
16E
102
{ACAD_REACTORS
330
175
102
}
100
AcDbEntity
  8
0
  6
CONTINUOUS
100
AcDbEllipse
 10
3.259462
 20
6.761271
 30
0.0
 11
0.0
 21
-0.0501883046647002
 31
0.0
210
0.0
220
0.0
230
1.0
 40
0.891938
 41
5.7743779241334536
 42
1.1523084918393716
  0
ELLIPSE
  5
16F
102
{ACAD_REACTORS
330
175
102
}
100
AcDbEntity
  8
0
  6
CONTINUOUS
100
AcDbEllipse
 10
3.302115
 20
6.766266
 30
0.0
 11
0.0
 21
-0.0254663926047874
 31
0.0
210
0.0
220
0.0
230
1.0
 40
0.891938
 41
3.7086963183923167
 42
6.2060389686307493
  0
ELLIPSE
  5
170
102
{ACAD_REACTORS
330
175
102
}
100
AcDbEntity
  8
0
  6
CONTINUOUS
100
AcDbEllipse
 10
3.284693
 20
6.809229
 30
0.0
 11
-0.0000029599743513
 21
-0.0222663522419505
 31
0.0
210
0.0
220
0.0
230
1.0
 40
0.891938
 41
0.2661134103975571
 42
4.051497913814174
  0
LINE
  5
171
102
{ACAD_REACTORS
330
175
102
}
100
AcDbEntity
  8
0
  6
CONTINUOUS
100
AcDbLine
 10
3.269016
 20
6.822899
 30
0.0
 11
3.258565
 21
6.858052
 31
0.0
  0
ELLIPSE
  5
172
102
{ACAD_REACTORS
330
175
102
}
100
AcDbEntity
  8
0
  6
CONTINUOUS
100
AcDbEllipse
 10
3.252627
 20
6.888144
 30
0.0
 11
0.0
 21
-0.0308203113449123
 31
0.0
210
0.0
220
0.0
230
1.0
 40
0.891938
 41
0.2177237683677542
 42
1.3530725584270256
  0
ARC
  5
173
102
{ACAD_REACTORS
330
175
102
}
100
AcDbEntity
  8
0
  6
CONTINUOUS
100
AcDbCircle
 10
3.236031
 20
6.806952
 30
0.0
 40
0.086268
100
AcDbArc
 50
59.76795
 51
88.916893
  0
LINE
  5
174
102
{ACAD_REACTORS
330
175
102
}
100
AcDbEntity
  8
0
  6
CONTINUOUS
100
AcDbLine
 10
3.237662
 20
6.893204
 30
0.0
 11
3.227204
 21
6.869769
 31
0.0
  0
HATCH
  5
175
102
{ACAD_REACTORS
330
FE
102
}
100
AcDbEntity
  8
0
 62
     5
100
AcDbHatch
 10
0.0
 20
0.0
 30
0.0
210
0.0
220
0.0
230
1.0
  2
SOLID
 70
     1
 71
     1
 91
        1
 92
        1
 93
       16
 72
     1
 10
3.2272044651759817
 20
6.8697692024887784
 11
3.2272044651759817
 21
6.8580515671264815
 72
     1
 10
3.2272044651759817
 20
6.8580515671264815
 11
3.2063016609788821
 21
6.8580515671264815
 72
     3
 10
3.2065219747957054
 20
6.852192749445333
 11
0.0052303431660146
 21
0.0
 40
1.121154
 50
267.585859
 51
92.414141
 73
     0
 72
     3
 10
3.1958502588803328
 20
6.8603380142754649
 11
0.0162865330995579
 21
0.0
 40
1.121154
 50
50.079767
 51
129.920233
 73
     0
 72
     3
 10
3.19063118025558
 20
6.8287588295254711
 11
0.0165260702190607
 21
0.0
 40
1.121154
 50
108.458051
 51
288.431646
 73
     1
 72
     3
 10
3.2063076809864945
 20
6.7877592517248289
 11
0.0233592788066668
 21
0.0
 40
1.121154
 50
243.421744
 51
333.454756
 73
     0
 72
     3
 10
3.1958532688841323
 20
6.7975059515159746
 11
0.0313997726669567
 21
0.0
 40
1.121154
 50
356.812553
 51
70.552349
 73
     0
 72
     1
 10
3.2063076809864919
 20
6.7643104842281092
 11
3.2376558672745297
 21
6.7291575781412201
 72
     1
 10
3.2376558672745297
 20
6.7291575781412201
 11
3.2376558672745297
 21
6.7174399427789222
 72
     3
 10
3.2594624379611967
 20
6.7612706989215381
 11
0.0447648468720119
 21
0.0
 40
1.121154
 50
240.847484
 51
336.022413
 73
     1
 72
     3
 10
3.3021148779662259
 20
6.7662658613354898
 11
0.022714438611784
 21
0.0
 40
1.121154
 50
94.42016
 51
237.507353
 73
     0
 72
     3
 10
3.2846928252531171
 20
6.8092290323647786
 11
0.0198602015981276
 21
-0.0000026401130595
 40
1.121154
 50
285.247175
 51
142.133731
 73
     1
 72
     1
 10
3.269016093577787
 20
6.8228986610395905
 11
3.2585646914792372
 21
6.8580515671264815
 72
     3
 10
3.252626682995349
 20
6.8881442621407878
 11
0.0274898012020939
 21
0.0
 40
1.121154
 50
282.474653
 51
347.525347
 73
     1
 72
     2
 10
3.2360311893333336
 20
6.8069517247317641
 40
0.0862681621250353
 50
59.76795
 51
88.916893
 73
     1
 72
     1
 10
3.2376618872821394
 20
6.8932044732133697
 11
3.2272044651759817
 21
6.8697692024887784
 97
       16
330
165
330
166
330
167
330
168
330
169
330
16A
330
16B
330
16C
330
16D
330
16E
330
16F
330
170
330
171
330
172
330
173
330
174
 75
     0
 76
     1
 98
        0
  0
LWPOLYLINE
  5
176
102
{ACAD_REACTORS
330
17C
102
}
100
AcDbEntity
  8
0
  6
CONTINUOUS
 62
     7
100
AcDbPolyline
 90
        4
 70
     1
 10
4.85
 20
6.925
 10
4.85
 20
6.675
 10
3.35
 20
6.675
 10
3.35
 20
6.925
  0
MTEXT
  5
177
100
AcDbEntity
  8
0
100
AcDbMText
 10
4.794444
 20
6.8
 30
0.0
 40
0.121339
 41
1.75
 71
     6
 72
     5
  1
\C214;\fArial|b0|i0|;\H0.12133881635964;Contact Us
  0
LWPOLYLINE
  5
178
102
{ACAD_REACTORS
330
FE
102
}
100
AcDbEntity
  8
CONNECTOR
  6
CONTINUOUS
100
AcDbPolyline
 90
        3
 70
     0
 10
2.2
 20
8.75
 10
2.2
 20
5.258333
 10
3.1
 20
5.258333
  0
LWPOLYLINE
  5
179
102
{ACAD_REACTORS
330
FE
102
}
100
AcDbEntity
  8
CONNECTOR
  6
CONTINUOUS
100
AcDbPolyline
 90
        3
 70
     0
 10
2.2
 20
8.75
 10
2.2
 20
4.925
 10
3.117423
 20
4.925
  0
LWPOLYLINE
  5
17A
102
{ACAD_REACTORS
330
17C
102
}
100
AcDbEntity
  8
0
  6
CONTINUOUS
100
AcDbPolyline
 90
        4
 70
     1
 10
1.286568
 20
4.65
 10
1.536568
 20
4.65
 10
1.536568
 20
4.9
 10
1.286568
 20
4.9
  0
CIRCLE
  5
17B
102
{ACAD_REACTORS
330
17C
102
}
100
AcDbEntity
  8
0
  6
CONTINUOUS
100
AcDbCircle
 10
1.417193
 20
4.772812
 30
0.0
 40
0.091797
  0
HATCH
  5
17C
102
{ACAD_REACTORS
330
FE
102
}
100
AcDbEntity
  8
0
 62
     5
100
AcDbHatch
 10
0.0
 20
0.0
 30
0.0
210
0.0
220
0.0
230
1.0
  2
SOLID
 70
     1
 71
     1
 91
        1
 92
        1
 93
        1
 72
     2
 10
1.417192857530382
 20
4.7728124999999988
 40
0.091796875
 50
0.0
 51
360.0
 73
     1
 97
        3
330
176
330
17A
330
17B
 75
     0
 76
     1
 98
        0
  0
LINE
  5
17D
102
{ACAD_REACTORS
330
FE
102
}
100
AcDbEntity
  8
0
  6
CONTINUOUS
100
AcDbLine
 10
1.376412
 20
4.814062
 30
0.0
 11
1.462349
 21
4.728125
 31
0.0
  0
MTEXT
  5
17E
100
AcDbEntity
  8
0
100
AcDbMText
 10
3.8
 20
8.4
 30
0.0
 40
0.121339
 41
1.8
 71
     5
 72
     5
  1
\C5;\fArial|b0|i0|;\H0.12133881635964;Briarcliff Pharmacy
  0
LWPOLYLINE
  5
17F
102
{ACAD_REACTORS
330
184
102
}
100
AcDbEntity
  8
0
  6
CONTINUOUS
100
AcDbPolyline
 90
        4
 70
     1
 10
3.35
 20
5.355581
 10
3.711754
 20
5.355581
 10
3.711754
 20
5.161086
 10
3.35
 20
5.161086
  0
MTEXT
  5
180
100
AcDbEntity
  8
0
100
AcDbMText
 10
3.697865
 20
5.258333
 30
0.0
 40
0.101115
 41
0.286754
 71
     6
 72
     5
  1
\C7;\fArial|b0|i0|;\H0.10111521743238; 
  0
LWPOLYLINE
  5
181
102
{ACAD_REACTORS
330
184
102
}
100
AcDbEntity
  8
0
  6
CONTINUOUS
100
AcDbPolyline
 90
        4
 70
     1
 10
3.1
 20
5.133333
 10
3.35
 20
5.133333
 10
3.35
 20
5.383333
 10
3.1
 20
5.383333
  0
ELLIPSE
  5
182
102
{ACAD_REACTORS
330
184
102
}
100
AcDbEntity
  8
0
  6
CONTINUOUS
100
AcDbEllipse
 10
3.224766
 20
5.257195
 30
0.0
 11
0.0
 21
-0.1010100015940462
 31
0.0
210
0.0
220
0.0
230
1.0
 40
0.90879
 41
1.5707963267948961
 42
4.7123889803847039
  0
ELLIPSE
  5
183
102
{ACAD_REACTORS
330
184
102
}
100
AcDbEntity
  8
0
  6
CONTINUOUS
100
AcDbEllipse
 10
3.224766
 20
5.257195
 30
0.0
 11
0.0
 21
-0.1010100015940462
 31
0.0
210
0.0
220
0.0
230
1.0
 40
0.90879
 41
4.7123889803846897
 42
1.5707963267948961
  0
HATCH
  5
184
102
{ACAD_REACTORS
330
FE
102
}
100
AcDbEntity
  8
0
 62
     3
100
AcDbHatch
 10
0.0
 20
0.0
 30
0.0
210
0.0
220
0.0
230
1.0
  2

 70
     1
 71
     1
 91
        1
 92
        1
 93
        2
 72
     3
 10
3.2247656249999999
 20
5.2571950154845082
 11
0.091796875
 21
0.0
 40
1.100364
 50
180.0
 51
0.0
 73
     0
 72
     3
 10
3.2247656249999999
 20
5.2571950154845082
 11
0.091796875
 21
0.0
 40
1.100364
 50
0.0
 51
180.0
 73
     0
 97
        4
330
17F
330
181
330
182
330
183
 75
     0
 76
     1
 98
        0
  0
LINE
  5
185
102
{ACAD_REACTORS
330
195
102
}
100
AcDbEntity
  8
0
  6
CONTINUOUS
100
AcDbLine
 10
3.212051
 20
5.328103
 30
0.0
 11
3.212051
 21
5.316385
 31
0.0
  0
LINE
  5
186
102
{ACAD_REACTORS
330
195
102
}
100
AcDbEntity
  8
0
  6
CONTINUOUS
100
AcDbLine
 10
3.212051
 20
5.316385
 30
0.0
 11
3.191148
 21
5.316385
 31
0.0
  0
ELLIPSE
  5
187
102
{ACAD_REACTORS
330
195
102
}
100
AcDbEntity
  8
0
  6
CONTINUOUS
100
AcDbEllipse
 10
3.191368
 20
5.310526
 30
0.0
 11
0.0
 21
-0.0058640222107182
 31
0.0
210
0.0
220
0.0
230
1.0
 40
0.891938
 41
6.2410505921570314
 42
3.1837273686123493
  0
ELLIPSE
  5
188
102
{ACAD_REACTORS
330
195
102
}
100
AcDbEntity
  8
0
  6
CONTINUOUS
100
AcDbEllipse
 10
3.180697
 20
5.318671
 30
0.0
 11
0.0
 21
-0.0182597181102699
 31
0.0
210
0.0
220
0.0
230
1.0
 40
0.891938
 41
5.5864458116479057
 42
0.6967394955316993
  0
ELLIPSE
  5
189
102
{ACAD_REACTORS
330
195
102
}
100
AcDbEntity
  8
0
  6
CONTINUOUS
100
AcDbEllipse
 10
3.175477
 20
5.287092
 30
0.0
 11
0.0
 21
-0.0185282762037776
 31
0.0
210
0.0
220
0.0
230
1.0
 40
0.891938
 41
3.4637464245731451
 42
0.3216929179011014
  0
ELLIPSE
  5
18A
102
{ACAD_REACTORS
330
195
102
}
100
AcDbEntity
  8
0
  6
CONTINUOUS
100
AcDbEllipse
 10
3.191154
 20
5.246093
 30
0.0
 11
0.0
 21
-0.0261893580212302
 31
0.0
210
0.0
220
0.0
230
1.0
 40
0.891938
 41
2.0340982428807717
 42
3.6054707355958087
  0
ELLIPSE
  5
18B
102
{ACAD_REACTORS
330
195
102
}
100
AcDbEntity
  8
0
  6
CONTINUOUS
100
AcDbEllipse
 10
3.1807
 20
5.255839
 30
0.0
 11
0.0
 21
-0.0352039930241968
 31
0.0
210
0.0
220
0.0
230
1.0
 40
0.891938
 41
0.3394255493103855
 42
1.6264277668967162
  0
LINE
  5
18C
102
{ACAD_REACTORS
330
195
102
}
100
AcDbEntity
  8
0
  6
CONTINUOUS
100
AcDbLine
 10
3.191154
 20
5.222644
 30
0.0
 11
3.222502
 21
5.187491
 31
0.0
  0
LINE
  5
18D
102
{ACAD_REACTORS
330
195
102
}
100
AcDbEntity
  8
0
  6
CONTINUOUS
100
AcDbLine
 10
3.222502
 20
5.187491
 30
0.0
 11
3.222502
 21
5.175773
 31
0.0
  0
ELLIPSE
  5
18E
102
{ACAD_REACTORS
330
195
102
}
100
AcDbEntity
  8
0
  6
CONTINUOUS
100
AcDbEllipse
 10
3.244309
 20
5.219604
 30
0.0
 11
0.0
 21
-0.0501883046647002
 31
0.0
210
0.0
220
0.0
230
1.0
 40
0.891938
 41
5.7743779241334536
 42
1.1523084918393716
  0
ELLIPSE
  5
18F
102
{ACAD_REACTORS
330
195
102
}
100
AcDbEntity
  8
0
  6
CONTINUOUS
100
AcDbEllipse
 10
3.286961
 20
5.224599
 30
0.0
 11
0.0
 21
-0.0254663926047874
 31
0.0
210
0.0
220
0.0
230
1.0
 40
0.891938
 41
3.7086963183923167
 42
6.2060389686307493
  0
ELLIPSE
  5
190
102
{ACAD_REACTORS
330
195
102
}
100
AcDbEntity
  8
0
  6
CONTINUOUS
100
AcDbEllipse
 10
3.269539
 20
5.267562
 30
0.0
 11
-0.0000029599743513
 21
-0.0222663522419505
 31
0.0
210
0.0
220
0.0
230
1.0
 40
0.891938
 41
0.2661134103975571
 42
4.051497913814174
  0
LINE
  5
191
102
{ACAD_REACTORS
330
195
102
}
100
AcDbEntity
  8
0
  6
CONTINUOUS
100
AcDbLine
 10
3.253862
 20
5.281232
 30
0.0
 11
3.243411
 21
5.316385
 31
0.0
  0
ELLIPSE
  5
192
102
{ACAD_REACTORS
330
195
102
}
100
AcDbEntity
  8
0
  6
CONTINUOUS
100
AcDbEllipse
 10
3.237473
 20
5.346478
 30
0.0
 11
0.0
 21
-0.0308203113449123
 31
0.0
210
0.0
220
0.0
230
1.0
 40
0.891938
 41
0.2177237683677542
 42
1.3530725584270256
  0
ARC
  5
193
102
{ACAD_REACTORS
330
195
102
}
100
AcDbEntity
  8
0
  6
CONTINUOUS
100
AcDbCircle
 10
3.220877
 20
5.265285
 30
0.0
 40
0.086268
100
AcDbArc
 50
59.76795
 51
88.916893
  0
LINE
  5
194
102
{ACAD_REACTORS
330
195
102
}
100
AcDbEntity
  8
0
  6
CONTINUOUS
100
AcDbLine
 10
3.222508
 20
5.351538
 30
0.0
 11
3.212051
 21
5.328103
 31
0.0
  0
HATCH
  5
195
102
{ACAD_REACTORS
330
FE
102
}
100
AcDbEntity
  8
0
 62
     5
100
AcDbHatch
 10
0.0
 20
0.0
 30
0.0
210
0.0
220
0.0
230
1.0
  2
SOLID
 70
     1
 71
     1
 91
        1
 92
        1
 93
       16
 72
     1
 10
3.2120507393906053
 20
5.3281025358221106
 11
3.2120507393906053
 21
5.3163849004598136
 72
     1
 10
3.2120507393906053
 20
5.3163849004598136
 11
3.1911479351935057
 21
5.3163849004598136
 72
     3
 10
3.191368249010329
 20
5.3105260827786651
 11
0.0052303431660146
 21
0.0
 40
1.121154
 50
267.585859
 51
92.414141
 73
     0
 72
     3
 10
3.1806965330949564
 20
5.318671347608797
 11
0.0162865330995579
 21
0.0
 40
1.121154
 50
50.079767
 51
129.920233
 73
     0
 72
     3
 10
3.1754774544702036
 20
5.2870921628588032
 11
0.0165260702190607
 21
0.0
 40
1.121154
 50
108.458051
 51
288.431646
 73
     1
 72
     3
 10
3.1911539552011181
 20
5.246092585058161
 11
0.0233592788066668
 21
0.0
 40
1.121154
 50
243.421744
 51
333.454756
 73
     0
 72
     3
 10
3.1806995430987559
 20
5.2558392848493067
 11
0.0313997726669567
 21
0.0
 40
1.121154
 50
356.812553
 51
70.552349
 73
     0
 72
     1
 10
3.1911539552011154
 20
5.2226438175614414
 11
3.2225021414891533
 21
5.1874909114745522
 72
     1
 10
3.2225021414891533
 20
5.1874909114745522
 11
3.2225021414891533
 21
5.1757732761122544
 72
     3
 10
3.2443087121758203
 20
5.2196040322548702
 11
0.0447648468720119
 21
0.0
 40
1.121154
 50
240.847484
 51
336.022413
 73
     1
 72
     3
 10
3.2869611521808495
 20
5.2245991946688219
 11
0.022714438611784
 21
0.0
 40
1.121154
 50
94.42016
 51
237.507353
 73
     0
 72
     3
 10
3.2695390994677407
 20
5.2675623656981108
 11
0.0198602015981276
 21
-0.0000026401130595
 40
1.121154
 50
285.247175
 51
142.133731
 73
     1
 72
     1
 10
3.2538623677924106
 20
5.2812319943729227
 11
3.2434109656938608
 21
5.3163849004598136
 72
     3
 10
3.2374729572099725
 20
5.3464775954741199
 11
0.0274898012020939
 21
0.0
 40
1.121154
 50
282.474653
 51
347.525347
 73
     1
 72
     2
 10
3.2208774635479571
 20
5.2652850580650963
 40
0.0862681621250353
 50
59.76795
 51
88.916893
 73
     1
 72
     1
 10
3.222508161496763
 20
5.3515378065467019
 11
3.2120507393906053
 21
5.3281025358221106
 97
       16
330
185
330
186
330
187
330
188
330
189
330
18A
330
18B
330
18C
330
18D
330
18E
330
18F
330
190
330
191
330
192
330
193
330
194
 75
     0
 76
     1
 98
        0
  0
LWPOLYLINE
  5
196
102
{ACAD_REACTORS
330
19D
102
}
100
AcDbEntity
  8
0
  6
CONTINUOUS
 62
     7
100
AcDbPolyline
 90
        4
 70
     1
 10
4.834846
 20
5.383333
 10
4.834846
 20
5.133333
 10
3.35
 20
5.133333
 10
3.35
 20
5.383333
  0
MTEXT
  5
197
100
AcDbEntity
  8
0
100
AcDbMText
 10
4.779291
 20
5.258333
 30
0.0
 40
0.101115
 41
1.734846
 71
     6
 72
     5
  1
\C7;\fArial|b0|i0|;\H0.10111521743238;Gifts & Collectables
  0
LWPOLYLINE
  5
198
102
{ACAD_REACTORS
330
19D
102
}
100
AcDbEntity
  8
0
  6
CONTINUOUS
100
AcDbPolyline
 90
        4
 70
     1
 10
3.367423
 20
4.997247
 10
3.729177
 20
4.997247
 10
3.729177
 20
4.852753
 10
3.367423
 20
4.852753
  0
MTEXT
  5
199
100
AcDbEntity
  8
0
100
AcDbMText
 10
3.715288
 20
4.925
 30
0.0
 40
0.07078
 41
0.286754
 71
     6
 72
     5
  1
\C7;\fArial|b0|i0|;\H0.070779819041491; 
  0
LWPOLYLINE
  5
19A
102
{ACAD_REACTORS
330
19D
102
}
100
AcDbEntity
  8
0
  6
CONTINUOUS
100
AcDbPolyline
 90
        4
 70
     1
 10
3.117423
 20
4.8
 10
3.367423
 20
4.8
 10
3.367423
 20
5.05
 10
3.117423
 20
5.05
  0
ELLIPSE
  5
19B
102
{ACAD_REACTORS
330
19D
102
}
100
AcDbEntity
  8
0
  6
CONTINUOUS
100
AcDbEllipse
 10
3.242189
 20
4.923862
 30
0.0
 11
0.0
 21
-0.1010100015940462
 31
0.0
210
0.0
220
0.0
230
1.0
 40
0.90879
 41
1.5707963267948961
 42
4.7123889803847039
  0
ELLIPSE
  5
19C
102
{ACAD_REACTORS
330
19D
102
}
100
AcDbEntity
  8
0
  6
CONTINUOUS
100
AcDbEllipse
 10
3.242189
 20
4.923862
 30
0.0
 11
0.0
 21
-0.1010100015940462
 31
0.0
210
0.0
220
0.0
230
1.0
 40
0.90879
 41
4.7123889803846897
 42
1.5707963267948961
  0
HATCH
  5
19D
102
{ACAD_REACTORS
330
FE
102
}
100
AcDbEntity
  8
0
 62
     3
100
AcDbHatch
 10
0.0
 20
0.0
 30
0.0
210
0.0
220
0.0
230
1.0
  2

 70
     1
 71
     1
 91
        1
 92
        1
 93
        2
 72
     3
 10
3.2421887621073124
 20
4.9238616821511751
 11
0.091796875
 21
0.0
 40
1.100364
 50
180.0
 51
0.0
 73
     0
 72
     3
 10
3.2421887621073124
 20
4.9238616821511751
 11
0.091796875
 21
0.0
 40
1.100364
 50
0.0
 51
180.0
 73
     0
 97
        5
330
196
330
198
330
19A
330
19B
330
19C
 75
     0
 76
     1
 98
        0
  0
LINE
  5
19E
102
{ACAD_REACTORS
330
1AE
102
}
100
AcDbEntity
  8
0
  6
CONTINUOUS
100
AcDbLine
 10
3.229474
 20
4.994769
 30
0.0
 11
3.229474
 21
4.983052
 31
0.0
  0
LINE
  5
19F
102
{ACAD_REACTORS
330
1AE
102
}
100
AcDbEntity
  8
0
  6
CONTINUOUS
100
AcDbLine
 10
3.229474
 20
4.983052
 30
0.0
 11
3.208571
 21
4.983052
 31
0.0
  0
ELLIPSE
  5
1A0
102
{ACAD_REACTORS
330
1AE
102
}
100
AcDbEntity
  8
0
  6
CONTINUOUS
100
AcDbEllipse
 10
3.208791
 20
4.977193
 30
0.0
 11
0.0
 21
-0.0058640222107182
 31
0.0
210
0.0
220
0.0
230
1.0
 40
0.891938
 41
6.2410505921570314
 42
3.1837273686123493
  0
ELLIPSE
  5
1A1
102
{ACAD_REACTORS
330
1AE
102
}
100
AcDbEntity
  8
0
  6
CONTINUOUS
100
AcDbEllipse
 10
3.19812
 20
4.985338
 30
0.0
 11
0.0
 21
-0.0182597181102699
 31
0.0
210
0.0
220
0.0
230
1.0
 40
0.891938
 41
5.5864458116479057
 42
0.6967394955316993
  0
ELLIPSE
  5
1A2
102
{ACAD_REACTORS
330
1AE
102
}
100
AcDbEntity
  8
0
  6
CONTINUOUS
100
AcDbEllipse
 10
3.192901
 20
4.953759
 30
0.0
 11
0.0
 21
-0.0185282762037776
 31
0.0
210
0.0
220
0.0
230
1.0
 40
0.891938
 41
3.4637464245731451
 42
0.3216929179011014
  0
ELLIPSE
  5
1A3
102
{ACAD_REACTORS
330
1AE
102
}
100
AcDbEntity
  8
0
  6
CONTINUOUS
100
AcDbEllipse
 10
3.208577
 20
4.912759
 30
0.0
 11
0.0
 21
-0.0261893580212302
 31
0.0
210
0.0
220
0.0
230
1.0
 40
0.891938
 41
2.0340982428807717
 42
3.6054707355958087
  0
ELLIPSE
  5
1A4
102
{ACAD_REACTORS
330
1AE
102
}
100
AcDbEntity
  8
0
  6
CONTINUOUS
100
AcDbEllipse
 10
3.198123
 20
4.922506
 30
0.0
 11
0.0
 21
-0.0352039930241968
 31
0.0
210
0.0
220
0.0
230
1.0
 40
0.891938
 41
0.3394255493103855
 42
1.6264277668967162
  0
LINE
  5
1A5
102
{ACAD_REACTORS
330
1AE
102
}
100
AcDbEntity
  8
0
  6
CONTINUOUS
100
AcDbLine
 10
3.208577
 20
4.88931
 30
0.0
 11
3.239925
 21
4.854158
 31
0.0
  0
LINE
  5
1A6
102
{ACAD_REACTORS
330
1AE
102
}
100
AcDbEntity
  8
0
  6
CONTINUOUS
100
AcDbLine
 10
3.239925
 20
4.854158
 30
0.0
 11
3.239925
 21
4.84244
 31
0.0
  0
ELLIPSE
  5
1A7
102
{ACAD_REACTORS
330
1AE
102
}
100
AcDbEntity
  8
0
  6
CONTINUOUS
100
AcDbEllipse
 10
3.261732
 20
4.886271
 30
0.0
 11
0.0
 21
-0.0501883046647002
 31
0.0
210
0.0
220
0.0
230
1.0
 40
0.891938
 41
5.7743779241334536
 42
1.1523084918393716
  0
ELLIPSE
  5
1A8
102
{ACAD_REACTORS
330
1AE
102
}
100
AcDbEntity
  8
0
  6
CONTINUOUS
100
AcDbEllipse
 10
3.304384
 20
4.891266
 30
0.0
 11
0.0
 21
-0.0254663926047874
 31
0.0
210
0.0
220
0.0
230
1.0
 40
0.891938
 41
3.7086963183923167
 42
6.2060389686307493
  0
ELLIPSE
  5
1A9
102
{ACAD_REACTORS
330
1AE
102
}
100
AcDbEntity
  8
0
  6
CONTINUOUS
100
AcDbEllipse
 10
3.286962
 20
4.934229
 30
0.0
 11
-0.0000029599743513
 21
-0.0222663522419505
 31
0.0
210
0.0
220
0.0
230
1.0
 40
0.891938
 41
0.2661134103975571
 42
4.051497913814174
  0
LINE
  5
1AA
102
{ACAD_REACTORS
330
1AE
102
}
100
AcDbEntity
  8
0
  6
CONTINUOUS
100
AcDbLine
 10
3.271286
 20
4.947899
 30
0.0
 11
3.260834
 21
4.983052
 31
0.0
  0
ELLIPSE
  5
1AB
102
{ACAD_REACTORS
330
1AE
102
}
100
AcDbEntity
  8
0
  6
CONTINUOUS
100
AcDbEllipse
 10
3.254896
 20
5.013144
 30
0.0
 11
0.0
 21
-0.0308203113449123
 31
0.0
210
0.0
220
0.0
230
1.0
 40
0.891938
 41
0.2177237683677542
 42
1.3530725584270256
  0
ARC
  5
1AC
102
{ACAD_REACTORS
330
1AE
102
}
100
AcDbEntity
  8
0
  6
CONTINUOUS
100
AcDbCircle
 10
3.238301
 20
4.931952
 30
0.0
 40
0.086268
100
AcDbArc
 50
59.76795
 51
88.916893
  0
LINE
  5
1AD
102
{ACAD_REACTORS
330
1AE
102
}
100
AcDbEntity
  8
0
  6
CONTINUOUS
100
AcDbLine
 10
3.239931
 20
5.018204
 30
0.0
 11
3.229474
 21
4.994769
 31
0.0
  0
HATCH
  5
1AE
102
{ACAD_REACTORS
330
FE
102
}
100
AcDbEntity
  8
0
 62
     5
100
AcDbHatch
 10
0.0
 20
0.0
 30
0.0
210
0.0
220
0.0
230
1.0
  2
SOLID
 70
     1
 71
     1
 91
        1
 92
        1
 93
       16
 72
     1
 10
3.2294738764979178
 20
4.9947692024887775
 11
3.2294738764979178
 21
4.9830515671264806
 72
     1
 10
3.2294738764979178
 20
4.9830515671264806
 11
3.2085710723008183
 21
4.9830515671264806
 72
     3
 10
3.2087913861176416
 20
4.9771927494453321
 11
0.0052303431660146
 21
0.0
 40
1.121154
 50
267.585859
 51
92.414141
 73
     0
 72
     3
 10
3.1981196702022689
 20
4.985338014275464
 11
0.0162865330995579
 21
0.0
 40
1.121154
 50
50.079767
 51
129.920233
 73
     0
 72
     3
 10
3.1929005915775162
 20
4.9537588295254702
 11
0.0165260702190607
 21
0.0
 40
1.121154
 50
108.458051
 51
288.431646
 73
     1
 72
     3
 10
3.2085770923084302
 20
4.912759251724828
 11
0.0233592788066668
 21
0.0
 40
1.121154
 50
243.421744
 51
333.454756
 73
     0
 72
     3
 10
3.1981226802060685
 20
4.9225059515159737
 11
0.0313997726669567
 21
0.0
 40
1.121154
 50
356.812553
 51
70.552349
 73
     0
 72
     1
 10
3.208577092308428
 20
4.8893104842281083
 11
3.2399252785964663
 21
4.8541575781412192
 72
     1
 10
3.2399252785964663
 20
4.8541575781412192
 11
3.2399252785964663
 21
4.8424399427789213
 72
     3
 10
3.2617318492831329
 20
4.8862706989215372
 11
0.0447648468720119
 21
0.0
 40
1.121154
 50
240.847484
 51
336.022413
 73
     1
 72
     3
 10
3.3043842892881621
 20
4.8912658613354889
 11
0.022714438611784
 21
0.0
 40
1.121154
 50
94.42016
 51
237.507353
 73
     0
 72
     3
 10
3.2869622365750533
 20
4.9342290323647777
 11
0.0198602015981276
 21
-0.0000026401130595
 40
1.121154
 50
285.247175
 51
142.133731
 73
     1
 72
     1
 10
3.2712855048997231
 20
4.9478986610395896
 11
3.2608341028011734
 21
4.9830515671264806
 72
     3
 10
3.2548960943172851
 20
5.0131442621407869
 11
0.0274898012020939
 21
0.0
 40
1.121154
 50
282.474653
 51
347.525347
 73
     1
 72
     2
 10
3.2383006006552697
 20
4.9319517247317632
 40
0.0862681621250353
 50
59.76795
 51
88.916893
 73
     1
 72
     1
 10
3.2399312986040756
 20
5.0182044732133688
 11
3.2294738764979178
 21
4.9947692024887775
 97
       16
330
19E
330
19F
330
1A0
330
1A1
330
1A2
330
1A3
330
1A4
330
1A5
330
1A6
330
1A7
330
1A8
330
1A9
330
1AA
330
1AB
330
1AC
330
1AD
 75
     0
 76
     1
 98
        0
  0
LWPOLYLINE
  5
1AF
102
{ACAD_REACTORS
330
1B6
102
}
100
AcDbEntity
  8
0
  6
CONTINUOUS
 62
     7
100
AcDbPolyline
 90
        4
 70
     1
 10
4.852269
 20
5.05
 10
4.852269
 20
4.8
 10
3.35
 20
4.8
 10
3.35
 20
5.05
  0
MTEXT
  5
1B0
100
AcDbEntity
  8
0
100
AcDbMText
 10
4.796714
 20
4.925
 30
0.0
 40
0.121339
 41
1.752269
 71
     6
 72
     5
  1
\C214;\fArial|b0|i0|;\H0.12133881635964;Contact Us
  0
LWPOLYLINE
  5
1B1
102
{ACAD_REACTORS
330
1B6
102
}
100
AcDbEntity
  8
0
  6
CONTINUOUS
100
AcDbPolyline
 90
        4
 70
     1
 10
3.35
 20
5.997247
 10
3.711754
 20
5.997247
 10
3.711754
 20
5.852753
 10
3.35
 20
5.852753
  0
MTEXT
  5
1B2
100
AcDbEntity
  8
0
100
AcDbMText
 10
3.697865
 20
5.925
 30
0.0
 40
0.07078
 41
0.286754
 71
     6
 72
     5
  1
\C7;\fArial|b0|i0|;\H0.070779819041491; 
  0
LWPOLYLINE
  5
1B3
102
{ACAD_REACTORS
330
1B6
102
}
100
AcDbEntity
  8
0
  6
CONTINUOUS
100
AcDbPolyline
 90
        4
 70
     1
 10
3.1
 20
5.8
 10
3.35
 20
5.8
 10
3.35
 20
6.05
 10
3.1
 20
6.05
  0
ELLIPSE
  5
1B4
102
{ACAD_REACTORS
330
1B6
102
}
100
AcDbEntity
  8
0
  6
CONTINUOUS
100
AcDbEllipse
 10
3.224766
 20
5.923862
 30
0.0
 11
0.0
 21
-0.1010100015940462
 31
0.0
210
0.0
220
0.0
230
1.0
 40
0.90879
 41
1.5707963267948961
 42
4.7123889803847039
  0
ELLIPSE
  5
1B5
102
{ACAD_REACTORS
330
1B6
102
}
100
AcDbEntity
  8
0
  6
CONTINUOUS
100
AcDbEllipse
 10
3.224766
 20
5.923862
 30
0.0
 11
0.0
 21
-0.1010100015940462
 31
0.0
210
0.0
220
0.0
230
1.0
 40
0.90879
 41
4.7123889803846897
 42
1.5707963267948961
  0
HATCH
  5
1B6
102
{ACAD_REACTORS
330
FE
102
}
100
AcDbEntity
  8
0
 62
     3
100
AcDbHatch
 10
0.0
 20
0.0
 30
0.0
210
0.0
220
0.0
230
1.0
  2

 70
     1
 71
     1
 91
        1
 92
        1
 93
        2
 72
     3
 10
3.2247656250000007
 20
5.923861682151176
 11
0.091796875
 21
0.0
 40
1.100364
 50
180.0
 51
0.0
 73
     0
 72
     3
 10
3.2247656250000007
 20
5.923861682151176
 11
0.091796875
 21
0.0
 40
1.100364
 50
0.0
 51
180.0
 73
     0
 97
        5
330
1AF
330
1B1
330
1B3
330
1B4
330
1B5
 75
     0
 76
     1
 98
        0
  0
LINE
  5
1B7
102
{ACAD_REACTORS
330
1C7
102
}
100
AcDbEntity
  8
0
  6
CONTINUOUS
100
AcDbLine
 10
3.212051
 20
5.994769
 30
0.0
 11
3.212051
 21
5.983052
 31
0.0
  0
LINE
  5
1B8
102
{ACAD_REACTORS
330
1C7
102
}
100
AcDbEntity
  8
0
  6
CONTINUOUS
100
AcDbLine
 10
3.212051
 20
5.983052
 30
0.0
 11
3.191148
 21
5.983052
 31
0.0
  0
ELLIPSE
  5
1B9
102
{ACAD_REACTORS
330
1C7
102
}
100
AcDbEntity
  8
0
  6
CONTINUOUS
100
AcDbEllipse
 10
3.191368
 20
5.977193
 30
0.0
 11
0.0
 21
-0.0058640222107182
 31
0.0
210
0.0
220
0.0
230
1.0
 40
0.891938
 41
6.2410505921570314
 42
3.1837273686123493
  0
ELLIPSE
  5
1BA
102
{ACAD_REACTORS
330
1C7
102
}
100
AcDbEntity
  8
0
  6
CONTINUOUS
100
AcDbEllipse
 10
3.180697
 20
5.985338
 30
0.0
 11
0.0
 21
-0.0182597181102699
 31
0.0
210
0.0
220
0.0
230
1.0
 40
0.891938
 41
5.5864458116479057
 42
0.6967394955316993
  0
ELLIPSE
  5
1BB
102
{ACAD_REACTORS
330
1C7
102
}
100
AcDbEntity
  8
0
  6
CONTINUOUS
100
AcDbEllipse
 10
3.175477
 20
5.953759
 30
0.0
 11
0.0
 21
-0.0185282762037776
 31
0.0
210
0.0
220
0.0
230
1.0
 40
0.891938
 41
3.4637464245731451
 42
0.3216929179011014
  0
ELLIPSE
  5
1BC
102
{ACAD_REACTORS
330
1C7
102
}
100
AcDbEntity
  8
0
  6
CONTINUOUS
100
AcDbEllipse
 10
3.191154
 20
5.912759
 30
0.0
 11
0.0
 21
-0.0261893580212302
 31
0.0
210
0.0
220
0.0
230
1.0
 40
0.891938
 41
2.0340982428807717
 42
3.6054707355958087
  0
ELLIPSE
  5
1BD
102
{ACAD_REACTORS
330
1C7
102
}
100
AcDbEntity
  8
0
  6
CONTINUOUS
100
AcDbEllipse
 10
3.1807
 20
5.922506
 30
0.0
 11
0.0
 21
-0.0352039930241968
 31
0.0
210
0.0
220
0.0
230
1.0
 40
0.891938
 41
0.3394255493103855
 42
1.6264277668967162
  0
LINE
  5
1BE
102
{ACAD_REACTORS
330
1C7
102
}
100
AcDbEntity
  8
0
  6
CONTINUOUS
100
AcDbLine
 10
3.191154
 20
5.88931
 30
0.0
 11
3.222502
 21
5.854158
 31
0.0
  0
LINE
  5
1BF
102
{ACAD_REACTORS
330
1C7
102
}
100
AcDbEntity
  8
0
  6
CONTINUOUS
100
AcDbLine
 10
3.222502
 20
5.854158
 30
0.0
 11
3.222502
 21
5.84244
 31
0.0
  0
ELLIPSE
  5
1C0
102
{ACAD_REACTORS
330
1C7
102
}
100
AcDbEntity
  8
0
  6
CONTINUOUS
100
AcDbEllipse
 10
3.244309
 20
5.886271
 30
0.0
 11
0.0
 21
-0.0501883046647002
 31
0.0
210
0.0
220
0.0
230
1.0
 40
0.891938
 41
5.7743779241334536
 42
1.1523084918393716
  0
ELLIPSE
  5
1C1
102
{ACAD_REACTORS
330
1C7
102
}
100
AcDbEntity
  8
0
  6
CONTINUOUS
100
AcDbEllipse
 10
3.286961
 20
5.891266
 30
0.0
 11
0.0
 21
-0.0254663926047874
 31
0.0
210
0.0
220
0.0
230
1.0
 40
0.891938
 41
3.7086963183923167
 42
6.2060389686307493
  0
ELLIPSE
  5
1C2
102
{ACAD_REACTORS
330
1C7
102
}
100
AcDbEntity
  8
0
  6
CONTINUOUS
100
AcDbEllipse
 10
3.269539
 20
5.934229
 30
0.0
 11
-0.0000029599743513
 21
-0.0222663522419505
 31
0.0
210
0.0
220
0.0
230
1.0
 40
0.891938
 41
0.2661134103975571
 42
4.051497913814174
  0
LINE
  5
1C3
102
{ACAD_REACTORS
330
1C7
102
}
100
AcDbEntity
  8
0
  6
CONTINUOUS
100
AcDbLine
 10
3.253862
 20
5.947899
 30
0.0
 11
3.243411
 21
5.983052
 31
0.0
  0
ELLIPSE
  5
1C4
102
{ACAD_REACTORS
330
1C7
102
}
100
AcDbEntity
  8
0
  6
CONTINUOUS
100
AcDbEllipse
 10
3.237473
 20
6.013144
 30
0.0
 11
0.0
 21
-0.0308203113449123
 31
0.0
210
0.0
220
0.0
230
1.0
 40
0.891938
 41
0.2177237683677542
 42
1.3530725584270256
  0
ARC
  5
1C5
102
{ACAD_REACTORS
330
1C7
102
}
100
AcDbEntity
  8
0
  6
CONTINUOUS
100
AcDbCircle
 10
3.220877
 20
5.931952
 30
0.0
 40
0.086268
100
AcDbArc
 50
59.76795
 51
88.916893
  0
LINE
  5
1C6
102
{ACAD_REACTORS
330
1C7
102
}
100
AcDbEntity
  8
0
  6
CONTINUOUS
100
AcDbLine
 10
3.222508
 20
6.018204
 30
0.0
 11
3.212051
 21
5.994769
 31
0.0
  0
HATCH
  5
1C7
102
{ACAD_REACTORS
330
FE
102
}
100
AcDbEntity
  8
0
 62
     5
100
AcDbHatch
 10
0.0
 20
0.0
 30
0.0
210
0.0
220
0.0
230
1.0
  2
SOLID
 70
     1
 71
     1
 91
        1
 92
        1
 93
       16
 72
     1
 10
3.2120507393906061
 20
5.9947692024887784
 11
3.2120507393906061
 21
5.9830515671264815
 72
     1
 10
3.2120507393906061
 20
5.9830515671264815
 11
3.1911479351935066
 21
5.9830515671264815
 72
     3
 10
3.1913682490103299
 20
5.977192749445333
 11
0.0052303431660146
 21
0.0
 40
1.121154
 50
267.585859
 51
92.414141
 73
     0
 72
     3
 10
3.1806965330949573
 20
5.9853380142754649
 11
0.0162865330995579
 21
0.0
 40
1.121154
 50
50.079767
 51
129.920233
 73
     0
 72
     3
 10
3.1754774544702045
 20
5.9537588295254711
 11
0.0165260702190607
 21
0.0
 40
1.121154
 50
108.458051
 51
288.431646
 73
     1
 72
     3
 10
3.191153955201119
 20
5.9127592517248289
 11
0.0233592788066668
 21
0.0
 40
1.121154
 50
243.421744
 51
333.454756
 73
     0
 72
     3
 10
3.1806995430987568
 20
5.9225059515159746
 11
0.0313997726669567
 21
0.0
 40
1.121154
 50
356.812553
 51
70.552349
 73
     0
 72
     1
 10
3.1911539552011163
 20
5.8893104842281092
 11
3.2225021414891541
 21
5.8541575781412201
 72
     1
 10
3.2225021414891541
 20
5.8541575781412201
 11
3.2225021414891541
 21
5.8424399427789222
 72
     3
 10
3.2443087121758212
 20
5.8862706989215381
 11
0.0447648468720119
 21
0.0
 40
1.121154
 50
240.847484
 51
336.022413
 73
     1
 72
     3
 10
3.2869611521808504
 20
5.8912658613354898
 11
0.022714438611784
 21
0.0
 40
1.121154
 50
94.42016
 51
237.507353
 73
     0
 72
     3
 10
3.2695390994677416
 20
5.9342290323647786
 11
0.0198602015981276
 21
-0.0000026401130595
 40
1.121154
 50
285.247175
 51
142.133731
 73
     1
 72
     1
 10
3.2538623677924114
 20
5.9478986610395905
 11
3.2434109656938617
 21
5.9830515671264815
 72
     3
 10
3.2374729572099734
 20
6.0131442621407878
 11
0.0274898012020939
 21
0.0
 40
1.121154
 50
282.474653
 51
347.525347
 73
     1
 72
     2
 10
3.220877463547958
 20
5.9319517247317641
 40
0.0862681621250353
 50
59.76795
 51
88.916893
 73
     1
 72
     1
 10
3.2225081614967639
 20
6.0182044732133697
 11
3.2120507393906061
 21
5.9947692024887784
 97
       16
330
1B7
330
1B8
330
1B9
330
1BA
330
1BB
330
1BC
330
1BD
330
1BE
330
1BF
330
1C0
330
1C1
330
1C2
330
1C3
330
1C4
330
1C5
330
1C6
 75
     0
 76
     1
 98
        0
  0
LWPOLYLINE
  5
1C8
102
{ACAD_REACTORS
330
1CF
102
}
100
AcDbEntity
  8
0
  6
CONTINUOUS
 62
     7
100
AcDbPolyline
 90
        4
 70
     1
 10
4.834846
 20
6.05
 10
4.834846
 20
5.8
 10
3.35
 20
5.8
 10
3.35
 20
6.05
  0
MTEXT
  5
1C9
100
AcDbEntity
  8
0
100
AcDbMText
 10
4.779291
 20
5.925
 30
0.0
 40
0.121339
 41
1.734846
 71
     6
 72
     5
  1
\C94;\fArial|b0|i0|;\H0.12133881635964;About Us
  0
LWPOLYLINE
  5
1CA
102
{ACAD_REACTORS
330
1CF
102
}
100
AcDbEntity
  8
0
  6
CONTINUOUS
100
AcDbPolyline
 90
        4
 70
     1
 10
3.365154
 20
5.663913
 10
3.726908
 20
5.663913
 10
3.726908
 20
5.51942
 10
3.365154
 20
5.51942
  0
MTEXT
  5
1CB
100
AcDbEntity
  8
0
100
AcDbMText
 10
3.713019
 20
5.591667
 30
0.0
 40
0.07078
 41
0.286754
 71
     6
 72
     5
  1
\C7;\fArial|b0|i0|;\H0.070779819041491; 
  0
LWPOLYLINE
  5
1CC
102
{ACAD_REACTORS
330
1CF
102
}
100
AcDbEntity
  8
0
  6
CONTINUOUS
100
AcDbPolyline
 90
        4
 70
     1
 10
3.115154
 20
5.466667
 10
3.365154
 20
5.466667
 10
3.365154
 20
5.716667
 10
3.115154
 20
5.716667
  0
ELLIPSE
  5
1CD
102
{ACAD_REACTORS
330
1CF
102
}
100
AcDbEntity
  8
0
  6
CONTINUOUS
100
AcDbEllipse
 10
3.239919
 20
5.590528
 30
0.0
 11
0.0
 21
-0.1010100015940462
 31
0.0
210
0.0
220
0.0
230
1.0
 40
0.90879
 41
1.5707963267948961
 42
4.7123889803847039
  0
ELLIPSE
  5
1CE
102
{ACAD_REACTORS
330
1CF
102
}
100
AcDbEntity
  8
0
  6
CONTINUOUS
100
AcDbEllipse
 10
3.239919
 20
5.590528
 30
0.0
 11
0.0
 21
-0.1010100015940462
 31
0.0
210
0.0
220
0.0
230
1.0
 40
0.90879
 41
4.7123889803846897
 42
1.5707963267948961
  0
HATCH
  5
1CF
102
{ACAD_REACTORS
330
FE
102
}
100
AcDbEntity
  8
0
 62
     3
100
AcDbHatch
 10
0.0
 20
0.0
 30
0.0
210
0.0
220
0.0
230
1.0
  2

 70
     1
 71
     1
 91
        1
 92
        1
 93
        2
 72
     3
 10
3.2399193507853763
 20
5.5905283488178412
 11
0.091796875
 21
0.0
 40
1.100364
 50
180.0
 51
0.0
 73
     0
 72
     3
 10
3.2399193507853763
 20
5.5905283488178412
 11
0.091796875
 21
0.0
 40
1.100364
 50
0.0
 51
180.0
 73
     0
 97
        5
330
1C8
330
1CA
330
1CC
330
1CD
330
1CE
 75
     0
 76
     1
 98
        0
  0
LINE
  5
1D0
102
{ACAD_REACTORS
330
1E0
102
}
100
AcDbEntity
  8
0
  6
CONTINUOUS
100
AcDbLine
 10
3.227204
 20
5.661436
 30
0.0
 11
3.227204
 21
5.649718
 31
0.0
  0
LINE
  5
1D1
102
{ACAD_REACTORS
330
1E0
102
}
100
AcDbEntity
  8
0
  6
CONTINUOUS
100
AcDbLine
 10
3.227204
 20
5.649718
 30
0.0
 11
3.206302
 21
5.649718
 31
0.0
  0
ELLIPSE
  5
1D2
102
{ACAD_REACTORS
330
1E0
102
}
100
AcDbEntity
  8
0
  6
CONTINUOUS
100
AcDbEllipse
 10
3.206522
 20
5.643859
 30
0.0
 11
0.0
 21
-0.0058640222107182
 31
0.0
210
0.0
220
0.0
230
1.0
 40
0.891938
 41
6.2410505921570314
 42
3.1837273686123493
  0
ELLIPSE
  5
1D3
102
{ACAD_REACTORS
330
1E0
102
}
100
AcDbEntity
  8
0
  6
CONTINUOUS
100
AcDbEllipse
 10
3.19585
 20
5.652005
 30
0.0
 11
0.0
 21
-0.0182597181102699
 31
0.0
210
0.0
220
0.0
230
1.0
 40
0.891938
 41
5.5864458116479057
 42
0.6967394955316993
  0
ELLIPSE
  5
1D4
102
{ACAD_REACTORS
330
1E0
102
}
100
AcDbEntity
  8
0
  6
CONTINUOUS
100
AcDbEllipse
 10
3.190631
 20
5.620425
 30
0.0
 11
0.0
 21
-0.0185282762037776
 31
0.0
210
0.0
220
0.0
230
1.0
 40
0.891938
 41
3.4637464245731451
 42
0.3216929179011014
  0
ELLIPSE
  5
1D5
102
{ACAD_REACTORS
330
1E0
102
}
100
AcDbEntity
  8
0
  6
CONTINUOUS
100
AcDbEllipse
 10
3.206308
 20
5.579426
 30
0.0
 11
0.0
 21
-0.0261893580212302
 31
0.0
210
0.0
220
0.0
230
1.0
 40
0.891938
 41
2.0340982428807717
 42
3.6054707355958087
  0
ELLIPSE
  5
1D6
102
{ACAD_REACTORS
330
1E0
102
}
100
AcDbEntity
  8
0
  6
CONTINUOUS
100
AcDbEllipse
 10
3.195853
 20
5.589173
 30
0.0
 11
0.0
 21
-0.0352039930241968
 31
0.0
210
0.0
220
0.0
230
1.0
 40
0.891938
 41
0.3394255493103855
 42
1.6264277668967162
  0
LINE
  5
1D7
102
{ACAD_REACTORS
330
1E0
102
}
100
AcDbEntity
  8
0
  6
CONTINUOUS
100
AcDbLine
 10
3.206308
 20
5.555977
 30
0.0
 11
3.237656
 21
5.520824
 31
0.0
  0
LINE
  5
1D8
102
{ACAD_REACTORS
330
1E0
102
}
100
AcDbEntity
  8
0
  6
CONTINUOUS
100
AcDbLine
 10
3.237656
 20
5.520824
 30
0.0
 11
3.237656
 21
5.509107
 31
0.0
  0
ELLIPSE
  5
1D9
102
{ACAD_REACTORS
330
1E0
102
}
100
AcDbEntity
  8
0
  6
CONTINUOUS
100
AcDbEllipse
 10
3.259462
 20
5.552937
 30
0.0
 11
0.0
 21
-0.0501883046647002
 31
0.0
210
0.0
220
0.0
230
1.0
 40
0.891938
 41
5.7743779241334536
 42
1.1523084918393716
  0
ELLIPSE
  5
1DA
102
{ACAD_REACTORS
330
1E0
102
}
100
AcDbEntity
  8
0
  6
CONTINUOUS
100
AcDbEllipse
 10
3.302115
 20
5.557933
 30
0.0
 11
0.0
 21
-0.0254663926047874
 31
0.0
210
0.0
220
0.0
230
1.0
 40
0.891938
 41
3.7086963183923167
 42
6.2060389686307493
  0
ELLIPSE
  5
1DB
102
{ACAD_REACTORS
330
1E0
102
}
100
AcDbEntity
  8
0
  6
CONTINUOUS
100
AcDbEllipse
 10
3.284693
 20
5.600896
 30
0.0
 11
-0.0000029599743513
 21
-0.0222663522419505
 31
0.0
210
0.0
220
0.0
230
1.0
 40
0.891938
 41
0.2661134103975571
 42
4.051497913814174
  0
LINE
  5
1DC
102
{ACAD_REACTORS
330
1E0
102
}
100
AcDbEntity
  8
0
  6
CONTINUOUS
100
AcDbLine
 10
3.269016
 20
5.614565
 30
0.0
 11
3.258565
 21
5.649718
 31
0.0
  0
ELLIPSE
  5
1DD
102
{ACAD_REACTORS
330
1E0
102
}
100
AcDbEntity
  8
0
  6
CONTINUOUS
100
AcDbEllipse
 10
3.252627
 20
5.679811
 30
0.0
 11
0.0
 21
-0.0308203113449123
 31
0.0
210
0.0
220
0.0
230
1.0
 40
0.891938
 41
0.2177237683677542
 42
1.3530725584270256
  0
ARC
  5
1DE
102
{ACAD_REACTORS
330
1E0
102
}
100
AcDbEntity
  8
0
  6
CONTINUOUS
100
AcDbCircle
 10
3.236031
 20
5.598618
 30
0.0
 40
0.086268
100
AcDbArc
 50
59.76795
 51
88.916893
  0
LINE
  5
1DF
102
{ACAD_REACTORS
330
1E0
102
}
100
AcDbEntity
  8
0
  6
CONTINUOUS
100
AcDbLine
 10
3.237662
 20
5.684871
 30
0.0
 11
3.227204
 21
5.661436
 31
0.0
  0
HATCH
  5
1E0
102
{ACAD_REACTORS
330
FE
102
}
100
AcDbEntity
  8
0
 62
     5
100
AcDbHatch
 10
0.0
 20
0.0
 30
0.0
210
0.0
220
0.0
230
1.0
  2
SOLID
 70
     1
 71
     1
 91
        1
 92
        1
 93
       16
 72
     1
 10
3.2272044651759817
 20
5.6614358691554436
 11
3.2272044651759817
 21
5.6497182337931466
 72
     1
 10
3.2272044651759817
 20
5.6497182337931466
 11
3.2063016609788821
 21
5.6497182337931466
 72
     3
 10
3.2065219747957054
 20
5.6438594161119982
 11
0.0052303431660146
 21
0.0
 40
1.121154
 50
267.585859
 51
92.414141
 73
     0
 72
     3
 10
3.1958502588803328
 20
5.65200468094213
 11
0.0162865330995579
 21
0.0
 40
1.121154
 50
50.079767
 51
129.920233
 73
     0
 72
     3
 10
3.19063118025558
 20
5.6204254961921363
 11
0.0165260702190607
 21
0.0
 40
1.121154
 50
108.458051
 51
288.431646
 73
     1
 72
     3
 10
3.2063076809864945
 20
5.579425918391494
 11
0.0233592788066668
 21
0.0
 40
1.121154
 50
243.421744
 51
333.454756
 73
     0
 72
     3
 10
3.1958532688841323
 20
5.5891726181826398
 11
0.0313997726669567
 21
0.0
 40
1.121154
 50
356.812553
 51
70.552349
 73
     0
 72
     1
 10
3.2063076809864919
 20
5.5559771508947744
 11
3.2376558672745297
 21
5.5208242448078853
 72
     1
 10
3.2376558672745297
 20
5.5208242448078853
 11
3.2376558672745297
 21
5.5091066094455874
 72
     3
 10
3.2594624379611967
 20
5.5529373655882033
 11
0.0447648468720119
 21
0.0
 40
1.121154
 50
240.847484
 51
336.022413
 73
     1
 72
     3
 10
3.3021148779662259
 20
5.557932528002155
 11
0.022714438611784
 21
0.0
 40
1.121154
 50
94.42016
 51
237.507353
 73
     0
 72
     3
 10
3.2846928252531171
 20
5.6008956990314438
 11
0.0198602015981276
 21
-0.0000026401130595
 40
1.121154
 50
285.247175
 51
142.133731
 73
     1
 72
     1
 10
3.269016093577787
 20
5.6145653277062557
 11
3.2585646914792372
 21
5.6497182337931466
 72
     3
 10
3.252626682995349
 20
5.679810928807453
 11
0.0274898012020939
 21
0.0
 40
1.121154
 50
282.474653
 51
347.525347
 73
     1
 72
     2
 10
3.2360311893333336
 20
5.5986183913984293
 40
0.0862681621250353
 50
59.76795
 51
88.916893
 73
     1
 72
     1
 10
3.2376618872821394
 20
5.6848711398800349
 11
3.2272044651759817
 21
5.6614358691554436
 97
       16
330
1D0
330
1D1
330
1D2
330
1D3
330
1D4
330
1D5
330
1D6
330
1D7
330
1D8
330
1D9
330
1DA
330
1DB
330
1DC
330
1DD
330
1DE
330
1DF
 75
     0
 76
     1
 98
        0
  0
LWPOLYLINE
  5
1E1
102
{ACAD_REACTORS
330
FE
102
}
100
AcDbEntity
  8
0
  6
CONTINUOUS
 62
     7
100
AcDbPolyline
 90
        4
 70
     1
 10
4.85
 20
5.716667
 10
4.85
 20
5.466667
 10
3.35
 20
5.466667
 10
3.35
 20
5.716667
  0
MTEXT
  5
1E2
100
AcDbEntity
  8
0
100
AcDbMText
 10
4.794444
 20
5.591667
 30
0.0
 40
0.121339
 41
1.75
 71
     6
 72
     5
  1
\C7;\fArial|b0|i0|;\H0.12133881635964;Hallmark Cards
  0
MTEXT
  5
1E3
100
AcDbEntity
  8
0
100
AcDbMText
 10
3.8
 20
6.2
 30
0.0
 40
0.121339
 41
1.8
 71
     5
 72
     5
  1
\C5;\fArial|b0|i0|;\H0.12133881635964;The Personal Touch
  0
ENDSEC
  0
SECTION
  2
OBJECTS
  0
DICTIONARY
  5
C
100
AcDbDictionary
  3
ACAD_GROUP
350
D
  3
ACAD_MLINESTYLE
350
1B
  0
DICTIONARY
  5
D
102
{ACAD_REACTORS
330
C
102
}
100
AcDbDictionary
  3
VISIOGROUP_0
350
31
  3
VISIOGROUP_1
350
3F
  3
VISIOGROUP_2
350
4B
  3
VISIOGROUP_3
350
80
  3
VISIOGROUP_4
350
89
  3
VISIOGROUP_5
350
FE
  0
DICTIONARY
  5
1B
102
{ACAD_REACTORS
330
C
102
}
100
AcDbDictionary
  3
STANDARD
350
1C
  0
MLINESTYLE
  5
1C
102
{ACAD_REACTORS
330
1B
102
}
100
AcDbMlineStyle
  2
STANDARD
 70
     0
  3

 62
   256
 51
90.0
 52
90.0
 71
     2
 49
0.5
 62
   256
  6
BYLAYER
 49
-0.5
 62
   256
  6
BYLAYER
  0
GROUP
  5
31
102
{ACAD_REACTORS
330
D
102
}
100
AcDbGroup
300
Group created by Visio.
 70
     0
 71
     1
340
32
340
33
340
34
340
35
340
36
340
37
340
38
340
39
340
3A
340
3B
  0
GROUP
  5
3F
102
{ACAD_REACTORS
330
D
102
}
100
AcDbGroup
300
Group created by Visio.
 70
     0
 71
     1
340
40
340
41
340
42
340
43
340
44
340
45
340
46
340
47
340
48
340
49
  0
GROUP
  5
4B
102
{ACAD_REACTORS
330
D
102
}
100
AcDbGroup
300
Group created by Visio.
 70
     0
 71
     1
340
4D
340
4F
340
51
340
52
340
53
340
54
340
55
340
56
340
57
340
58
340
59
340
5A
340
5B
340
5C
340
5D
340
5E
340
5F
340
60
340
61
340
62
340
63
340
64
340
65
340
68
340
69
340
6A
340
6B
340
6C
340
6D
340
6E
340
6F
340
70
340
71
340
72
340
73
340
74
340
76
340
75
340
77
340
79
340
78
340
7B
340
7C
340
7D
340
7E
  0
GROUP
  5
80
102
{ACAD_REACTORS
330
D
102
}
100
AcDbGroup
300
Group created by Visio.
 70
     0
 71
     1
340
81
340
82
340
84
340
85
340
86
340
87
340
83
  0
GROUP
  5
89
102
{ACAD_REACTORS
330
D
102
}
100
AcDbGroup
300
Group created by Visio.
 70
     0
 71
     1
340
8B
340
8D
340
8F
340
91
340
93
340
94
340
95
340
96
340
97
340
98
340
99
340
9A
340
9B
340
9C
340
9D
340
9E
340
9F
340
A0
340
A1
340
A2
340
A3
340
A4
340
A5
340
A6
340
A7
340
A8
340
A9
340
AA
340
AB
340
AC
340
AD
340
AE
340
AF
340
B0
340
B1
340
B2
340
B3
340
B4
340
B5
340
B6
340
B7
340
B8
340
B9
340
BA
340
BB
340
BC
340
BD
340
BE
340
BF
340
C0
340
C1
340
C2
340
C3
340
C4
340
C5
340
C6
340
C7
340
C8
340
C9
340
CA
340
CB
340
CC
340
CD
340
CE
340
CF
340
D0
340
D1
340
D2
340
D3
340
D4
340
D5
340
D6
340
D7
340
D8
340
D9
340
DA
340
DB
340
DC
340
DD
340
DE
340
DF
340
E0
340
E1
340
E2
340
E3
340
E4
340
E5
340
E6
340
E7
340
E8
340
E9
340
EA
340
EB
340
EC
340
ED
340
EE
340
EF
340
F0
340
F1
340
F3
340
F5
340
F6
340
F7
340
F8
  0
GROUP
  5
FE
102
{ACAD_REACTORS
330
D
102
}
100
AcDbGroup
300
Group created by Visio.
 70
     0
 71
     1
340
100
340
102
340
104
340
106
340
107
340
108
340
109
340
10A
340
10B
340
10C
340
10D
340
10F
340
110
340
111
340
112
340
113
340
114
340
115
340
116
340
117
340
118
340
119
340
11A
340
11B
340
11C
340
11D
340
11E
340
11F
340
120
340
121
340
122
340
123
340
124
340
126
340
128
340
129
340
12A
340
12B
340
12C
340
12D
340
12E
340
12F
340
130
340
131
340
132
340
133
340
134
340
135
340
136
340
137
340
138
340
139
340
13A
340
13B
340
13C
340
13D
340
13F
340
141
340
142
340
143
340
144
340
145
340
146
340
147
340
148
340
14B
340
14C
340
14D
340
14E
340
14F
340
150
340
151
340
152
340
153
340
154
340
155
340
156
340
157
340
159
340
158
340
15A
340
15C
340
15B
340
15D
340
15F
340
161
340
162
340
163
340
164
340
165
340
166
340
167
340
168
340
169
340
16A
340
16B
340
16C
340
16D
340
16E
340
16F
340
170
340
171
340
172
340
173
340
174
340
175
340
176
340
178
340
179
340
17A
340
17B
340
17C
340
17D
340
17F
340
181
340
182
340
183
340
184
340
185
340
186
340
187
340
188
340
189
340
18A
340
18B
340
18C
340
18D
340
18E
340
18F
340
190
340
191
340
192
340
193
340
194
340
195
340
196
340
198
340
19A
340
19B
340
19C
340
19D
340
19E
340
19F
340
1A0
340
1A1
340
1A2
340
1A3
340
1A4
340
1A5
340
1A6
340
1A7
340
1A8
340
1A9
340
1AA
340
1AB
340
1AC
340
1AD
340
1AE
340
1AF
340
1B1
340
1B3
340
1B4
340
1B5
340
1B6
340
1B7
340
1B8
340
1B9
340
1BA
340
1BB
340
1BC
340
1BD
340
1BE
340
1BF
340
1C0
340
1C1
340
1C2
340
1C3
340
1C4
340
1C5
340
1C6
340
1C7
340
1C8
340
1CA
340
1CC
340
1CD
340
1CE
340
1CF
340
1D0
340
1D1
340
1D2
340
1D3
340
1D4
340
1D5
340
1D6
340
1D7
340
1D8
340
1D9
340
1DA
340
1DB
340
1DC
340
1DD
340
1DE
340
1DF
340
1E0
340
1E1
  0
ENDSEC
  0
EOF
